<?xml version="1.0" standalone="no"?>
<!DOCTYPE svg PUBLIC "-//W3C//DTD SVG 1.1//EN" "http://www.w3.org/Graphics/SVG/1.1/DTD/svg11.dtd" >
<svg xmlns="http://www.w3.org/2000/svg">
<metadata></metadata>
<defs>
<font id="itc_avant_garde_gothic_prdemi" horiz-adv-x="1228" >
<font-face units-per-em="2048" ascent="1516" descent="-532" />
<missing-glyph horiz-adv-x="573" />
<glyph unicode="&#xfb01;" horiz-adv-x="1064" d="M51 895v242h96q8 101 38 178t96 139q102 92 237 92h76v-268q-49 -1 -75.5 -5t-50.5 -18t-34.5 -42t-13.5 -76h524v-1137h-272v895h-252v-895h-273v895h-96zM672 1266v250h272v-250h-272z" />
<glyph unicode="&#xfb02;" horiz-adv-x="1064" d="M51 895v242h96q8 101 38 178t96 139q102 92 237 92h76v-268q-49 -1 -75.5 -5t-50.5 -18t-34.5 -42t-13.5 -76h252v379h272v-1516h-272v895h-252v-895h-273v895h-96z" />
<glyph unicode="&#xfb03;" horiz-adv-x="1558" d="M31 895v242h96q12 162 116.5 270.5t254.5 108.5h75v-269q-65 0 -95.5 -8.5t-49.5 -32.5q-18 -23 -27 -69h250q12 162 116.5 270.5t254.5 108.5h76v-269q-65 0 -96 -9t-50 -32q-19 -25 -28 -69h524v-1137h-272v895h-252v-895h-273v895h-252v-895h-272v895h-96zM1176 1247 v269h272v-269h-272z" />
<glyph unicode="&#xfb04;" horiz-adv-x="1558" d="M31 895v242h96q12 162 116.5 270.5t254.5 108.5h75v-269q-65 0 -95.5 -8.5t-49.5 -32.5q-18 -23 -27 -69h250q12 162 116.5 270.5t254.5 108.5h76v-269q-65 0 -96 -9t-50 -32q-19 -25 -28 -69h252v379h272v-1516h-272v895h-252v-895h-273v895h-252v-895h-272v895h-96z " />
<glyph horiz-adv-x="0" />
<glyph horiz-adv-x="682" />
<glyph unicode=" "  horiz-adv-x="573" />
<glyph unicode="&#x09;" horiz-adv-x="573" />
<glyph unicode="&#xa0;" horiz-adv-x="573" />
<glyph unicode="!" horiz-adv-x="573" d="M150 0v260h272v-260h-272zM150 385v1131h272v-1131h-272z" />
<glyph unicode="&#x22;" horiz-adv-x="737" d="M39 1516h272l-55 -607h-164zM426 1516h272l-53 -607h-168z" />
<glyph unicode="#" horiz-adv-x="1146" d="M59 403l9 195h194l33 238h-174l8 194h193l55 404h205l-56 -404h187l55 404h205l-55 -404h157l-8 -194h-176l-33 -238h156l-8 -195h-177l-55 -403h-205l56 403h-187l-55 -403h-205l55 403h-174zM467 598h186l33 238h-186z" />
<glyph unicode="$" horiz-adv-x="1146" d="M119 510h270q5 -77 55 -126.5t127 -49.5q76 0 129.5 50.5t53.5 125.5q0 48 -16 81.5t-49 54.5t-63 32t-78 25q-15 4 -22 6q-350 101 -350 405q0 137 75 240t206 139v262h258v-266q116 -37 184.5 -131t79.5 -219h-256q-17 59 -49 92t-90 33q-56 0 -95.5 -42t-39.5 -100 q0 -35 10.5 -61t34 -44t45.5 -28.5t59 -23.5q78 -27 107 -35q321 -99 321 -418q0 -152 -83 -265.5t-228 -152.5v-270h-258v268q-160 44 -249 151t-89 267z" />
<glyph unicode="%" horiz-adv-x="1761" d="M74 1176q0 153 107.5 261.5t260.5 108.5q154 0 261.5 -108t107.5 -262q0 -152 -108.5 -260.5t-260.5 -108.5t-260 108.5t-108 260.5zM301 1176q0 -57 42 -99.5t99 -42.5q58 0 100 42.5t42 101.5q0 58 -41.5 99.5t-100.5 41.5q-60 0 -100.5 -41.5t-40.5 -101.5zM459 0 l626 1516h209l-628 -1516h-207zM944 340q0 154 108.5 262.5t262.5 108.5q153 0 260.5 -109t107.5 -262t-108 -262t-260 -109q-154 0 -262.5 108.5t-108.5 262.5zM1171 340q0 -58 42.5 -100.5t101.5 -42.5q58 0 99.5 42t41.5 101t-41 101t-100 42q-60 0 -102 -41.5 t-42 -101.5z" />
<glyph unicode="&#x26;" horiz-adv-x="1392" d="M70 451q0 146 73 247t211 181q-65 75 -96 137.5t-31 146.5q0 163 111 273t274 110q162 0 277 -107.5t115 -267.5q0 -238 -240 -372l139 -156l148 252h303l-260 -459l268 -291l-199 -176l-209 228q-164 -228 -385 -228q-133 0 -247.5 63t-183 174.5t-68.5 244.5zM342 438 q0 -88 60 -145t149 -57q72 0 121 45t92 122l-238 259q-86 -40 -135 -91.5t-49 -132.5zM485 1163q0 -31 18 -65t34.5 -52.5t47.5 -49.5l9 -9q35 18 55.5 30.5t46 34t37.5 48t12 59.5q0 60 -36.5 94.5t-96.5 34.5q-53 0 -90 -36.5t-37 -88.5z" />
<glyph unicode="'" horiz-adv-x="450" d="M90 1516h272l-53 -607h-166z" />
<glyph unicode="(" horiz-adv-x="778" d="M152 608q0 213 79 418.5t226 349.5q61 59 119 96t141 72v-295q-141 -115 -213 -282.5t-72 -356.5q0 -179 75.5 -360.5t209.5 -276.5v-295q-90 31 -151 73t-134 118q-134 142 -207 340t-73 399z" />
<glyph unicode=")" horiz-adv-x="778" d="M76 -27q141 115 212.5 282.5t71.5 356.5q0 180 -75 361t-209 276v295q90 -31 150.5 -72.5t133.5 -117.5q134 -142 207.5 -340.5t73.5 -399.5q0 -213 -79 -418.5t-226 -349.5q-61 -59 -119 -96t-141 -72v295z" />
<glyph unicode="*" horiz-adv-x="901" d="M137 1307l209 -11l-113 170l115 80l105 -188l104 188l115 -80l-115 -170l209 11l-2 -138l-207 11l115 -170l-125 -74l-94 188l-97 -188l-125 74l117 170l-209 -11z" />
<glyph unicode="+" d="M98 395v246h394v395h245v-395h393v-246h-393v-395h-245v395h-394z" />
<glyph unicode="," horiz-adv-x="573" d="M150 0v272h272v-288q0 -126 -72.5 -199.5t-197.5 -73.5v137q73 15 95.5 45t22.5 107h-120z" />
<glyph unicode="-" horiz-adv-x="860" d="M145 471v242h570v-242h-570z" />
<glyph unicode="." horiz-adv-x="573" d="M150 0v272h272v-272h-272z" />
<glyph unicode="/" horiz-adv-x="942" d="M12 -205l641 1721h277l-643 -1721h-275z" />
<glyph unicode="0" horiz-adv-x="1146" d="M66 492v544q0 229 144.5 369.5t373.5 140.5q217 0 358 -146t141 -364v-559q0 -224 -142 -366t-366 -142q-118 0 -209 40t-176 126q-69 71 -96.5 158t-27.5 199zM338 508q0 -122 60 -201.5t177 -79.5q116 0 176 77t60 198v532q0 105 -65 179.5t-168 74.5q-112 0 -176 -75 t-64 -189v-516z" />
<glyph unicode="1" horiz-adv-x="1146" d="M281 1257v259h462v-1516h-272v1257h-190z" />
<glyph unicode="2" horiz-adv-x="1146" d="M74 1044q0 138 65.5 253t180 182t251.5 67t252 -65.5t181.5 -180t66.5 -251.5q0 -79 -22.5 -152t-66.5 -138t-91.5 -117t-112.5 -110l-307 -274h600v-258h-981v258q90 84 270.5 252t270.5 252q78 73 123 143.5t45 155.5q0 99 -61 163t-160 64q-63 0 -118.5 -33t-84.5 -90 t-29 -170h-270q-2 16 -2 49z" />
<glyph unicode="3" horiz-adv-x="1146" d="M57 457h273q9 -97 78.5 -163.5t166.5 -66.5q99 0 170.5 73.5t71.5 172.5q0 64 -24.5 113.5t-66.5 79t-95 44.5t-115 15h-45v258h47q82 0 136.5 41t54.5 121q0 67 -35 105t-101 38q-58 0 -94 -40.5t-41 -98.5h-272q11 136 76.5 233t187.5 140q74 24 139 24 q168 0 290 -120.5t122 -288.5q0 -175 -131 -269q119 -51 179.5 -154t60.5 -237q0 -143 -70 -260t-189.5 -182.5t-261.5 -65.5q-210 0 -355 139t-157 349z" />
<glyph unicode="4" horiz-adv-x="1146" d="M31 227v224l696 1065h229v-1031h160v-258h-160v-227h-272v227h-653zM324 485h360v570h-4z" />
<glyph unicode="5" horiz-adv-x="1146" d="M51 451h273q18 -99 80.5 -161.5t158.5 -62.5q112 0 186 79.5t74 191.5q0 107 -75 186.5t-181 79.5q-122 0 -205 -109l-243 68l143 793h686v-259h-481l-49 -278q97 43 194 43q137 0 249.5 -75t173.5 -194.5t61 -254.5q0 -108 -41.5 -206t-112 -168.5t-168 -112.5 t-205.5 -42q-130 0 -247.5 64t-191 175.5t-79.5 242.5z" />
<glyph unicode="6" horiz-adv-x="1146" d="M47 512q0 172 123 358l422 643h319l-336 -512q23 7 64 7q130 0 236.5 -69.5t164.5 -182t58 -242.5q0 -146 -67.5 -271t-189 -199.5t-268.5 -74.5q-149 0 -270.5 73t-188.5 197.5t-67 272.5zM319 500q0 -110 72 -191.5t182 -81.5q106 0 179 77.5t73 184.5q0 108 -75 187.5 t-183 79.5q-103 0 -175.5 -76t-72.5 -180z" />
<glyph unicode="7" horiz-adv-x="1146" d="M127 1257v259h893v-259l-547 -1257h-303l565 1257h-608z" />
<glyph unicode="8" horiz-adv-x="1146" d="M68 461q0 127 57.5 225t167.5 156q-68 66 -101.5 133t-33.5 153q0 177 119 297.5t296 120.5t297.5 -120.5t120.5 -297.5q0 -87 -34 -153t-103 -133q110 -58 167.5 -156t57.5 -225q0 -134 -70 -248t-186.5 -179t-249.5 -65t-249.5 65t-186 179t-69.5 248zM340 461 q0 -97 68 -165.5t165 -68.5t165.5 68.5t68.5 165.5t-68.5 165t-165.5 68t-165 -68t-68 -165zM414 1124q0 -66 46.5 -113.5t112.5 -47.5t114 47.5t48 113.5q0 68 -47.5 116t-114.5 48t-113 -48.5t-46 -115.5z" />
<glyph unicode="9" horiz-adv-x="1146" d="M49 999q0 146 67.5 271t188.5 199.5t268 74.5q149 0 270.5 -73t189 -197.5t67.5 -272.5q0 -172 -123 -358l-422 -643h-319l335 512q-20 -6 -63 -6q-130 0 -236.5 69t-164.5 181.5t-58 242.5zM322 1024q0 -115 69.5 -190.5t183.5 -75.5q104 0 178 75.5t74 180.5 q0 111 -71 191.5t-181 80.5q-107 0 -180 -77.5t-73 -184.5z" />
<glyph unicode=":" horiz-adv-x="573" d="M150 0v272h272v-272h-272zM150 864v273h272v-273h-272z" />
<glyph unicode=";" horiz-adv-x="573" d="M150 0v272h272v-288q0 -126 -72.5 -199.5t-197.5 -73.5v137q73 15 95.5 45t22.5 107h-120zM150 864v273h272v-273h-272z" />
<glyph unicode="&#x3c;" d="M94 422v192l1041 439v-236l-721 -299l721 -299v-235z" />
<glyph unicode="=" d="M98 166v246h1032v-246h-1032zM98 625v245h1032v-245h-1032z" />
<glyph unicode="&#x3e;" d="M94 -16v235l721 299l-721 299v236l1041 -439v-192z" />
<glyph unicode="?" horiz-adv-x="1146" d="M78 1073q13 159 86 273.5t215 166.5q84 33 170 33q199 0 328 -133.5t129 -333.5q0 -78 -30 -147.5t-70 -116t-107 -108.5q-38 -36 -57.5 -57t-39 -51.5t-27 -64.5t-7.5 -81v-70h-273v59q0 85 18.5 155.5t48.5 117.5t66 86.5t72 70.5t66 60.5t48.5 66.5t18.5 80 q0 90 -51.5 142.5t-140.5 52.5q-96 0 -137 -50.5t-54 -150.5h-272zM395 0v272h273v-272h-273z" />
<glyph unicode="@" horiz-adv-x="1515" d="M102 719q0 152 59.5 289.5t160.5 236t239.5 156t290.5 57.5q131 0 254 -43.5t218.5 -120t153.5 -192.5t58 -252q0 -172 -84.5 -312t-237.5 -216q-90 -46 -163 -46q-52 0 -84.5 32t-34.5 85h-4q-84 -117 -223 -117q-130 0 -217 99t-87 231q0 94 31.5 186t86.5 165.5 t140 119t183 45.5q76 0 132.5 -35.5t80.5 -105.5h4l31 113h170l-138 -525q-16 -67 -16 -80q0 -40 37 -40q36 0 71.5 23.5t62.5 60t46.5 74t30.5 71.5q22 71 22 139q0 152 -69 266t-187.5 173t-269.5 59q-165 0 -299 -81.5t-207.5 -219t-73.5 -301.5q0 -260 170 -427 t430 -167q126 0 244 48t201 138h155q-99 -156 -260 -243t-348 -87q-155 0 -295.5 57t-242.5 155t-162 236.5t-60 295.5zM580 631q0 -79 42.5 -130.5t118.5 -51.5q75 0 137 53t94 127t32 147t-43 123.5t-115 50.5q-75 0 -138 -50.5t-95.5 -123t-32.5 -145.5z" />
<glyph unicode="A" horiz-adv-x="1515" d="M14 0l631 1516h219l635 -1516h-309l-162 391h-543l-161 -391h-310zM580 655h348l-172 465h-4z" />
<glyph unicode="B" horiz-adv-x="1187" d="M143 0v1516h328q72 0 119.5 -3t109 -13.5t113.5 -35.5t96 -65q58 -51 93.5 -128.5t35.5 -154.5q0 -194 -170 -289q260 -93 260 -376q0 -111 -49 -205.5t-139 -155.5q-133 -90 -391 -90h-406zM424 262h141q283 0 283 199q0 55 -24.5 96t-65.5 63.5t-88 33t-99 10.5h-147 v-402zM424 926h106q45 0 82.5 7.5t72 24.5t54 50.5t19.5 81.5q0 46 -18 79t-50 50.5t-68.5 25.5t-80.5 8h-117v-327z" />
<glyph unicode="C" horiz-adv-x="1597" d="M70 764q0 158 63 302.5t168 249.5t250 167.5t303 62.5q233 0 427.5 -125t287.5 -338h-320q-170 201 -405 201q-135 0 -250 -75t-179.5 -195.5t-64.5 -253.5q0 -135 66.5 -256.5t183.5 -197t254 -75.5q116 0 205.5 48t175.5 143h326q-87 -204 -282.5 -328.5t-418.5 -124.5 q-160 0 -306 64t-252 171t-169 254t-63 306z" />
<glyph unicode="D" horiz-adv-x="1433" d="M129 0v1516h344q420 0 623 -177q119 -105 184.5 -262.5t65.5 -322.5q0 -199 -97 -381t-266 -275q-178 -98 -504 -98h-350zM410 262h59q120 0 203 14t166 60q107 60 167 174.5t60 243.5q0 105 -42.5 204.5t-119.5 167.5q-41 36 -90 61t-91.5 38t-103.5 19.5t-100 7.5 t-108 1v-991z" />
<glyph unicode="E" horiz-adv-x="1064" d="M125 0v1516h815v-263h-534v-370h512v-262h-512v-359h534v-262h-815z" />
<glyph unicode="F" horiz-adv-x="983" d="M125 0v1516h772v-263h-491v-370h468v-262h-468v-621h-281z" />
<glyph unicode="G" horiz-adv-x="1720" d="M55 758q0 161 65.5 308t175 251.5t258 166.5t308.5 62q151 0 299 -57t267 -167t169 -251h-335q-65 100 -174.5 156.5t-231.5 56.5q-144 0 -263.5 -71t-188 -192t-68.5 -265q0 -105 43 -205q64 -153 194 -236.5t297 -83.5q144 0 264 75t185 204h-635v262h989v-33 q0 -127 -42.5 -245.5t-118.5 -212.5t-176 -165t-220.5 -109t-245.5 -38q-163 0 -312.5 61t-260 165t-176.5 251t-66 312z" />
<glyph unicode="H" horiz-adv-x="1392" d="M145 0v1516h281v-617h543v617h280v-1516h-280v637h-543v-637h-281z" />
<glyph unicode="I" horiz-adv-x="573" d="M147 0v1516h281v-1516h-281z" />
<glyph unicode="J" horiz-adv-x="983" d="M4 356h283q28 -125 133 -125q72 0 104.5 52t32.5 129v1104h281v-1086q0 -148 -58.5 -260.5t-185.5 -165.5q-81 -35 -170 -35q-175 0 -283 105t-137 282z" />
<glyph unicode="K" horiz-adv-x="1269" d="M182 0v1516h281v-656h4l473 656h330l-572 -746l572 -770h-330l-473 666h-4v-666h-281z" />
<glyph unicode="L" horiz-adv-x="901" d="M147 0v1516h281v-1254h463v-262h-744z" />
<glyph unicode="M" horiz-adv-x="1843" d="M129 0v1516h389l404 -1147h4l399 1147h389v-1516h-280v1137h-7l-387 -1137h-237l-389 1137h-4v-1137h-281z" />
<glyph unicode="N" horiz-adv-x="1515" d="M143 0v1516h320l627 -1102h4v1102h280v-1516h-313l-633 1102h-4v-1102h-281z" />
<glyph unicode="O" horiz-adv-x="1720" d="M68 754q0 162 62.5 309t168.5 252.5t253 168t308 62.5t308 -62.5t253 -168t169 -252.5t63 -309q0 -160 -63.5 -306t-170 -250.5t-253 -166.5t-306.5 -62q-214 0 -396 104.5t-289 285.5t-107 395zM348 756q0 -140 67.5 -260.5t186 -192.5t258.5 -72t258.5 72t186 192.5 t67.5 260.5q0 141 -66.5 262t-185 193.5t-260.5 72.5t-260.5 -72.5t-185 -193.5t-66.5 -262z" />
<glyph unicode="P" horiz-adv-x="1146" d="M147 0v1516h400q150 0 243.5 -21.5t182.5 -99.5q143 -124 143 -348q0 -225 -143 -349q-89 -78 -182 -99t-244 -21h-119v-578h-281zM428 840h90q50 0 89.5 3.5t84.5 16t74.5 34t49.5 60.5t20 93q0 53 -19 92t-47 60.5t-71.5 34t-82 16t-88.5 3.5h-100v-413z" />
<glyph unicode="Q" horiz-adv-x="1720" d="M66 754q0 162 62.5 309t168.5 252.5t253 168t308 62.5q159 0 305.5 -61.5t253.5 -166t170.5 -249.5t63.5 -305q0 -143 -39.5 -256t-126.5 -227q48 -31 93 -40.5t110 -9.5v-262h-39q-100 0 -184 31t-177 94q-194 -125 -430 -125q-214 0 -396 104.5t-289 285.5t-107 395z M346 762q0 -23 4 -35q79 18 207 18q180 0 375.5 -86.5t327.5 -218.5h4q59 80 82.5 148.5t23.5 167.5q0 142 -66 263t-184.5 193t-261.5 72q-140 0 -258 -71t-186 -191t-68 -260zM434 465q68 -107 182.5 -170.5t241.5 -63.5q95 0 207 45q-131 98 -254 152.5t-256 54.5 q-71 0 -121 -18z" />
<glyph unicode="R" horiz-adv-x="1187" d="M131 0v1516h465q115 0 205.5 -22t163.5 -81q85 -68 131.5 -163.5t46.5 -202.5q0 -99 -39 -198t-107 -165q-55 -52 -111 -78t-141 -47l412 -559h-340l-401 580h-4v-580h-281zM412 791h180q119 0 194.5 59t75.5 174q0 111 -77.5 170t-192.5 59h-180v-462z" />
<glyph unicode="S" horiz-adv-x="1064" d="M25 434h294q8 -90 60.5 -146.5t140.5 -56.5q85 0 147 53.5t62 137.5q0 31 -7.5 58.5t-18 47t-31.5 38t-37 30t-45.5 25t-47.5 20t-52 19t-50 18.5q-102 39 -137 57q-223 116 -223 379q0 186 128 309t316 123q184 0 312 -123.5t137 -308.5h-287q-6 79 -49.5 124.5 t-120.5 45.5q-67 0 -111.5 -43.5t-44.5 -110.5q0 -26 7 -49t15.5 -39.5t28.5 -32.5t32 -24.5t41 -20.5t40.5 -16t45.5 -14.5t42 -13.5q91 -30 159.5 -68.5t124.5 -93t85 -131.5t29 -174q0 -214 -139 -349t-353 -135q-202 0 -343 132.5t-150 332.5z" />
<glyph unicode="T" horiz-adv-x="860" d="M12 1253v263h844v-263h-283v-1253h-280v1253h-281z" />
<glyph unicode="U" horiz-adv-x="1310" d="M113 553v963h280v-963q0 -322 262 -322q263 0 263 322v963h280v-963q0 -231 -88 -358q-75 -107 -197.5 -166.5t-255.5 -59.5q-130 0 -252.5 57.5t-197.5 159.5q-94 124 -94 367z" />
<glyph unicode="V" horiz-adv-x="1433" d="M16 1516h295l406 -1154h4l407 1154h295l-587 -1516h-230z" />
<glyph unicode="W" horiz-adv-x="1843" d="M14 1516h287l262 -1059h4l260 1059h205l254 -1059h4l264 1059h287l-440 -1516h-223l-246 1001h-4l-250 -1001h-221z" />
<glyph unicode="X" horiz-adv-x="1392" d="M8 0l522 756l-522 760h334l354 -529l365 529h323l-524 -760l524 -756h-323l-365 524l-354 -524h-334z" />
<glyph unicode="Y" horiz-adv-x="1269" d="M-4 1516h307l330 -697l332 697h309l-500 -957v-559h-280v559z" />
<glyph unicode="Z" horiz-adv-x="1024" d="M39 0v229l579 1024h-548v263h876v-244l-575 -1010h614v-262h-946z" />
<glyph unicode="[" horiz-adv-x="655" d="M135 369v551q0 493 447 624v-299q-64 -29 -93 -63q-73 -86 -73 -320v-543q0 -61 6 -107t22.5 -94t51 -84t86.5 -57v-299q-100 23 -178 72t-128 113.5t-82.5 148t-45.5 170.5t-13 187z" />
<glyph unicode="\" horiz-adv-x="1310" d="M197 1516h276l641 -1721h-274z" />
<glyph unicode="]" horiz-adv-x="655" d="M74 -20q60 24 92 61q74 87 74 321v541q0 61 -6 107t-22.5 94t-51 84t-86.5 57v299q446 -104 446 -690v-551q0 -494 -446 -625v302z" />
<glyph unicode="^" d="M150 768l356 748h217l356 -748h-245l-220 508l-221 -508h-243z" />
<glyph unicode="_" horiz-adv-x="1024" d="M0 -154h1024v-102h-1024v102z" />
<glyph unicode="`" horiz-adv-x="860" d="M102 1473l117 208l455 -276l-109 -188z" />
<glyph unicode="a" horiz-adv-x="1351" d="M55 575q0 121 42.5 231t116 192t181 130t230.5 48q187 0 336 -136q28 -28 40 -47h5v144h249v-1137h-249v141q-67 -78 -179.5 -128t-218.5 -50q-125 0 -230 50t-175 134.5t-109 195t-39 232.5zM328 563q0 -145 97 -247.5t241 -102.5q148 0 239.5 103.5t91.5 254.5 q0 150 -92 252.5t-239 102.5q-149 0 -243.5 -106.5t-94.5 -256.5z" />
<glyph unicode="b" horiz-adv-x="1351" d="M96 0v1516h273v-482q68 68 161.5 105t192.5 37q161 0 293 -84t205 -222t73 -297q0 -124 -49 -247q-67 -171 -200.5 -267t-315.5 -96q-124 0 -212.5 40.5t-170.5 133.5v-137h-250zM352 584q0 -155 94.5 -263t247.5 -108q148 0 238 103.5t90 254.5q0 148 -93 251.5 t-239 103.5q-140 0 -239 -101t-99 -241z" />
<glyph unicode="c" horiz-adv-x="1310" d="M76 573q0 163 80.5 302t219.5 220t302 81q199 0 353.5 -113t217.5 -303h-307q-46 83 -109 124.5t-155 41.5q-148 0 -239 -103t-91 -254q0 -150 96 -253t246 -103q154 0 252 158h307q-68 -189 -219 -298.5t-350 -109.5q-165 0 -304.5 82.5t-219.5 222.5t-80 305z" />
<glyph unicode="d" horiz-adv-x="1351" d="M70 567q0 185 94.5 335t261.5 224q113 50 223 50q107 0 190.5 -32.5t153.5 -107.5v480h273v-1516h-250v139h-4q-54 -87 -153 -131.5t-210 -44.5q-122 0 -230 49t-184 131t-120.5 193t-44.5 231zM342 578q0 -146 95.5 -255.5t240.5 -109.5q142 0 239 106.5t97 249.5 t-97 250t-239 107q-136 0 -236 -105.5t-100 -242.5z" />
<glyph unicode="e" horiz-adv-x="1310" d="M63 565q0 168 77.5 308t215 221.5t306.5 81.5q163 0 298 -78.5t212 -214.5t77 -299q0 -66 -16 -138h-883q6 -33 37 -81q46 -71 119.5 -111.5t157.5 -40.5q182 0 262 145h286q-55 -173 -210.5 -284t-337.5 -111q-125 0 -237 47t-191.5 127t-126 191.5t-46.5 236.5z M342 666h629q-20 123 -101 191.5t-206 68.5q-124 0 -208.5 -69t-113.5 -191z" />
<glyph unicode="f" horiz-adv-x="573" d="M31 895v242h96q8 102 37.5 178.5t95.5 138.5q47 43 110.5 67.5t127.5 24.5h75v-268q-49 -1 -75.5 -5t-50.5 -18t-34.5 -42t-13.5 -76h160v-242h-160v-895h-272v895h-96z" />
<glyph unicode="g" horiz-adv-x="1351" d="M66 580q0 158 76 295t210 219t293 82q113 0 208 -45t155 -134h4v140h264v-928q0 -141 -36 -257.5t-119.5 -212.5t-209.5 -149q-121 -53 -256 -53q-192 0 -347.5 100.5t-223.5 276.5h311q110 -127 281 -127q149 0 244.5 101.5t103.5 252.5l-4 4q-128 -182 -373 -182 q-117 0 -225 51q-167 76 -261.5 228.5t-94.5 337.5zM338 578q0 -150 96.5 -257.5t243.5 -107.5q96 0 172 53.5t115 136.5t39 177q0 138 -98.5 242t-235.5 104q-142 0 -237 -103t-95 -245z" />
<glyph unicode="h" d="M111 0v1516h272v-459q125 119 295 119q96 0 193.5 -49t156.5 -126q90 -117 90 -342v-659h-272v582q0 56 -4 99.5t-18.5 91.5t-39.5 79.5t-68.5 52.5t-103.5 21q-58 0 -101.5 -22t-67 -54.5t-38 -81.5t-18.5 -92.5t-4 -97.5v-578h-272z" />
<glyph unicode="i" horiz-adv-x="491" d="M109 0v1137h272v-1137h-272zM109 1266v250h272v-250h-272z" />
<glyph unicode="j" horiz-adv-x="532" d="M33 -113q28 2 47.5 8t32 17.5t19.5 22.5t10.5 33.5t4 38t0.5 48.5v1082h273v-1088q0 -121 -44 -216.5t-133 -153t-210 -58.5v266zM147 1266v250h273v-250h-273z" />
<glyph unicode="k" horiz-adv-x="1187" d="M164 0v1516h272v-914h4l363 535h313l-409 -557l462 -580h-344l-385 532h-4v-532h-272z" />
<glyph unicode="l" horiz-adv-x="491" d="M111 0v1516h272v-1516h-272z" />
<glyph unicode="m" horiz-adv-x="1925" d="M111 0v1137h249v-97h5q43 70 124 103t173 33q101 0 186.5 -46.5t140.5 -132.5q125 179 367 179q113 0 212 -44.5t163 -132.5q86 -119 86 -335v-664h-273v631q0 295 -215 295q-57 0 -108 -29t-80 -78q-41 -66 -41 -231v-588h-273v631q0 59 -11.5 109.5t-37 93.5t-71 67.5 t-107.5 24.5q-43 0 -76.5 -12.5t-56 -31.5t-39 -49.5t-25 -59t-13.5 -68.5t-6 -69.5t-1 -68.5v-567h-272z" />
<glyph unicode="n" d="M111 0v1137h251v-99q71 70 144.5 104t167.5 34t188 -43t154 -115q104 -125 104 -387v-631h-272v561q0 54 -4 99t-18.5 97t-38.5 87t-67.5 58.5t-101.5 23.5q-53 0 -104 -28t-82 -73q-23 -33 -34.5 -90.5t-13 -95t-1.5 -98.5v-541h-272z" />
<glyph unicode="o" horiz-adv-x="1310" d="M51 567q0 165 81 305t220.5 222t304.5 82q124 0 235.5 -48t192 -129t128 -193t47.5 -235q0 -170 -78.5 -309t-217 -219t-307.5 -80q-122 0 -234 48t-193.5 129t-130 193t-48.5 234zM324 567q0 -146 94 -250t239 -104q142 0 236 104.5t94 247.5q0 142 -95 251.5 t-235 109.5q-141 0 -237 -108.5t-96 -250.5z" />
<glyph unicode="p" horiz-adv-x="1351" d="M96 -379v1516h250v-133h4q136 172 369 172q122 0 229 -49t181 -131t116.5 -192t42.5 -231q0 -161 -71.5 -300t-203.5 -224.5t-294 -85.5q-111 0 -189.5 33.5t-160.5 112.5v-488h-273zM352 569q0 -108 51.5 -194t147.5 -129q68 -33 133 -33q141 0 236.5 107t95.5 249 q0 141 -94 249t-234 108q-145 0 -240.5 -105.5t-95.5 -251.5z" />
<glyph unicode="q" horiz-adv-x="1351" d="M63 580q0 156 76 293t209.5 220t290.5 83q240 0 362 -183h5v144h249v-1516h-272v488q-134 -146 -346 -146q-163 0 -296 86.5t-205.5 227.5t-72.5 303zM336 573q0 -151 93 -255.5t241 -104.5q139 0 233 106t94 248q0 144 -93.5 251.5t-235.5 107.5t-237 -105t-95 -248z " />
<glyph unicode="r" horiz-adv-x="655" d="M129 0v1137h250v-101h4q57 83 111 111.5t155 28.5v-265q-248 -8 -248 -272v-639h-272z" />
<glyph unicode="s" horiz-adv-x="901" d="M39 358h278q15 -68 49.5 -106.5t100.5 -38.5q51 0 87 32t36 83q0 34 -17 59q-10 14 -32 28.5t-53 27.5t-54.5 21.5t-57.5 19.5t-42 14q-254 89 -254 325q0 151 113.5 252t267.5 101q150 0 257 -100t113 -249h-266q-20 99 -108 99q-43 0 -74 -28.5t-31 -70.5 q0 -21 7 -36.5t23.5 -26.5t28 -16.5t35.5 -14.5q50 -18 99 -33q74 -23 125 -47.5t98 -63t70.5 -96t23.5 -133.5q0 -169 -114 -283t-283 -114q-99 0 -190.5 38.5t-149.5 111.5q-42 54 -61 111.5t-25 133.5z" />
<glyph unicode="t" horiz-adv-x="614" d="M43 895v242h133v379h273v-379h163v-242h-163v-895h-273v895h-133z" />
<glyph unicode="u" d="M102 535v602h273v-580q0 -55 5 -99.5t20 -92t40 -79.5t69 -52.5t103 -20.5q67 0 114.5 31t71.5 84t34 108.5t10 118.5v582h272v-1137h-250v115h-4q-58 -79 -127 -115.5t-166 -36.5q-115 0 -218 46t-163 134q-52 76 -68 170.5t-16 221.5z" />
<glyph unicode="v" horiz-adv-x="1146" d="M6 1137h295l274 -754h7l258 754h299l-461 -1137h-213z" />
<glyph unicode="w" horiz-adv-x="1638" d="M23 1137h290l207 -695h4l187 695h217l184 -695h4l209 695h291l-416 -1137h-168l-213 737h-4l-215 -737h-168z" />
<glyph unicode="x" horiz-adv-x="1146" d="M6 0l404 586l-353 551h305l209 -342l207 342h305l-352 -551l408 -586h-324l-244 389l-241 -389h-324z" />
<glyph unicode="y" horiz-adv-x="1187" d="M16 1137h312l258 -729l274 729h309l-653 -1516h-293l209 485z" />
<glyph unicode="z" horiz-adv-x="942" d="M41 0v250l504 637h-447v250h772v-250l-503 -637h538v-250h-864z" />
<glyph unicode="{" horiz-adv-x="696" d="M-6 477v203q33 0 65 6t63.5 19t51 39t19.5 61v442q0 89 48.5 157.5t131.5 102.5q56 23 92 23h184v-184h-92q-84 0 -84 -134v-434q0 -53 -22 -92t-60.5 -60t-81 -31.5t-92.5 -12.5v-7q60 -3 102 -13.5t79.5 -33t56 -64.5t18.5 -104v-434q0 -133 84 -133h92v-184h-184 q-39 0 -92 22q-83 34 -131.5 102.5t-48.5 157.5v443q0 51 -32 85t-74.5 46t-92.5 12z" />
<glyph unicode="|" d="M477 -512v2048h273v-2048h-273z" />
<glyph unicode="}" horiz-adv-x="696" d="M47 -207h92q84 0 84 133v434q0 62 18.5 104t56 64.5t79.5 33t102 13.5v7q-50 2 -92.5 12.5t-81 31.5t-60.5 60t-22 92v434q0 134 -84 134h-92v184h184q37 0 93 -23q83 -34 131.5 -102.5t48.5 -157.5v-442q0 -35 19 -61t50.5 -39t63.5 -19t65 -6v-203q-50 0 -92 -12 t-74 -46t-32 -85v-443q0 -89 -48.5 -157.5t-131.5 -102.5q-53 -22 -93 -22h-184v184z" />
<glyph unicode="~" d="M137 524q47 87 109 135t151 48q65 0 151 -35t164 -70t122 -35q28 0 53 10.5t49.5 35t36.5 39t36 47.5q3 4 5 6.5t4 5.5l74 -201q-27 -36 -42 -54.5t-42.5 -47t-50.5 -42.5t-56.5 -25t-69.5 -11q-54 0 -112 21.5t-101 48t-105.5 48t-125.5 21.5q-60 0 -101 -38.5 t-75 -102.5z" />
<glyph unicode="&#xa1;" horiz-adv-x="573" d="M152 -379v1129h272v-1129h-272zM152 877v260h272v-260h-272z" />
<glyph unicode="&#xa2;" horiz-adv-x="1146" d="M88 784q0 164 105 301.5t264 169.5v209h258v-209q79 -27 125.5 -52t95.5 -75q101 -104 123 -221h-287q-28 44 -81.5 69t-108.5 25q-95 0 -158.5 -65.5t-63.5 -159.5q0 -95 65 -159t161 -64q53 0 91.5 20t82.5 62h299q-54 -135 -133 -213.5t-211 -118.5v-223h-258v223 q-159 33 -264 174t-105 307z" />
<glyph unicode="&#xa3;" horiz-adv-x="1146" d="M-4 637v258h115q-33 76 -33 164q0 98 40 188t106.5 155.5t157 104.5t187.5 39q142 0 259.5 -77t181.5 -207q41 -80 41 -150h-277q-15 76 -71 126t-132 50q-99 0 -160 -71.5t-61 -172.5q0 -85 58 -149h426v-258h-224q38 -79 51 -124.5t13 -119.5q0 -70 -23 -135h23 q88 0 146.5 57.5t58.5 145.5q0 33 -21 102h272q21 -43 21 -104q0 -100 -41 -187q-60 -137 -178 -204.5t-273 -67.5h-581v258h284q39 70 39 148q0 69 -29 121t-87 110h-289z" />
<glyph unicode="&#xa4;" horiz-adv-x="1232" d="M20 248l170 170q-88 130 -88 280q0 157 93 289l-175 172l136 137l176 -174q130 88 284 88q159 0 283 -86l174 170l133 -135l-170 -170q94 -129 94 -291q0 -153 -88 -280l170 -168l-135 -137l-166 166q-134 -95 -295 -95q-156 0 -294 95l-166 -164zM356 698 q0 -106 76.5 -184t183.5 -78q108 0 184.5 78t76.5 186t-76.5 185.5t-184.5 77.5t-184 -78.5t-76 -186.5z" />
<glyph unicode="&#xa5;" horiz-adv-x="1146" d="M-20 1516h280l315 -590l318 590h274l-282 -515h180v-215h-291l-63 -116v-68h336v-215h-336v-387h-273v387h-340v215h340v68l-65 116h-291v215h180z" />
<glyph unicode="&#xa6;" d="M477 -358v716h273v-716h-273zM477 666v716h273v-716h-273z" />
<glyph unicode="&#xa7;" horiz-adv-x="1146" d="M57 711q0 100 46.5 170.5t136.5 130.5q-60 97 -60 192q0 111 60 190.5t151 115.5t199 36q190 0 297 -99t129 -286h-256q-24 135 -168 135q-63 0 -109.5 -27.5t-46.5 -86.5q0 -15 4 -28t16.5 -26t18.5 -20t27.5 -20t24.5 -14.5t27 -14.5q8 -4 11 -6q57 -28 168.5 -85.5 t167.5 -86.5q84 -42 134 -117.5t50 -167.5q0 -83 -47 -159.5t-120 -129.5q102 -102 102 -246q0 -119 -63 -208.5t-161.5 -133t-215.5 -43.5q-197 0 -325.5 119.5t-135.5 315.5h256q0 -90 57 -137.5t150 -47.5q69 0 125.5 34t56.5 99q0 17 -4 31.5t-15.5 28t-18.5 22 t-27 21.5t-26 16.5t-30.5 16.5t-26.5 14q-57 29 -170.5 90t-169.5 90q-100 55 -159.5 136t-59.5 186zM313 727q0 -65 117 -127l318 -162q81 62 81 133q0 24 -10 44t-30.5 36.5t-35.5 25.5t-42 23l-316 160q-32 -22 -57 -60t-25 -73z" />
<glyph unicode="&#xa8;" horiz-adv-x="1024" d="M160 1288v273h274v-273h-274zM592 1288v273h272v-273h-272z" />
<glyph unicode="&#xa9;" horiz-adv-x="1515" d="M-25 758q0 160 62.5 305t167.5 249.5t250.5 166t304.5 61.5t303.5 -62t249 -167t166 -250t61.5 -303q0 -212 -104.5 -392t-284.5 -285.5t-391 -105.5q-159 0 -304.5 62t-250.5 166.5t-167.5 249.5t-62.5 305zM160 758q0 -164 78.5 -303t216.5 -221t303 -82t303 82 t216.5 221t78.5 303t-78.5 303t-216.5 221t-303 82t-303 -81.5t-216.5 -220.5t-78.5 -304zM330 760q0 201 120 334t320 133q145 0 260.5 -85.5t132.5 -226.5h-184q-27 81 -76.5 119.5t-132.5 38.5q-124 0 -190 -92t-66 -221q0 -87 24.5 -155.5t84 -113.5t147.5 -45 q86 0 135 37.5t74 120.5h184q-17 -140 -132.5 -225.5t-260.5 -85.5q-200 0 -320 133t-120 334z" />
<glyph unicode="&#xaa;" horiz-adv-x="737" d="M39 1225q0 131 87.5 226t217.5 95q46 0 89.5 -18.5t66.5 -54.5h4v53h180v-608h-180v51h-4q-49 -72 -156 -72q-133 0 -219 96t-86 232zM223 1219q0 -61 40.5 -104.5t101.5 -43.5q63 0 103 44.5t40 107.5q0 64 -40.5 106.5t-102.5 42.5q-63 0 -102.5 -45t-39.5 -108z" />
<glyph unicode="&#xab;" horiz-adv-x="942" d="M125 489v207l287 265v-252l-140 -117l140 -119v-252zM532 489v207l287 265v-252l-139 -117l139 -119v-252z" />
<glyph unicode="&#xac;" d="M98 625v245h1032v-649h-245v404h-787z" />
<glyph unicode="&#xad;" horiz-adv-x="860" d="M145 471v242h570v-242h-570z" />
<glyph unicode="&#xae;" horiz-adv-x="1515" d="M-25 758q0 160 62.5 305t167.5 249.5t250.5 166t304.5 61.5t303.5 -62t249 -167t166 -250t61.5 -303q0 -212 -104.5 -392t-284.5 -285.5t-391 -105.5q-159 0 -304.5 62t-250.5 166.5t-167.5 249.5t-62.5 305zM160 758q0 -164 78.5 -303t216.5 -221t303 -82t303 82 t216.5 221t78.5 303t-78.5 303t-216.5 221t-303 82t-303 -81.5t-216.5 -220.5t-78.5 -304zM424 303v895h385q62 0 115 -12.5t97.5 -40t69.5 -76.5t25 -115q0 -85 -42 -141t-124 -76v-4q86 -25 115.5 -75.5t34.5 -147.5q0 -2 1 -46.5t2.5 -62.5t7.5 -48.5t17 -49.5h-182 q-8 12 -13 27.5t-7.5 36t-3.5 34t-1.5 38t-0.5 30.5q-1 26 -2.5 40t-5 36t-9.5 35.5t-16.5 28.5t-26.5 25t-37 17q-39 11 -63 11h-158v-359h-178zM602 805h172q79 0 119.5 32t40.5 111q0 19 -8 35q-11 31 -36 47.5t-48 19.5t-60 3h-180v-248z" />
<glyph unicode="&#xaf;" horiz-adv-x="860" d="M147 1307v227h568v-227h-568z" />
<glyph unicode="&#xb0;" horiz-adv-x="819" d="M117 1165q0 123 85 208t208 85t207.5 -85t84.5 -208t-84.5 -208t-207.5 -85t-208 85t-85 208zM264 1165q0 -59 43.5 -105t102.5 -46t102 46t43 105q0 60 -43 106t-102 46t-102.5 -46.5t-43.5 -105.5z" />
<glyph unicode="&#xb1;" d="M98 0v246h1032v-246h-1032zM98 700v246h394v320h245v-320h393v-246h-393v-307h-245v307h-394z" />
<glyph unicode="&#xb2;" horiz-adv-x="688" d="M27 1487q0 129 93 216t222 87q130 0 223.5 -86.5t93.5 -214.5q0 -88 -48 -162t-130 -145l-164 -144h342v-176h-622v166l325 301q30 28 48.5 47.5t35.5 52t17 64.5q0 54 -33.5 87.5t-87.5 33.5q-119 0 -119 -164h-194q-2 12 -2 37z" />
<glyph unicode="&#xb3;" horiz-adv-x="688" d="M16 1147h197q5 -56 41.5 -91.5t91.5 -35.5q56 0 92.5 37t36.5 92q0 37 -12 63t-29.5 40t-46.5 22t-54 10t-61 2v176q75 0 100 13q35 19 36 67q0 72 -70 72q-30 0 -43.5 -21t-13.5 -53h-197q6 110 77.5 180t180.5 70q105 0 183.5 -73t78.5 -177q0 -98 -69 -156 q66 -30 101.5 -93.5t35.5 -139.5q0 -134 -98 -220.5t-234 -86.5q-134 0 -226 85t-98 218z" />
<glyph unicode="&#xb4;" horiz-adv-x="860" d="M182 1405l455 276l117 -208l-463 -256z" />
<glyph unicode="&#xb5;" horiz-adv-x="1290" d="M147 -369v1506h273v-537q0 -193 45 -276q57 -111 168 -111q61 0 106 26t69.5 64.5t39 97t18.5 108t4 112.5v516h273v-1137h-258v98h-6q-78 -135 -246 -135q-138 0 -213 86v-418h-273z" />
<glyph unicode="&#xb6;" d="M-14 1114q0 402 520 402h737v-211h-162v-1516h-231v1516h-199v-1516h-231v938q-193 0 -313.5 98t-120.5 289z" />
<glyph unicode="&#xb7;" horiz-adv-x="573" d="M150 383v272h272v-272h-272z" />
<glyph unicode="&#xb8;" horiz-adv-x="696" d="M201 -336h108q6 -34 33.5 -55t63.5 -21q42 0 68 28.5t26 70.5q0 41 -28.5 71.5t-68.5 30.5q-63 0 -88 -45l-100 39l100 229l103 -14l-49 -111q32 4 51 4q86 0 138 -58.5t52 -145.5q0 -92 -56.5 -146.5t-147.5 -54.5q-75 0 -140 52.5t-65 125.5z" />
<glyph unicode="&#xb9;" horiz-adv-x="507" d="M51 1595v177h309v-910h-196v733h-113z" />
<glyph unicode="&#xba;" horiz-adv-x="737" d="M47 1221q0 134 94.5 229.5t229.5 95.5q134 0 227.5 -94.5t93.5 -228.5q0 -137 -92 -231.5t-229 -94.5q-132 0 -228 96t-96 228zM231 1221q0 -60 40 -105t100 -45q59 0 98 44t39 104t-39 106.5t-98 46.5q-61 0 -100.5 -44.5t-39.5 -106.5z" />
<glyph unicode="&#xbb;" horiz-adv-x="942" d="M125 221v252l139 119l-139 117v252l287 -265v-207zM532 221v252l140 119l-140 117v252l287 -265v-207z" />
<glyph unicode="&#xbc;" horiz-adv-x="1445" d="M51 1339v177h309v-910h-196v733h-113zM225 0l627 1516h203l-629 -1516h-201zM680 133v143l434 633h156v-608h100v-168h-100v-133h-185v133h-405zM883 301h202v326h-4z" />
<glyph unicode="&#xbd;" horiz-adv-x="1548" d="M51 1339v177h309v-910h-196v733h-113zM225 0l627 1516h203l-629 -1516h-201zM850 625q0 129 93 216t222 87q130 0 224 -86.5t94 -214.5q0 -88 -48.5 -162.5t-129.5 -145.5l-164 -143h342v-176h-623v166l326 301q30 27 48 47.5t35 52.5t17 64q0 54 -33.5 87.5t-87.5 33.5 q-118 0 -118 -164h-195q-2 12 -2 37z" />
<glyph unicode="&#xbe;" horiz-adv-x="1720" d="M37 891h196q5 -56 42 -91.5t92 -35.5t92 37t37 92q0 37 -12 63t-29.5 40t-46.5 22t-54 10t-61 2v176q74 0 99 13q36 18 36 67q0 72 -70 72q-30 0 -43.5 -21t-13.5 -53h-197q6 110 77.5 180t180.5 70q105 0 184 -73t79 -177q0 -97 -70 -156q66 -30 101.5 -93.5 t35.5 -139.5q0 -134 -98 -220.5t-234 -86.5q-134 0 -225.5 85t-97.5 218zM500 0l626 1516h203l-629 -1516h-200zM954 133v143l435 633h155v-608h101v-168h-101v-133h-184v133h-406zM1157 301h203v326h-4z" />
<glyph unicode="&#xbf;" horiz-adv-x="1146" d="M139 57q0 78 30 147.5t70 116.5t107 109q38 36 57.5 57t39 51.5t27 64.5t7.5 81v70h273v-60q0 -85 -18.5 -155.5t-48.5 -117.5t-66 -86.5t-72 -70.5t-66 -60.5t-48.5 -66.5t-18.5 -80q0 -89 51.5 -141.5t140.5 -52.5q96 0 137 50t54 150h272q-13 -159 -86 -273.5 t-215 -166.5q-84 -33 -170 -33q-199 0 -328 133.5t-129 333.5zM477 864v273h273v-273h-273z" />
<glyph unicode="&#xc0;" horiz-adv-x="1515" d="M14 0l631 1516h219l635 -1516h-309l-162 391h-543l-161 -391h-310zM430 1882l117 209l454 -276l-108 -189zM580 655h348l-172 465h-4z" />
<glyph unicode="&#xc1;" horiz-adv-x="1515" d="M14 0l631 1516h219l635 -1516h-309l-162 391h-543l-161 -391h-310zM510 1815l455 276l116 -209l-463 -256zM580 655h348l-172 465h-4z" />
<glyph unicode="&#xc2;" horiz-adv-x="1515" d="M14 0l631 1516h219l635 -1516h-309l-162 391h-543l-161 -391h-310zM350 1651l303 282h215l299 -282h-297l-108 131l-115 -131h-297zM580 655h348l-172 465h-4z" />
<glyph unicode="&#xc3;" horiz-adv-x="1515" d="M14 0l631 1516h219l635 -1516h-309l-162 391h-543l-161 -391h-310zM356 1831q117 88 238 88q52 0 151 -29.5t150 -29.5q85 0 156 47l110 -160q-60 -48 -113.5 -72t-119.5 -24q-51 0 -148.5 27.5t-148.5 27.5q-84 0 -164 -41zM580 655h348l-172 465h-4z" />
<glyph unicode="&#xc4;" horiz-adv-x="1515" d="M14 0l631 1516h219l635 -1516h-309l-162 391h-543l-161 -391h-310zM406 1651v272h274v-272h-274zM580 655h348l-172 465h-4zM838 1651v272h272v-272h-272z" />
<glyph unicode="&#xc5;" horiz-adv-x="1515" d="M14 0l631 1516h219l635 -1516h-309l-162 391h-543l-161 -391h-310zM539 1763q0 91 63.5 156.5t155.5 65.5t156.5 -65t64.5 -157q0 -91 -65 -155t-156 -64q-89 0 -154 65t-65 154zM580 655h348l-172 465h-4zM676 1763q0 -34 24 -58t58 -24t59 23.5t25 58.5t-24.5 59.5 t-59.5 24.5t-58.5 -25t-23.5 -59z" />
<glyph unicode="&#xc6;" horiz-adv-x="1843" d="M-10 0l1001 1516h697v-263h-451v-370h428v-262h-428v-359h451v-262h-732v391h-401l-236 -391h-329zM721 653h235v400h-4z" />
<glyph unicode="&#xc7;" horiz-adv-x="1597" d="M70 764q0 158 63 302.5t168 249.5t250 167.5t303 62.5q233 0 427.5 -125t287.5 -338h-320q-170 201 -405 201q-135 0 -250 -75t-179.5 -195.5t-64.5 -253.5q0 -135 66.5 -256.5t183.5 -197t254 -75.5q116 0 205.5 48t175.5 143h326q-87 -204 -282.5 -328.5t-418.5 -124.5 h-24l-37 -82q32 4 51 4q86 0 138 -58.5t52 -145.5q0 -92 -56.5 -146.5t-147.5 -54.5q-75 0 -140 52.5t-65 125.5h108q6 -34 33.5 -55t63.5 -21q42 0 68 28.5t26 70.5q0 41 -28 71.5t-68 30.5q-64 0 -89 -45l-100 39l86 197q-185 31 -336.5 143t-238 281t-86.5 360z" />
<glyph unicode="&#xc8;" horiz-adv-x="1064" d="M125 0v1516h815v-263h-534v-370h512v-262h-512v-359h534v-262h-815zM205 1882l117 209l454 -276l-108 -189z" />
<glyph unicode="&#xc9;" horiz-adv-x="1064" d="M125 0v1516h815v-263h-534v-370h512v-262h-512v-359h534v-262h-815zM285 1815l454 276l117 -209l-463 -256z" />
<glyph unicode="&#xca;" horiz-adv-x="1064" d="M125 0v1516h815v-263h-534v-370h512v-262h-512v-359h534v-262h-815zM125 1651l303 282h215l299 -282h-297l-108 131l-115 -131h-297z" />
<glyph unicode="&#xcb;" horiz-adv-x="1064" d="M125 0v1516h815v-263h-534v-370h512v-262h-512v-359h534v-262h-815zM180 1651v272h275v-272h-275zM612 1651v272h273v-272h-273z" />
<glyph unicode="&#xcc;" horiz-adv-x="573" d="M-92 1882l117 209l454 -276l-108 -189zM147 0v1516h281v-1516h-281z" />
<glyph unicode="&#xcd;" horiz-adv-x="573" d="M90 1815l455 276l117 -209l-463 -256zM147 0v1516h281v-1516h-281z" />
<glyph unicode="&#xce;" horiz-adv-x="573" d="M-121 1651l303 282h215l299 -282h-297l-108 131l-115 -131h-297zM147 0v1516h281v-1516h-281z" />
<glyph unicode="&#xcf;" horiz-adv-x="573" d="M-66 1651v272h275v-272h-275zM147 0v1516h281v-1516h-281zM367 1651v272h272v-272h-272z" />
<glyph unicode="&#xd0;" horiz-adv-x="1503" d="M51 637v262h148v617h344q419 0 622 -177q119 -105 184.5 -262.5t65.5 -322.5q0 -200 -96.5 -381.5t-265.5 -274.5q-178 -98 -504 -98h-350v637h-148zM479 262h60q120 0 202.5 14t165.5 60q107 60 167.5 175t60.5 243q0 105 -42.5 204.5t-119.5 167.5q-41 36 -90 61 t-91.5 38t-104 19.5t-100.5 7.5t-108 1v-354h281v-262h-281v-375z" />
<glyph unicode="&#xd1;" horiz-adv-x="1515" d="M143 0v1516h320l627 -1102h4v1102h280v-1516h-313l-633 1102h-4v-1102h-281zM356 1831q117 88 238 88q52 0 151 -29.5t150 -29.5q85 0 156 47l110 -160q-60 -48 -113.5 -72t-119.5 -24q-51 0 -148.5 27.5t-148.5 27.5q-84 0 -164 -41z" />
<glyph unicode="&#xd2;" horiz-adv-x="1720" d="M68 754q0 162 62.5 309t168.5 252.5t253 168t308 62.5t308 -62.5t253 -168t169 -252.5t63 -309q0 -160 -63.5 -306t-170 -250.5t-253 -166.5t-306.5 -62q-214 0 -396 104.5t-289 285.5t-107 395zM348 756q0 -140 67.5 -260.5t186 -192.5t258.5 -72t258.5 72t186 192.5 t67.5 260.5q0 141 -66.5 262t-185 193.5t-260.5 72.5t-260.5 -72.5t-185 -193.5t-66.5 -262zM532 1882l117 209l455 -276l-109 -189z" />
<glyph unicode="&#xd3;" horiz-adv-x="1720" d="M68 754q0 162 62.5 309t168.5 252.5t253 168t308 62.5t308 -62.5t253 -168t169 -252.5t63 -309q0 -160 -63.5 -306t-170 -250.5t-253 -166.5t-306.5 -62q-214 0 -396 104.5t-289 285.5t-107 395zM348 756q0 -140 67.5 -260.5t186 -192.5t258.5 -72t258.5 72t186 192.5 t67.5 260.5q0 141 -66.5 262t-185 193.5t-260.5 72.5t-260.5 -72.5t-185 -193.5t-66.5 -262zM612 1815l455 276l117 -209l-463 -256z" />
<glyph unicode="&#xd4;" horiz-adv-x="1720" d="M68 754q0 162 62.5 309t168.5 252.5t253 168t308 62.5t308 -62.5t253 -168t169 -252.5t63 -309q0 -160 -63.5 -306t-170 -250.5t-253 -166.5t-306.5 -62q-214 0 -396 104.5t-289 285.5t-107 395zM348 756q0 -140 67.5 -260.5t186 -192.5t258.5 -72t258.5 72t186 192.5 t67.5 260.5q0 141 -66.5 262t-185 193.5t-260.5 72.5t-260.5 -72.5t-185 -193.5t-66.5 -262zM453 1651l303 282h215l299 -282h-297l-109 131l-114 -131h-297z" />
<glyph unicode="&#xd5;" horiz-adv-x="1720" d="M68 754q0 162 62.5 309t168.5 252.5t253 168t308 62.5t308 -62.5t253 -168t169 -252.5t63 -309q0 -160 -63.5 -306t-170 -250.5t-253 -166.5t-306.5 -62q-214 0 -396 104.5t-289 285.5t-107 395zM348 756q0 -140 67.5 -260.5t186 -192.5t258.5 -72t258.5 72t186 192.5 t67.5 260.5q0 141 -66.5 262t-185 193.5t-260.5 72.5t-260.5 -72.5t-185 -193.5t-66.5 -262zM459 1831q117 88 237 88q52 0 151 -29.5t150 -29.5q85 0 156 47l111 -160q-60 -48 -114 -72t-120 -24q-51 0 -148.5 27.5t-148.5 27.5q-84 0 -164 -41z" />
<glyph unicode="&#xd6;" horiz-adv-x="1720" d="M68 754q0 162 62.5 309t168.5 252.5t253 168t308 62.5t308 -62.5t253 -168t169 -252.5t63 -309q0 -160 -63.5 -306t-170 -250.5t-253 -166.5t-306.5 -62q-214 0 -396 104.5t-289 285.5t-107 395zM348 756q0 -140 67.5 -260.5t186 -192.5t258.5 -72t258.5 72t186 192.5 t67.5 260.5q0 141 -66.5 262t-185 193.5t-260.5 72.5t-260.5 -72.5t-185 -193.5t-66.5 -262zM508 1651v272h274v-272h-274zM940 1651v272h272v-272h-272z" />
<glyph unicode="&#xd7;" d="M121 193l325 325l-325 326l168 168l325 -326l326 326l168 -168l-328 -326l328 -325l-168 -168l-326 327l-325 -327z" />
<glyph unicode="&#xd8;" horiz-adv-x="1720" d="M68 754q0 162 62.5 309t168.5 252.5t253 168t308 62.5q180 0 332 -73v2l129 192l223 -154l-131 -192q116 -109 178 -257t62 -310q0 -160 -63.5 -306t-170 -250.5t-253 -166.5t-306.5 -62q-168 0 -319 68l-125 -182l-226 153l123 180q-118 110 -181.5 257t-63.5 309z M348 756q0 -188 123 -336l567 831q-82 33 -178 33q-142 0 -260.5 -72.5t-185 -193.5t-66.5 -262zM692 260q85 -29 168 -29q140 0 258.5 72t186 192.5t67.5 260.5q0 185 -115 334z" />
<glyph unicode="&#xd9;" horiz-adv-x="1310" d="M113 553v963h280v-963q0 -322 262 -322q263 0 263 322v963h280v-963q0 -231 -88 -358q-75 -107 -197.5 -166.5t-255.5 -59.5q-130 0 -252.5 57.5t-197.5 159.5q-94 124 -94 367zM256 1882l117 209l454 -276l-108 -189z" />
<glyph unicode="&#xda;" horiz-adv-x="1310" d="M113 553v963h280v-963q0 -322 262 -322q263 0 263 322v963h280v-963q0 -231 -88 -358q-75 -107 -197.5 -166.5t-255.5 -59.5q-130 0 -252.5 57.5t-197.5 159.5q-94 124 -94 367zM479 1815l455 276l117 -209l-463 -256z" />
<glyph unicode="&#xdb;" horiz-adv-x="1310" d="M113 553v963h280v-963q0 -322 262 -322q263 0 263 322v963h280v-963q0 -231 -88 -358q-75 -107 -197.5 -166.5t-255.5 -59.5q-130 0 -252.5 57.5t-197.5 159.5q-94 124 -94 367zM248 1651l303 282h215l299 -282h-297l-109 131l-114 -131h-297z" />
<glyph unicode="&#xdc;" horiz-adv-x="1310" d="M113 553v963h280v-963q0 -322 262 -322q263 0 263 322v963h280v-963q0 -231 -88 -358q-75 -107 -197.5 -166.5t-255.5 -59.5q-130 0 -252.5 57.5t-197.5 159.5q-94 124 -94 367zM303 1651v272h275v-272h-275zM735 1651v272h273v-272h-273z" />
<glyph unicode="&#xdd;" horiz-adv-x="1269" d="M-4 1516h307l330 -697l332 697h309l-500 -957v-559h-280v559zM459 1815l454 276l117 -209l-463 -256z" />
<glyph unicode="&#xde;" horiz-adv-x="1146" d="M147 0v1516h281v-287h119q150 0 243.5 -21.5t182.5 -99.5q143 -124 143 -348t-143 -348q-89 -78 -182.5 -99.5t-243.5 -21.5h-119v-291h-281zM428 553h90q50 0 89.5 3.5t84.5 16t74.5 34t49.5 60.5t20 93q0 53 -19 92t-47 60.5t-71.5 34.5t-82 16.5t-88.5 3.5h-100v-414z " />
<glyph unicode="&#xdf;" d="M104 0v999q0 86 15.5 162t48.5 145t90.5 122.5t136.5 84.5q87 33 170 33q183 0 312 -123.5t129 -306.5q0 -86 -34 -162t-102 -116q155 -37 241.5 -140.5t86.5 -259.5q0 -213 -122.5 -344t-334.5 -131q-131 0 -226 41.5t-157 145.5h-4v-150h-250zM377 387h176 q11 -71 64.5 -122.5t123.5 -51.5q80 0 132.5 58t52.5 139q0 54 -17 95t-49.5 66t-68 41t-86 23t-88.5 9.5t-89 2.5v242q96 0 150.5 59t54.5 156q0 83 -46 137.5t-128 54.5q-182 0 -182 -266v-643z" />
<glyph unicode="&#xe0;" horiz-adv-x="1351" d="M55 575q0 121 42.5 231t116 192t181 130t230.5 48q187 0 336 -136q28 -28 40 -47h5v144h249v-1137h-249v141q-67 -78 -179.5 -128t-218.5 -50q-125 0 -230 50t-175 134.5t-109 195t-39 232.5zM328 563q0 -145 97 -247.5t241 -102.5q148 0 239.5 103.5t91.5 254.5 q0 150 -92 252.5t-239 102.5q-149 0 -243.5 -106.5t-94.5 -256.5zM348 1534l117 209l455 -277l-109 -188z" />
<glyph unicode="&#xe1;" horiz-adv-x="1351" d="M55 575q0 121 42.5 231t116 192t181 130t230.5 48q187 0 336 -136q28 -28 40 -47h5v144h249v-1137h-249v141q-67 -78 -179.5 -128t-218.5 -50q-125 0 -230 50t-175 134.5t-109 195t-39 232.5zM328 563q0 -145 97 -247.5t241 -102.5q148 0 239.5 103.5t91.5 254.5 q0 150 -92 252.5t-239 102.5q-149 0 -243.5 -106.5t-94.5 -256.5zM428 1466l455 277l116 -209l-462 -256z" />
<glyph unicode="&#xe2;" horiz-adv-x="1351" d="M55 575q0 121 42.5 231t116 192t181 130t230.5 48q187 0 336 -136q28 -28 40 -47h5v144h249v-1137h-249v141q-67 -78 -179.5 -128t-218.5 -50q-125 0 -230 50t-175 134.5t-109 195t-39 232.5zM268 1303l303 282h215l299 -282h-297l-108 131l-115 -131h-297zM328 563 q0 -145 97 -247.5t241 -102.5q148 0 239.5 103.5t91.5 254.5q0 150 -92 252.5t-239 102.5q-149 0 -243.5 -106.5t-94.5 -256.5z" />
<glyph unicode="&#xe3;" horiz-adv-x="1351" d="M55 575q0 121 42.5 231t116 192t181 130t230.5 48q187 0 336 -136q28 -28 40 -47h5v144h249v-1137h-249v141q-67 -78 -179.5 -128t-218.5 -50q-125 0 -230 50t-175 134.5t-109 195t-39 232.5zM274 1483q117 88 238 88q52 0 151 -30t150 -30q83 0 156 48l110 -160 q-60 -48 -113.5 -72t-119.5 -24q-51 0 -148.5 27.5t-148.5 27.5q-84 0 -164 -41zM328 563q0 -145 97 -247.5t241 -102.5q148 0 239.5 103.5t91.5 254.5q0 150 -92 252.5t-239 102.5q-149 0 -243.5 -106.5t-94.5 -256.5z" />
<glyph unicode="&#xe4;" horiz-adv-x="1351" d="M55 575q0 121 42.5 231t116 192t181 130t230.5 48q187 0 336 -136q28 -28 40 -47h5v144h249v-1137h-249v141q-67 -78 -179.5 -128t-218.5 -50q-125 0 -230 50t-175 134.5t-109 195t-39 232.5zM324 1303v272h274v-272h-274zM328 563q0 -145 97 -247.5t241 -102.5 q148 0 239.5 103.5t91.5 254.5q0 150 -92 252.5t-239 102.5q-149 0 -243.5 -106.5t-94.5 -256.5zM756 1303v272h272v-272h-272z" />
<glyph unicode="&#xe5;" horiz-adv-x="1351" d="M55 575q0 121 42.5 231t116 192t181 130t230.5 48q187 0 336 -136q28 -28 40 -47h5v144h249v-1137h-249v141q-67 -78 -179.5 -128t-218.5 -50q-125 0 -230 50t-175 134.5t-109 195t-39 232.5zM328 563q0 -145 97 -247.5t241 -102.5q148 0 239.5 103.5t91.5 254.5 q0 150 -92 252.5t-239 102.5q-149 0 -243.5 -106.5t-94.5 -256.5zM457 1487q0 91 63.5 156t155.5 65t156.5 -64.5t64.5 -156.5q0 -91 -65 -155t-156 -64q-89 0 -154 65t-65 154zM594 1487q0 -34 24 -58t58 -24t59 23.5t25 58.5t-24.5 59.5t-59.5 24.5t-58.5 -25t-23.5 -59z " />
<glyph unicode="&#xe6;" horiz-adv-x="2211" d="M59 567q0 160 77 300t212.5 224.5t296.5 84.5q113 0 190.5 -32t157.5 -110v103h250v-103q72 76 155 109t193 33t214 -51.5t178 -134.5t118.5 -190.5t44.5 -215.5v-37q0 -57 -8 -101h-885q25 -99 113.5 -166t192.5 -67q86 0 162 36.5t108 108.5h287q-21 -67 -76 -143 q-85 -114 -206.5 -183t-254.5 -69q-217 0 -332 152h-4v-115h-250v115h-4q-108 -152 -348 -152q-119 0 -228 50t-186 132.5t-122.5 193t-45.5 228.5zM332 565q0 -139 94 -245.5t231 -106.5q93 0 169.5 50.5t117.5 132t41 173.5q0 142 -93 249.5t-233 107.5q-143 0 -235 -108 t-92 -253zM1245 666h629q-17 118 -104.5 189t-208.5 71q-117 0 -203 -72t-113 -188z" />
<glyph unicode="&#xe7;" horiz-adv-x="1310" d="M76 573q0 163 80.5 302t219.5 220t302 81q199 0 353.5 -113t217.5 -303h-307q-46 83 -108.5 124.5t-155.5 41.5q-148 0 -239 -103t-91 -254q0 -150 96 -253t246 -103q154 0 252 158h307q-69 -193 -220.5 -300.5t-354.5 -107.5l-35 -76q32 4 51 4q86 0 138.5 -58.5 t52.5 -145.5q0 -91 -56.5 -146t-148.5 -55q-76 0 -140 51.5t-65 126.5h109q6 -35 33 -55.5t63 -20.5q42 0 68 28.5t26 70.5q0 41 -28 71.5t-68 30.5q-63 0 -88 -45l-101 39l84 192q-217 41 -355 209t-138 389z" />
<glyph unicode="&#xe8;" horiz-adv-x="1310" d="M63 565q0 168 77.5 308t215 221.5t306.5 81.5q163 0 298 -78.5t212 -214.5t77 -299q0 -66 -16 -138h-883q6 -33 37 -81q46 -71 119.5 -111.5t157.5 -40.5q182 0 262 145h286q-55 -173 -210.5 -284t-337.5 -111q-125 0 -237 47t-191.5 127t-126 191.5t-46.5 236.5z M328 1534l116 209l455 -277l-108 -188zM342 666h629q-20 123 -101 191.5t-206 68.5q-124 0 -208.5 -69t-113.5 -191z" />
<glyph unicode="&#xe9;" horiz-adv-x="1310" d="M63 565q0 168 77.5 308t215 221.5t306.5 81.5q163 0 298 -78.5t212 -214.5t77 -299q0 -66 -16 -138h-883q6 -33 37 -81q46 -71 119.5 -111.5t157.5 -40.5q182 0 262 145h286q-55 -173 -210.5 -284t-337.5 -111q-125 0 -237 47t-191.5 127t-126 191.5t-46.5 236.5z M342 666h629q-20 123 -101 191.5t-206 68.5q-124 0 -208.5 -69t-113.5 -191zM408 1466l454 277l117 -209l-463 -256z" />
<glyph unicode="&#xea;" horiz-adv-x="1310" d="M63 565q0 168 77.5 308t215 221.5t306.5 81.5q163 0 298 -78.5t212 -214.5t77 -299q0 -66 -16 -138h-883q6 -33 37 -81q46 -71 119.5 -111.5t157.5 -40.5q182 0 262 145h286q-55 -173 -210.5 -284t-337.5 -111q-125 0 -237 47t-191.5 127t-126 191.5t-46.5 236.5z M248 1303l303 282h215l299 -282h-297l-109 131l-114 -131h-297zM342 666h629q-20 123 -101 191.5t-206 68.5q-124 0 -208.5 -69t-113.5 -191z" />
<glyph unicode="&#xeb;" horiz-adv-x="1310" d="M63 565q0 168 77.5 308t215 221.5t306.5 81.5q163 0 298 -78.5t212 -214.5t77 -299q0 -66 -16 -138h-883q6 -33 37 -81q46 -71 119.5 -111.5t157.5 -40.5q182 0 262 145h286q-55 -173 -210.5 -284t-337.5 -111q-125 0 -237 47t-191.5 127t-126 191.5t-46.5 236.5z M303 1303v272h275v-272h-275zM342 666h629q-20 123 -101 191.5t-206 68.5q-124 0 -208.5 -69t-113.5 -191zM735 1303v272h273v-272h-273z" />
<glyph unicode="&#xec;" horiz-adv-x="491" d="M-133 1534l117 209l454 -277l-108 -188zM109 0v1137h272v-1137h-272z" />
<glyph unicode="&#xed;" horiz-adv-x="491" d="M49 1466l455 277l117 -209l-463 -256zM109 0v1137h272v-1137h-272z" />
<glyph unicode="&#xee;" horiz-adv-x="491" d="M-162 1303l303 282h215l299 -282h-297l-108 131l-115 -131h-297zM109 0v1137h272v-1137h-272z" />
<glyph unicode="&#xef;" horiz-adv-x="491" d="M-106 1303v272h274v-272h-274zM109 0v1137h272v-1137h-272zM326 1303v272h272v-272h-272z" />
<glyph unicode="&#xf0;" horiz-adv-x="1310" d="M55 567q0 124 48 236.5t129 193.5t193.5 129t236.5 48q59 0 106 -23l4 4q-65 62 -135 109l-309 -93l-176 115l294 90q-103 49 -217 84l308 84q77 -21 186 -82l268 82l176 -123l-270 -80q173 -146 269 -333t96 -404q0 -176 -73 -321.5t-211 -232.5t-316 -87 q-163 0 -303 81t-222 220.5t-82 302.5zM328 567q0 -146 94.5 -250t239.5 -104q141 0 235 104.5t94 247.5q0 140 -94.5 250.5t-232.5 110.5q-143 0 -239.5 -108t-96.5 -251z" />
<glyph unicode="&#xf1;" d="M111 0v1137h251v-99q71 70 144.5 104t167.5 34t188 -43t154 -115q104 -125 104 -387v-631h-272v561q0 54 -4 99t-18.5 97t-38.5 87t-67.5 58.5t-101.5 23.5q-53 0 -104 -28t-82 -73q-23 -33 -34.5 -90.5t-13 -95t-1.5 -98.5v-541h-272zM213 1483q117 88 238 88 q52 0 151 -30t150 -30q82 0 155 48l111 -160q-60 -48 -114 -72t-120 -24q-51 0 -148.5 27.5t-148.5 27.5q-83 0 -163 -41z" />
<glyph unicode="&#xf2;" horiz-adv-x="1310" d="M51 567q0 165 81 305t220.5 222t304.5 82q124 0 235.5 -48t192 -129t128 -193t47.5 -235q0 -170 -78.5 -309t-217 -219t-307.5 -80q-122 0 -234 48t-193.5 129t-130 193t-48.5 234zM324 567q0 -146 94 -250t239 -104q142 0 236 104.5t94 247.5q0 142 -95 251.5 t-235 109.5q-141 0 -237 -108.5t-96 -250.5zM328 1534l116 209l455 -277l-108 -188z" />
<glyph unicode="&#xf3;" horiz-adv-x="1310" d="M51 567q0 165 81 305t220.5 222t304.5 82q124 0 235.5 -48t192 -129t128 -193t47.5 -235q0 -170 -78.5 -309t-217 -219t-307.5 -80q-122 0 -234 48t-193.5 129t-130 193t-48.5 234zM324 567q0 -146 94 -250t239 -104q142 0 236 104.5t94 247.5q0 142 -95 251.5 t-235 109.5q-141 0 -237 -108.5t-96 -250.5zM408 1466l454 277l117 -209l-463 -256z" />
<glyph unicode="&#xf4;" horiz-adv-x="1310" d="M51 567q0 165 81 305t220.5 222t304.5 82q124 0 235.5 -48t192 -129t128 -193t47.5 -235q0 -170 -78.5 -309t-217 -219t-307.5 -80q-122 0 -234 48t-193.5 129t-130 193t-48.5 234zM248 1303l303 282h215l299 -282h-297l-109 131l-114 -131h-297zM324 567q0 -146 94 -250 t239 -104q142 0 236 104.5t94 247.5q0 142 -95 251.5t-235 109.5q-141 0 -237 -108.5t-96 -250.5z" />
<glyph unicode="&#xf5;" horiz-adv-x="1310" d="M51 567q0 165 81 305t220.5 222t304.5 82q124 0 235.5 -48t192 -129t128 -193t47.5 -235q0 -170 -78.5 -309t-217 -219t-307.5 -80q-122 0 -234 48t-193.5 129t-130 193t-48.5 234zM254 1483q117 88 238 88q52 0 151 -30t150 -30q82 0 155 48l111 -160q-60 -48 -114 -72 t-120 -24q-51 0 -148.5 27.5t-148.5 27.5q-83 0 -163 -41zM324 567q0 -146 94 -250t239 -104q142 0 236 104.5t94 247.5q0 142 -95 251.5t-235 109.5q-141 0 -237 -108.5t-96 -250.5z" />
<glyph unicode="&#xf6;" horiz-adv-x="1310" d="M51 567q0 165 81 305t220.5 222t304.5 82q124 0 235.5 -48t192 -129t128 -193t47.5 -235q0 -170 -78.5 -309t-217 -219t-307.5 -80q-122 0 -234 48t-193.5 129t-130 193t-48.5 234zM303 1303v272h275v-272h-275zM324 567q0 -146 94 -250t239 -104q142 0 236 104.5 t94 247.5q0 142 -95 251.5t-235 109.5q-141 0 -237 -108.5t-96 -250.5zM735 1303v272h273v-272h-273z" />
<glyph unicode="&#xf7;" d="M98 395v246h1032v-246h-1032zM492 -41v246h245v-246h-245zM492 831v246h245v-246h-245z" />
<glyph unicode="&#xf8;" horiz-adv-x="1351" d="M72 567q0 165 81 305t220.5 222t304.5 82q122 0 237 -50q2 2 39 57t41 62l203 -141l-82 -119q164 -175 164 -414q0 -170 -78 -309t-216.5 -219t-307.5 -80q-115 0 -227 45l-78 -110l-203 139l76 110q-83 83 -128.5 192.5t-45.5 227.5zM344 567q0 -108 55 -196l369 540 q-44 15 -90 15q-141 0 -237.5 -108.5t-96.5 -250.5zM596 223q45 -10 82 -10q142 0 236 104.5t94 247.5q0 105 -52 187z" />
<glyph unicode="&#xf9;" d="M102 535v602h273v-580q0 -55 5 -99.5t20 -92t40 -79.5t69 -52.5t103 -20.5q67 0 114.5 31t71.5 84t34 108.5t10 118.5v582h272v-1137h-250v115h-4q-58 -79 -127 -115.5t-166 -36.5q-115 0 -218 46t-163 134q-52 76 -68 170.5t-16 221.5zM215 1534l117 209l454 -277 l-108 -188z" />
<glyph unicode="&#xfa;" d="M102 535v602h273v-580q0 -55 5 -99.5t20 -92t40 -79.5t69 -52.5t103 -20.5q67 0 114.5 31t71.5 84t34 108.5t10 118.5v582h272v-1137h-250v115h-4q-58 -79 -127 -115.5t-166 -36.5q-115 0 -218 46t-163 134q-52 76 -68 170.5t-16 221.5zM438 1466l455 277l117 -209 l-463 -256z" />
<glyph unicode="&#xfb;" d="M102 535v602h273v-580q0 -55 5 -99.5t20 -92t40 -79.5t69 -52.5t103 -20.5q67 0 114.5 31t71.5 84t34 108.5t10 118.5v582h272v-1137h-250v115h-4q-58 -79 -127 -115.5t-166 -36.5q-115 0 -218 46t-163 134q-52 76 -68 170.5t-16 221.5zM207 1303l303 282h215l299 -282 h-297l-109 131l-114 -131h-297z" />
<glyph unicode="&#xfc;" d="M102 535v602h273v-580q0 -55 5 -99.5t20 -92t40 -79.5t69 -52.5t103 -20.5q67 0 114.5 31t71.5 84t34 108.5t10 118.5v582h272v-1137h-250v115h-4q-58 -79 -127 -115.5t-166 -36.5q-115 0 -218 46t-163 134q-52 76 -68 170.5t-16 221.5zM262 1303v272h275v-272h-275z M694 1303v272h273v-272h-273z" />
<glyph unicode="&#xfd;" horiz-adv-x="1187" d="M16 1137h312l258 -729l274 729h309l-653 -1516h-293l209 485zM418 1466l454 277l117 -209l-463 -256z" />
<glyph unicode="&#xfe;" horiz-adv-x="1351" d="M96 -379v1895h273v-504h4q132 164 346 164q122 0 229 -49t181 -131t116.5 -192t42.5 -231q0 -161 -71.5 -300t-203.5 -224.5t-294 -85.5q-106 0 -189 35.5t-161 110.5v-488h-273zM352 569q0 -108 51.5 -194t147.5 -129q68 -33 133 -33q141 0 236.5 107t95.5 249 q0 141 -94 249t-234 108q-145 0 -240.5 -105.5t-95.5 -251.5z" />
<glyph unicode="&#xff;" horiz-adv-x="1187" d="M16 1137h312l258 -729l274 729h309l-653 -1516h-293l209 485zM242 1303v272h274v-272h-274zM674 1303v272h272v-272h-272z" />
<glyph unicode="&#x152;" horiz-adv-x="2170" d="M76 756q0 238 118 431t332 290q147 69 310 69q137 0 274 -50.5t221 -143.5v164h731v-263h-450v-370h426v-262h-426v-359h450v-262h-731v162q-84 -91 -222 -142t-273 -51q-161 0 -310 70q-212 97 -331 289.5t-119 427.5zM356 729q0 -90 37 -178q59 -147 181.5 -233.5 t277.5 -86.5q137 0 250 72.5t176 191t63 253.5q0 138 -62.5 260.5t-177.5 199t-255 76.5q-112 0 -205.5 -46.5t-155 -123.5t-95.5 -177t-34 -208z" />
<glyph unicode="&#x153;" horiz-adv-x="2211" d="M61 567q0 163 79 303t217 223t302 83q282 0 453 -234q88 118 195.5 176t251.5 58q160 0 296 -78t215.5 -213t79.5 -295q0 -74 -12 -144h-889q31 -103 118 -168t194 -65q86 0 160.5 37t107.5 108h282q-57 -173 -212 -284t-338 -111q-136 0 -255.5 62.5t-193.5 175.5 q-158 -238 -457 -238q-123 0 -233.5 48.5t-189 129.5t-125 192.5t-46.5 233.5zM334 578q0 -70 24.5 -136t67 -117t105.5 -81.5t135 -30.5q141 0 235 106t94 248t-95 250.5t-236 108.5q-137 0 -233.5 -104.5t-96.5 -243.5zM1245 666h629q-28 117 -111.5 188.5t-201.5 71.5 q-121 0 -202 -70t-114 -190z" />
<glyph unicode="&#x178;" horiz-adv-x="1269" d="M-4 1516h307l330 -697l332 697h309l-500 -957v-559h-280v559zM283 1651v272h274v-272h-274zM715 1651v272h272v-272h-272z" />
<glyph unicode="&#x2c6;" horiz-adv-x="1105" d="M145 1292l304 283h215l299 -283h-297l-109 131l-115 -131h-297z" />
<glyph unicode="&#x2dc;" horiz-adv-x="983" d="M90 1483q117 88 238 88q52 0 151 -30t150 -30q82 0 155 48l111 -160q-60 -48 -113.5 -72t-119.5 -24q-51 0 -148.5 27.5t-148.5 27.5q-84 0 -164 -41z" />
<glyph unicode="&#x2000;" horiz-adv-x="1045" />
<glyph unicode="&#x2001;" horiz-adv-x="2091" />
<glyph unicode="&#x2002;" horiz-adv-x="1045" />
<glyph unicode="&#x2003;" horiz-adv-x="2091" />
<glyph unicode="&#x2004;" horiz-adv-x="697" />
<glyph unicode="&#x2005;" horiz-adv-x="522" />
<glyph unicode="&#x2006;" horiz-adv-x="348" />
<glyph unicode="&#x2007;" horiz-adv-x="348" />
<glyph unicode="&#x2008;" horiz-adv-x="261" />
<glyph unicode="&#x2009;" horiz-adv-x="418" />
<glyph unicode="&#x200a;" horiz-adv-x="116" />
<glyph unicode="&#x2010;" horiz-adv-x="860" d="M145 471v242h570v-242h-570z" />
<glyph unicode="&#x2011;" horiz-adv-x="860" d="M145 471v242h570v-242h-570z" />
<glyph unicode="&#x2012;" horiz-adv-x="860" d="M145 471v242h570v-242h-570z" />
<glyph unicode="&#x2013;" horiz-adv-x="1024" d="M72 471v242h880v-242h-880z" />
<glyph unicode="&#x2014;" horiz-adv-x="2048" d="M72 471v242h1904v-242h-1904z" />
<glyph unicode="&#x2018;" horiz-adv-x="573" d="M147 954v289q0 126 73 199.5t198 73.5v-140q-59 -10 -89 -34.5t-30 -79.5q0 -23 2 -35h119v-273h-273z" />
<glyph unicode="&#x2019;" horiz-adv-x="573" d="M147 1243v273h273v-289q0 -126 -72.5 -199.5t-197.5 -73.5v138q73 15 95.5 44.5t22.5 106.5h-121z" />
<glyph unicode="&#x201a;" horiz-adv-x="573" d="M147 0v272h273v-286q0 -125 -73 -200t-197 -75v139q74 12 96 42.5t22 107.5h-121z" />
<glyph unicode="&#x201c;" horiz-adv-x="983" d="M143 954v289q0 126 73 199.5t198 73.5v-140q-59 -10 -89 -34.5t-30 -79.5q0 -6 1 -17.5t1 -17.5h119v-273h-273zM567 954v289q0 126 73 199.5t198 73.5v-140q-59 -10 -89 -34.5t-30 -79.5q0 -6 1 -17.5t1 -17.5h119v-273h-273z" />
<glyph unicode="&#x201d;" horiz-adv-x="983" d="M143 1243v273h273v-289q0 -126 -73 -199.5t-198 -73.5v138q74 15 96.5 45t22.5 106h-121zM567 1243v273h273v-289q0 -126 -73 -199.5t-198 -73.5v138q74 15 96.5 45t22.5 106h-121z" />
<glyph unicode="&#x201e;" horiz-adv-x="983" d="M143 0v272h273v-286q0 -126 -73.5 -200.5t-197.5 -74.5v139q74 12 96.5 42.5t22.5 107.5h-121zM567 0v272h273v-286q0 -126 -73.5 -200.5t-197.5 -74.5v139q74 12 96.5 42.5t22.5 107.5h-121z" />
<glyph unicode="&#x2022;" d="M303 772q0 131 92 224.5t223 93.5q129 0 219.5 -94.5t90.5 -223.5q0 -130 -91 -223.5t-221 -93.5t-221.5 93.5t-91.5 223.5z" />
<glyph unicode="&#x2026;" horiz-adv-x="2048" d="M205 0v272h272v-272h-272zM887 0v272h272v-272h-272zM1569 0v272h272v-272h-272z" />
<glyph unicode="&#x202f;" horiz-adv-x="418" />
<glyph unicode="&#x2039;" horiz-adv-x="491" d="M102 489v207l287 265v-252l-139 -117l139 -119v-252z" />
<glyph unicode="&#x203a;" horiz-adv-x="491" d="M102 221v252l140 119l-140 117v252l287 -265v-207z" />
<glyph unicode="&#x205f;" horiz-adv-x="522" />
<glyph unicode="&#x20ac;" horiz-adv-x="1146" d="M0 481l70 195h84v82v30h-154l70 195h98q35 259 129 381q138 180 365 180q193 0 315 -125q103 -111 125 -297h-256q-19 85 -53 117q-47 47 -131 47q-65 0 -107 -24t-70 -74q-32 -55 -49 -205h557l-69 -195h-498v-30v-82h457l-72 -195h-369q17 -115 43 -155q54 -97 181 -97 q93 0 141 54q28 31 47 114h254q-32 -211 -135 -311q-118 -115 -318 -115q-222 0 -352 156q-99 117 -133 354h-170z" />
<glyph unicode="&#x2122;" horiz-adv-x="2048" d="M18 1346v170h543v-170h-176v-740h-192v740h-175zM682 606v910h258l244 -660l241 660h256v-910h-192v627h-4l-223 -627h-160l-223 627h-5v-627h-192z" />
<glyph unicode="&#x25fc;" horiz-adv-x="1136" d="M0 0v1137h1137v-1137h-1137z" />
</font>
</defs>
</svg>
