<?xml version="1.0" standalone="no"?>
<!DOCTYPE svg PUBLIC "-//W3C//DTD SVG 1.1//EN" "http://www.w3.org/Graphics/SVG/1.1/DTD/svg11.dtd" >
<svg xmlns="http://www.w3.org/2000/svg" xmlns:xlink="http://www.w3.org/1999/xlink" version="1.1">
<metadata></metadata>
<defs>
<font id="syfyblack_italic" horiz-adv-x="1228" >
<font-face units-per-em="2048" ascent="1638" descent="-410" />
<missing-glyph horiz-adv-x="512" />
<glyph unicode="&#xfb01;" horiz-adv-x="1402" d="M-2 -418l199 1135q6 31 -27 31h-90l51 292h90q33 0 39 31l16 94q27 152 128.5 222.5t291.5 70.5h226l-52 -293h-184q-63 0 -72 -61l-6 -33q-6 -31 27 -31h192l-51 -292h-192q-33 0 -39 -31l-199 -1135h-348zM840 0l182 1040h348l-182 -1040h-348zM1034 1110l62 348h348 l-62 -348h-348z" />
<glyph unicode="&#xfb02;" horiz-adv-x="1423" d="M-2 -418l199 1135q6 31 -27 31h-90l51 292h90q33 0 39 31l16 94q27 152 128.5 222.5t291.5 70.5h226l-52 -293h-184q-63 0 -72 -61l-6 -33q-6 -31 27 -31h192l-51 -292h-192q-33 0 -39 -31l-199 -1135h-348zM887 272l209 1186h348l-191 -1083q-12 -61 50 -62h20l-57 -333 h-62q-190 0 -267 70.5t-50 221.5z" />
<glyph horiz-adv-x="0" />
<glyph unicode="&#xd;" horiz-adv-x="512" />
<glyph unicode=" "  horiz-adv-x="512" />
<glyph unicode="&#x09;" horiz-adv-x="512" />
<glyph unicode="&#xa0;" horiz-adv-x="512" />
<glyph unicode="!" horiz-adv-x="573" d="M10 0l60 348h348l-60 -348h-348zM160 479l12 445l66 534h405l-123 -534l-143 -445h-217z" />
<glyph unicode="&#x22;" horiz-adv-x="970" d="M193 946l43 512h376l-137 -512h-282zM623 946l43 512h376l-137 -512h-282z" />
<glyph unicode="#" d="M10 377l45 258h185l57 188h-147l47 258h184l117 377h282l-116 -377h178l116 377h283l-117 -377h148l-47 -258h-185l-57 -188h147l-45 -258h-184l-117 -377h-282l116 377h-178l-116 -377h-283l117 377h-148zM522 635h178l58 188h-178z" />
<glyph unicode="$" d="M-8 223l196 297q53 -41 115 -63.5t127 -32.5l78 168q-74 12 -140.5 33.5t-113.5 61.5t-67.5 101.5t-4.5 153.5q20 113 74.5 188.5t134.5 120.5t179.5 63.5t207.5 18.5h40t40 -2l109 230h159l-116 -246q66 -12 128 -36t115 -65l-192 -282q-88 53 -197 72l-65 -140 q88 -16 159.5 -41.5t118.5 -68.5t67.5 -106.5t4.5 -151.5q-39 -219 -197.5 -315.5t-435.5 -96.5h-43t-41 2l-88 -188h-160l95 204q-84 16 -158 45t-129 76zM547 948q-4 -23 18.5 -36t83.5 -23l58 123q-90 -4 -123 -19.5t-37 -44.5zM586 416q104 2 145 20t45 51 q6 29 -19.5 45.5t-99.5 32.5z" />
<glyph unicode="%" horiz-adv-x="1638" d="M129 0l1155 1417h270l-1155 -1417h-270zM154 1087q35 197 127 284t251 87q160 0 221.5 -87t26.5 -284t-127 -283.5t-252 -86.5t-221 87t-26 283zM379 1087q-12 -70 3 -99.5t62 -29.5t73 29.5t38 99.5t-3 100t-63 30q-47 0 -72.5 -30t-37.5 -100zM901 330 q35 197 127 283.5t252 86.5t221.5 -87t26.5 -283q-35 -197 -127 -284t-252 -87t-221.5 87t-26.5 284zM1126 330q-12 -70 3.5 -99.5t62.5 -29.5t72.5 29.5t38.5 99.5q12 70 -3.5 99.5t-62.5 29.5t-73 -29.5t-38 -99.5z" />
<glyph unicode="&#x26;" horiz-adv-x="1370" d="M16 397q12 70 41 125.5t67 100.5t80 81.5t81 67.5q10 8 15 19.5t-3 21.5q-14 23 -29.5 52.5t-28 69.5t-15.5 89t7 111q8 51 37 114.5t85.5 119.5t145.5 94t218 38q119 0 192.5 -35.5t113.5 -88t50 -115t2 -113.5q-12 -68 -40.5 -123t-67.5 -101t-81 -83t-81 -66 q-23 -18 -6 -39l143 -178q29 47 48.5 97.5t33.5 121.5h344q-27 -143 -81 -262t-136 -217l111 -135l-267 -227l-108 137q-100 -55 -214 -85t-235 -30q-111 0 -196.5 28.5t-142 85t-79 138.5t-4.5 186zM348 397q-10 -55 32 -82.5t105 -27.5q68 0 115 12t88 31l-172 225 q-10 14 -31 4q-53 -35 -91 -75t-46 -87zM567 1141q-14 -84 35 -148q66 47 92.5 82t32.5 74q4 27 -8 52.5t-53 25.5q-25 0 -42.5 -9.5t-29.5 -22.5t-18.5 -27.5t-8.5 -26.5z" />
<glyph unicode="'" horiz-adv-x="540" d="M193 946l43 512h376l-137 -512h-282z" />
<glyph unicode="(" horiz-adv-x="737" d="M96 116q-8 120 0 245.5t31 252.5q23 125 59.5 252t87 247t114 227.5t138.5 195.5h353q-76 -82 -139.5 -186.5t-114 -224t-88 -250t-62.5 -261.5q-23 -133 -31 -262t1.5 -248.5t35 -224t72.5 -186.5h-352q-45 88 -71 195.5t-34 227.5z" />
<glyph unicode=")" horiz-adv-x="737" d="M-129 -307q74 82 137.5 186.5t113.5 224t88 248.5t60 262q25 131 33 261.5t-1 250t-35.5 224t-71.5 186.5h352q43 -88 68.5 -195.5t33.5 -227.5t0 -247t-31 -252q-23 -127 -59.5 -252.5t-86.5 -245.5t-112.5 -227.5t-138.5 -195.5h-350z" />
<glyph unicode="*" horiz-adv-x="860" d="M125 1087l55 109l56 111l194 -68l39 219h229l-39 -219l220 68l14 -111l18 -109l-221 -67l98 -176l-102 -66l-104 -67l-99 178l-159 -178l-80 67l-82 66l157 176z" />
<glyph unicode="+" d="M119 561l51 295h307q16 0 28.5 10.5t14.5 26.5l55 307h295l-55 -307q-2 -16 6 -26.5t25 -10.5h307l-51 -295h-307q-16 0 -28.5 -10t-14.5 -27l-56 -307h-295l56 307q2 16 -6.5 26.5t-24.5 10.5h-307z" />
<glyph unicode="," horiz-adv-x="573" d="M-23 -248q20 18 50 47t58 63t49.5 70.5t27.5 67.5h-152l60 348h348l-31 -174q-31 -178 -102.5 -289.5t-175.5 -195.5z" />
<glyph unicode="-" horiz-adv-x="778" d="M86 518l51 293h582l-51 -293h-582z" />
<glyph unicode="." horiz-adv-x="573" d="M10 0l60 348h348l-60 -348h-348z" />
<glyph unicode="/" horiz-adv-x="901" d="M-98 -205l864 1766h266l-864 -1766h-266z" />
<glyph unicode="0" d="M61.5 335q-6.5 147 34.5 374q39 227 97.5 373.5t139.5 229.5t188.5 114.5t246.5 31.5t235.5 -31.5t148.5 -114.5t58.5 -229.5t-32.5 -373.5q-41 -227 -98.5 -374t-139.5 -229.5t-189.5 -114.5t-246.5 -32t-235.5 32t-148.5 114.5t-58.5 229.5zM420 500q-6 -82 7 -128 t47 -63.5t89 -17.5t95 17.5t69 63.5t52 128t46 209t28 208.5t-8.5 128t-47 63.5t-88.5 17t-95.5 -17t-69 -63.5t-51 -128t-44.5 -208.5q-23 -127 -29 -209z" />
<glyph unicode="1" d="M57 0l58 328h301l116 665q4 16 -5 26.5t-25 10.5h-264l49 281q137 18 233 46.5t187 100.5h258l-199 -1130h301l-57 -328h-953z" />
<glyph unicode="2" d="M14 0l52 295q20 111 66 186.5t128 126.5l428 266q51 31 73.5 56.5t29.5 66.5q20 104 -162 105q-160 0 -310 -92l-96 303q49 33 103.5 59.5t117 46t137 29.5t167.5 10q117 0 203.5 -25.5t142 -80t75 -136t-1.5 -194.5q-10 -59 -27.5 -109.5t-47 -94.5t-72.5 -84t-105 -79 l-403 -254q-35 -23 -31 -49q6 -25 35 -24h551l-57 -328h-996z" />
<glyph unicode="3" d="M-33 88l195 299q86 -55 158.5 -74.5t164.5 -19.5q139 0 211 36t88 128q12 72 -22.5 100.5t-118.5 28.5h-324l54 301h282q90 0 130 26.5t51 85.5q4 27 -1.5 49.5t-26 40t-58 26.5t-97.5 9q-92 0 -171 -23.5t-179 -70.5l-92 291q123 74 243.5 105.5t278.5 31.5 q121 0 216 -22.5t157.5 -71.5t88.5 -129t5 -193q-8 -49 -19.5 -84.5t-26.5 -63.5t-33.5 -50.5t-41.5 -46.5q-16 -16 -25.5 -27.5t-11.5 -24.5q-4 -12 5.5 -21t23.5 -24q20 -23 36.5 -49t26 -59t9.5 -76t-10 -100q-23 -129 -85.5 -216t-153.5 -141.5t-206 -77t-242 -22.5 q-94 0 -166.5 10.5t-131 26.5t-102.5 39.5t-79 52.5z" />
<glyph unicode="4" d="M4 297l21 117q12 76 31.5 131t45.5 102l430 770h351l-416 -749q-20 -35 -21 -52q-8 -27 27 -26h197l80 450h346l-80 -450h158l-52 -293h-157l-52 -297h-344l49 297h-614z" />
<glyph unicode="5" d="M-6 90l190 293q104 -57 183 -72.5t161 -15.5q109 0 174.5 35t79.5 112q4 31 0 56.5t-22.5 45t-54 31t-91.5 11.5h-442l147 831h941l-64 -352h-541q-16 0 -27.5 -10.5t-15.5 -26.5l-24 -141h114q127 0 219.5 -22.5t147.5 -75t72.5 -136.5t-2.5 -207q-25 -139 -85.5 -233 t-147.5 -150.5t-198.5 -80t-238.5 -23.5q-164 0 -275.5 30.5t-199.5 100.5z" />
<glyph unicode="6" d="M65.5 365.5q-4.5 142.5 32.5 343.5q37 209 97.5 351t150.5 231t214 128t288 39q135 0 231.5 -36t167.5 -89l-194 -299q-29 18 -55.5 33.5t-57.5 28t-70 19.5t-92 7q-78 0 -131 -18.5t-87 -49t-52.5 -70.5t-26.5 -81q-4 -27 21 -12q12 6 30.5 18.5t48 24.5t70.5 20.5 t97 8.5q106 0 184 -26t125 -84t60 -152.5t-11 -229.5q-47 -272 -193.5 -392t-410.5 -120q-147 0 -241.5 42t-142.5 132t-52.5 232.5zM414 467q-16 -86 14.5 -138.5t128.5 -52.5q94 0 139.5 47.5t61.5 141.5q14 88 -12.5 133t-122.5 45q-94 0 -144.5 -46t-64.5 -130z" />
<glyph unicode="7" d="M145 0l621 989q8 16 14 28.5t6 22.5q4 27 -28 27h-568l64 350h1026l-31 -174q-12 -76 -30.5 -131t-49.5 -102l-628 -1010h-396z" />
<glyph unicode="8" d="M51.5 220q-14.5 81 3.5 181q12 72 33 124.5t45.5 90t53 64.5t59.5 49l15 12t7 15q0 14 -14 28q-35 41 -51.5 101.5t2.5 171.5q18 96 59 171t109.5 126t166 77.5t228.5 26.5q262 0 358.5 -104.5t61.5 -296.5q-18 -111 -55 -171.5t-89 -101.5q-23 -16 -22 -28 q-2 -14 10 -27q23 -23 42.5 -49.5t31.5 -64t13 -90t-11 -124.5q-18 -100 -61 -181t-116 -139t-178.5 -90t-248.5 -32t-237.5 32t-147.5 90t-67.5 139zM406 377.5q4 -27.5 21 -48t49 -32.5t85 -12q104 0 150.5 45t56.5 106q28 156 -154 156q-178 0 -206 -156q-6 -31 -2 -58.5 zM545 1020q-10 -66 16.5 -102.5t104.5 -36.5t118.5 36.5t51.5 102.5q10 59 -17.5 90t-105.5 31t-118 -31t-50 -90z" />
<glyph unicode="9" d="M25 84l194 299q29 -18 55.5 -34.5t57 -29t68.5 -19.5t92 -7q78 0 131 18.5t87.5 49t53 70.5t27.5 81q2 10 -4.5 15t-16.5 -3q-12 -6 -31.5 -18t-50.5 -24.5t-72 -20.5t-96 -8q-104 0 -182 25.5t-124 84t-59.5 152.5t11.5 231q47 272 193.5 392t408.5 120q147 0 242.5 -42 t143.5 -132t51.5 -232t-31.5 -343q-37 -209 -97.5 -351.5t-151.5 -231.5t-215 -128t-288 -39q-133 0 -229.5 36t-167.5 89zM512 952q-16 -90 11.5 -134t123.5 -44t146.5 46t64.5 130q16 86 -14.5 137.5t-130.5 51.5q-92 0 -138.5 -46.5t-62.5 -140.5z" />
<glyph unicode=":" horiz-adv-x="573" d="M10 0l60 348h348l-60 -348h-348zM117 614l61 349h348l-61 -349h-348z" />
<glyph unicode=";" horiz-adv-x="573" d="M-23 -248q20 18 50 47t58 63t49.5 70.5t27.5 67.5h-152l60 348h348l-31 -174q-31 -178 -102.5 -289.5t-175.5 -195.5zM117 614l61 349h348l-61 -349h-348z" />
<glyph unicode="&#x3c;" d="M119 565l51 287l1018 430l-58 -328l-538 -215q-8 -4 -15.5 -10t-9.5 -20q-4 -23 15 -31l460 -215l-57 -328z" />
<glyph unicode="=" horiz-adv-x="1208" d="M80 338l51 293h983l-51 -293h-983zM158 788l53 293h983l-53 -293h-983z" />
<glyph unicode="&#x3e;" d="M84 135l57 328l539 215q8 4 15.5 10.5t11.5 20.5q2 23 -17 30l-461 215l58 328l866 -430l-51 -287z" />
<glyph unicode="?" horiz-adv-x="1110" d="M178 1348q106 61 242.5 106t298.5 45q236 0 347.5 -103.5t78.5 -283.5q-14 -76 -50 -133t-82 -99t-97.5 -72t-94.5 -52.5t-72.5 -41t-31.5 -36.5q-4 -18 6 -22.5t29 -10.5l-129 -248q-61 8 -114.5 25.5t-91.5 49.5t-54.5 83t-4.5 129q12 66 47 115t81 86t97.5 65.5 t94.5 53t73.5 47t34.5 51.5q6 31 -25.5 56.5t-105.5 25.5q-102 0 -197.5 -35t-187.5 -86zM258 0l59 348h351l-60 -348h-350z" />
<glyph unicode="@" horiz-adv-x="1904" d="M35.5 113.5q-27.5 162.5 7.5 357.5q41 229 135 412.5t237.5 310.5t334 195.5t421.5 68.5q217 0 363.5 -57.5t227.5 -160.5t104 -245.5t-8 -312.5q-29 -162 -93.5 -278.5t-147.5 -191.5t-173 -109.5t-170 -34.5q-88 0 -135 18t-70 47q-72 -47 -156 -66.5t-178 -19.5 q-170 0 -259 100.5t-54 301.5q49 276 203.5 410t398.5 134q53 0 95 -8t81 -17.5t76 -16.5t80 -7h102l-188 -538q-16 -43 -3 -78t74 -35q53 0 104.5 20.5t96.5 67.5t80 122t53 183q23 129 8.5 238.5t-77 189.5t-176 125t-291.5 45q-156 0 -302.5 -44t-267 -140t-210 -252 t-128.5 -377q-59 -340 90.5 -521t479.5 -181q221 0 376.5 48t272.5 130l68 -148q-63 -43 -138 -83t-167.5 -69.5t-203 -47t-241.5 -17.5q-219 0 -371.5 65.5t-243 184.5t-118 281.5zM719 483q-10 -66 13.5 -103.5t92.5 -37.5q86 0 131 44t78 142q14 43 19.5 75t-4 53.5 t-35 32.5t-74.5 11q-53 0 -91 -16t-64.5 -45t-42 -69t-23.5 -87z" />
<glyph unicode="A" horiz-adv-x="1390" d="M-102 0l673 1458h555l162 -1458h-401l-23 229h-465l-100 -229h-401zM555 578h276l-36 403q-4 23 -27 23t-33 -23z" />
<glyph unicode="B" horiz-adv-x="1249" d="M20 0l256 1458h195q63 0 108.5 6t84 14.5t80.5 14.5t104 6q131 0 217 -26.5t134 -78.5q49 -52 61 -130q5 -31 4 -66q0 -53 -11 -117q-18 -98 -58 -169.5t-105 -118.5q-23 -16 -28 -22.5t-5 -14.5q-2 -10 1 -16.5t23 -20.5q63 -41 89 -115q15 -43 15 -99q0 -39 -7 -83 q-20 -111 -59.5 -190.5t-103 -131t-154.5 -76t-216 -24.5h-625zM438 289h166q92 0 137.5 40.5t59.5 112.5q3 20 3 38q0 45 -22 75q-30 41 -123 41h-165zM547 903h104q109 0 155 33t56 90q3 18 3 33q1 34 -15 57q-22 33 -115 33q-78 0 -114.5 -24.5t-47.5 -77.5z" />
<glyph unicode="C" horiz-adv-x="1239" d="M78 404q-3 35 -3 71q0 116 25 254q33 182 93.5 325.5t159 242t236.5 150.5t326 52q88 0 157 -14.5t120 -38t89 -51t67 -54.5l-220 -292q-53 45 -114.5 72.5t-161.5 27.5q-74 0 -133.5 -21.5t-105.5 -71.5t-78.5 -130t-53.5 -197q-17 -98 -17 -169q0 -14 1 -28 q4 -80 32.5 -130t81 -71.5t126.5 -21.5q100 0 170.5 28t140.5 73l117 -293q-39 -27 -87.5 -54.5t-107.5 -51t-133 -38t-162 -14.5q-188 0 -308 52t-183.5 150.5t-73.5 242.5z" />
<glyph unicode="D" horiz-adv-x="1349" d="M20 0l256 1458h195q63 0 110.5 6t92.5 14.5t97 14.5t126 6q160 0 251 -52q91 -51 131 -149q36 -89 37 -214q0 -12 -1 -25q-4 -141 -35 -320q-33 -182 -83 -320t-135 -231.5t-214 -140.5t-316 -47h-512zM449 348h110q74 0 129 17.5t95 61.5t68 120t48 192q21 113 23 191 v19q0 65 -16 108q-18 49 -55.5 70.5t-96.5 21.5q-76 0 -123 -24.5t-58 -77.5z" />
<glyph unicode="E" horiz-adv-x="1177" d="M20 0l256 1458h971l-61 -348h-565q-16 0 -27.5 -10t-15.5 -27l-23 -131h561l-61 -348h-561l-37 -209q-4 -16 4 -26.5t24 -10.5h566l-60 -348h-971z" />
<glyph unicode="F" horiz-adv-x="1120" d="M20 0l256 1458h930l-61 -348h-524q-16 0 -27.5 -10t-15.5 -27l-37 -213h561l-62 -348h-561l-90 -512h-369z" />
<glyph unicode="G" horiz-adv-x="1398" d="M92 404q-4 42 -4 88q0 109 23 237q33 182 94 325.5t160.5 242t243 150.5t337.5 52q88 0 166 -14.5t140.5 -38t110.5 -51t77 -54.5l-219 -292q-53 45 -145.5 72.5t-192.5 27.5q-82 0 -145.5 -21.5t-111.5 -71.5t-81 -130t-53 -197q-16 -92 -16 -160q0 -19 2 -37 q5 -79 35 -129.5t84 -72t128 -21.5q115 0 161 35t56 88l12 78h-221l62 348h548l-149 -858h-154q-66 0 -111.5 -6t-89.5 -14.5t-94.5 -14.5t-121.5 -6q-166 0 -279 52t-175.5 150.5t-76.5 242.5z" />
<glyph unicode="H" horiz-adv-x="1392" d="M20 0l256 1458h369l-84 -479q-4 -16 5 -26.5t26 -10.5h336q16 0 27.5 10.5t15.5 26.5l84 479h368l-256 -1458h-368l96 557q4 16 -4 26.5t-25 10.5h-336q-16 0 -28.5 -10.5t-16.5 -26.5l-96 -557h-369z" />
<glyph unicode="I" horiz-adv-x="634" d="M31 0l256 1458h368l-256 -1458h-368z" />
<glyph unicode="J" horiz-adv-x="1005" d="M-70 104l207 281q35 -29 80 -52.5t100 -23.5q59 0 107.5 28t60.5 95l181 1026h368l-192 -1093q-37 -207 -170 -306.5t-363 -99.5q-76 0 -134 11.5t-103 32t-80 46t-62 55.5z" />
<glyph unicode="K" horiz-adv-x="1372" d="M20 0l256 1458h369l-78 -442q-2 -12 -2 -21.5t8 -15.5l13 -14q6 -10 16 -9.5t19 11.5l434 491h442l-625 -686q-26 -28 -26 -55q0 -17 10 -33l442 -684h-481l-311 496q-6 12 -17.5 7t-15.5 -18l-84 -485h-369z" />
<glyph unicode="L" horiz-adv-x="1120" d="M20 0l256 1458h369l-188 -1073q-4 -16 4 -26.5t24 -10.5h566l-60 -348h-971z" />
<glyph unicode="M" horiz-adv-x="1658" d="M20 0l256 1458h474l98 -584q4 -25 28.5 -24.5t36.5 24.5l304 584h473l-256 -1458h-361l123 702q4 20 -11.5 22.5t-21.5 -13.5l-233 -486h-328l-61 486q-4 16 -18.5 14t-18.5 -23l-123 -702h-361z" />
<glyph unicode="N" horiz-adv-x="1433" d="M20 0l256 1458h424l230 -710q8 -27 32.5 -23t30.5 33l123 700h348l-256 -1458h-424l-229 711q-4 12 -13.5 18t-19.5 4t-19 -10t-11 -23l-123 -700h-349z" />
<glyph unicode="O" horiz-adv-x="1433" d="M81 398v24q0 135 30 307q33 186 86 330.5t142 242t220 147.5t320 50q188 0 300.5 -50t167 -147.5t56.5 -241.5v-17q0 -138 -31 -314q-33 -188 -86 -331.5t-141 -241t-219 -147.5t-320 -50q-188 0 -302 50t-167 147.5t-56 241.5zM467 518v-14q-1 -72 19 -114 q22 -46 67 -63.5t115 -17.5t120 17.5t87.5 63.5t65.5 128t50 211q23 129 24 211v7q-1 77 -21 121q-22 46 -65.5 63.5t-113.5 17.5t-120 -17.5t-88 -63.5t-65 -128t-50 -211t-25 -211z" />
<glyph unicode="P" horiz-adv-x="1230" d="M20 0l256 1458h195q63 0 110.5 6t89.5 14.5t88 14.5t109 6q141 0 232.5 -29.5t139.5 -93.5t56 -166q2 -23 1 -50q0 -85 -19 -195q-27 -145 -72 -248t-116.5 -166.5t-174 -92t-243.5 -28.5q-41 0 -78 3t-66 7q-33 4 -61 11l-78 -451h-369zM528 797q25 -4 50 -9 q23 -4 50 -6t56 -2q106 0 151.5 48.5t61.5 136.5q5 30 5 55q0 49 -20 81q-32 48 -128 48q-76 0 -123 -24.5t-58 -77.5z" />
<glyph unicode="Q" horiz-adv-x="1433" d="M81 398v24q0 135 30 307q33 186 86 330.5t142 242t220 147.5t320 50q188 0 300.5 -50t167 -147.5t56.5 -241.5v-17q0 -139 -31 -314q-20 -113 -47 -209t-61 -178q2 -4 15 -19.5t58 -27.5l-59 -336h-4q-94 2 -147.5 35t-90.5 69q-82 -51 -187.5 -77.5t-242.5 -26.5 q-188 0 -302 50t-167 147.5t-56 241.5zM487 674q73 39 177 39q90 0 163.5 -31t137.5 -84q6 29 13 61.5t13 69.5q23 129 24 211v7q0 77 -21 121q-21 46 -65 63.5t-114 17.5t-120 -17.5t-88 -63.5t-65.5 -128t-49.5 -211q-8 -39 -5 -55zM492 377q-4 -16 11 -29.5t40.5 -22 t58.5 -12.5t66 -4q66 0 114 15q-43 41 -88 64.5t-104 23.5q-43 0 -68.5 -8.5t-29.5 -26.5z" />
<glyph unicode="R" horiz-adv-x="1292" d="M20 0l256 1458h195q63 0 110.5 6t89.5 14.5t88 14.5t109 6q139 0 232.5 -26.5t143.5 -85t62 -152.5q4 -30 3 -63q0 -73 -17 -166q-31 -176 -100.5 -280.5t-190.5 -158.5q-16 -8 -22 -28.5t2 -40.5l199 -498h-426l-179 512h-96l-90 -512h-369zM541 862h157q109 0 155 36 t58 108q3 19 3 35q0 47 -26 73q-34 36 -126 35q-78 0 -128 -24.5t-61 -77.5z" />
<glyph unicode="S" horiz-adv-x="1290" d="M-47 127l223 328q98 -80 201.5 -110t202.5 -30q117 0 173 31t66 86q6 31 1 52.5t-32.5 41t-85 38t-157.5 40.5q-84 18 -157 46t-123 76q-49 48 -71 122q-12 40 -12 91q0 43 8 93q25 135 84.5 224.5t145.5 143.5t192.5 76.5t223.5 22.5q92 0 161.5 -9t127 -27.5t106.5 -46 t98 -66.5l-213 -306q-49 31 -90 50.5t-81 30t-83 14.5t-98 4q-80 0 -133 -18.5t-64 -77.5q-6 -29 3.5 -46.5t35 -31t68.5 -25.5t106 -26q131 -31 222.5 -66t142.5 -86q51 -50 65 -126q6 -31 6 -69q0 -54 -12 -122q-41 -236 -213 -363t-467 -127q-203 0 -341 44t-230 124z " />
<glyph unicode="T" horiz-adv-x="1167" d="M125 1110l61 348h1102l-61 -348h-330q-16 0 -27.5 -10t-15.5 -27l-188 -1073h-369l188 1073q4 16 -5 26.5t-25 10.5h-330z" />
<glyph unicode="U" horiz-adv-x="1392" d="M82 168q-9 37 -10 83q0 47 10 103l194 1104h369l-180 -1026q-4 -27 0 -49.5t24.5 -38.5t58.5 -25.5t99 -9.5t103.5 9.5t68 25.5t38.5 39t17 49l181 1026h368l-256 -1458h-194q-66 0 -112 -6t-95 -14.5t-109.5 -14.5t-152.5 -6q-119 0 -207 20.5t-142.5 66.5t-72.5 122z " />
<glyph unicode="V" horiz-adv-x="1390" d="M154 1458h401l92 -981q2 -23 25.5 -22.5t34.5 22.5l436 981h401l-674 -1458h-555z" />
<glyph unicode="W" horiz-adv-x="1904" d="M96 0l90 1458h381l-80 -960q0 -10 6.5 -16.5t14.5 -6.5t16 6t13 17l303 960h532l-37 -960q0 -10 7.5 -16.5t15.5 -6.5t16 6t10 17l261 960h380l-421 -1458h-617l55 961q0 10 -6 15t-14 5t-16.5 -5t-12.5 -15l-280 -961h-617z" />
<glyph unicode="X" horiz-adv-x="1392" d="M-80 0l463 725q12 21 12 43q0 10 -2 20l-194 670h456l90 -461q4 -16 19.5 -16t26.5 16l253 461h457l-432 -670q-12 -21 -12 -43q0 -10 2 -20l209 -725h-484l-84 471q-4 23 -20 23t-29 -23l-248 -471h-483z" />
<glyph unicode="Y" horiz-adv-x="1372" d="M180 1458h445l104 -491q4 -23 20.5 -23t28.5 23l277 491h444l-622 -977q-16 -23 -26.5 -46t-16.5 -58l-66 -377h-369l66 377q6 35 3 58.5t-9 45.5z" />
<glyph unicode="Z" horiz-adv-x="1167" d="M-33 0l47 276l658 787q16 20 11 33.5t-24 13.5h-485l62 348h1007l-49 -276l-655 -787q-16 -20 -12.5 -33.5t22.5 -13.5h506l-60 -348h-1028z" />
<glyph unicode="[" horiz-adv-x="675" d="M-35 -307l326 1843h522l-59 -330h-150q-18 0 -33.5 -13t-19.5 -32l-193 -1093q-4 -18 7.5 -31.5t29.5 -13.5h150l-58 -330h-522z" />
<glyph unicode="\" horiz-adv-x="901" d="M213 1561h266l242 -1766h-266z" />
<glyph unicode="]" horiz-adv-x="675" d="M-125 -307l55 330h150q18 0 33.5 13t19.5 32l193 1093q4 18 -7.5 31.5t-29.5 13.5h-150l60 330h522l-326 -1843h-520z" />
<glyph unicode="^" d="M25 494l596 942h286l264 -942h-327l-127 499q-4 21 -27 21q-14 0 -22.5 -6.5t-12.5 -14.5l-303 -499h-327z" />
<glyph unicode="_" horiz-adv-x="768" d="M-174 -418l51 293h766l-51 -293h-766z" />
<glyph unicode="`" d="M399 1458h430l52 -293h-328z" />
<glyph unicode="a" horiz-adv-x="1251" d="M48 240q-8 43 -7 95q0 81 18 185q31 172 89.5 280.5t134 171t166 86t184.5 23.5q84 0 135 -6t92 -14t85 -14.5t114 -6.5h170l-182 -1040h-170q-70 0 -116 -6t-91 -14.5t-98.5 -14.5t-137.5 -6q-94 0 -176 23.5t-136 86.5t-74 171zM407 410q7 -44 26.5 -71.5t49 -38.5 t66.5 -11q86 0 150.5 45t84.5 155l11 62q6 32 6 59q0 65 -35 97q-49 45 -135 45q-37 0 -71 -11.5t-63.5 -38t-51 -71.5t-33.5 -111q-8 -42 -7 -75q-1 -19 2 -35z" />
<glyph unicode="b" horiz-adv-x="1253" d="M0 0l256 1458h348l-69 -399q-4 -16 6 -19.5t24 0.5q72 23 127.5 32t102.5 9q94 0 176 -23.5t135 -85.5q52 -64 72 -172q8 -42 8 -93q0 -82 -19 -187q-31 -172 -88 -280.5t-133 -171t-166 -86t-184 -23.5q-84 0 -135 6t-92 14.5t-85 14.5t-114 6h-170zM434 489 q-6 -33 -6 -60q0 -65 34 -95q48 -44 134 -45q37 0 70.5 11t63.5 38t51.5 72t33.5 110q8 42 8 75q0 19 -3 36q-7 45 -26.5 71.5t-49 38t-66.5 11.5q-86 0 -149.5 -45t-84.5 -156z" />
<glyph unicode="c" horiz-adv-x="1064" d="M61 520q49 272 192.5 416.5t408.5 144.5q86 0 148 -10t109.5 -28.5t83 -43t66.5 -55.5l-192 -276q-53 47 -104.5 65.5t-125.5 18.5q-109 0 -160 -55.5t-73 -176.5q-8 -47 -8 -84q0 -58 20 -92q32 -55 139 -55q74 0 131.5 18.5t128.5 65.5l95 -277q-41 -31 -86.5 -55.5 t-98.5 -42.5t-119.5 -28.5t-152.5 -10.5q-265 -1 -357 143q-61 95 -61 248q0 78 16 170z" />
<glyph unicode="d" horiz-adv-x="1251" d="M48 240q-8 43 -8 94q0 81 19 186q31 172 89.5 280.5t134 171t166 86t184.5 23.5q47 0 98 -9t115 -32q33 -10 39 19l69 399h349l-256 -1458h-170q-70 0 -116 -6t-91 -14.5t-98.5 -14.5t-137.5 -6q-94 0 -176 23.5t-136 86.5t-74 171zM407 410q7 -44 26.5 -71.5t49 -38.5 t66.5 -11q86 0 150.5 45t84.5 155l11 62q6 32 6 59q0 65 -35 97q-49 45 -135 45q-37 0 -71 -11.5t-63.5 -38t-51 -71.5t-33.5 -111q-8 -42 -8 -75q0 -19 3 -35z" />
<glyph unicode="e" horiz-adv-x="1091" d="M28 296q-5 38 -5 79q0 69 14 145q20 121 63 224.5t116 178t181.5 116.5t261.5 42q121 0 201 -40t124 -107.5t56 -156.5q4 -34 4 -68q0 -57 -12 -117q-4 -18 -14 -48t-35 -59.5t-64.5 -51t-101.5 -21.5h-405q-33 0 -39 -31q-2 -10 -1 -19q0 -41 36 -74q45 -40 149 -40 q84 0 157.5 24.5t141.5 71.5l98 -240q-88 -72 -197.5 -108.5t-260.5 -36.5q-150 0 -248 42t-152 117t-68 178zM422 664q-6 -31 27 -31h227q33 0 39 31q3 15 3 28q0 40 -22 66q-30 35 -100 35q-72 0 -118 -36t-56 -93z" />
<glyph unicode="f" horiz-adv-x="829" d="M-2 -418l199 1135q6 31 -27 31h-90l51 292h90q33 0 39 31l16 94q27 152 128.5 222.5t291.5 70.5h226l-52 -293h-184q-63 0 -72 -61l-6 -33q-6 -31 27 -31h192l-51 -292h-192q-33 0 -39 -31l-199 -1135h-348z" />
<glyph unicode="g" horiz-adv-x="1253" d="M-6 -41h352q2 -51 34 -82t118 -31q104 0 146 41t52 99l11 57q4 16 -6.5 19.5t-24.5 -1.5q-72 -23 -127 -32t-103 -9q-94 0 -176 18.5t-137 76t-75 161.5q-9 41 -9 93q0 78 19 182q31 172 87 275.5t131.5 160.5t165 75.5t183.5 18.5q84 0 135 -6t92 -14t85 -14.5t114 -6.5 h170l-187 -1060q-14 -76 -48.5 -153t-103.5 -138.5t-179.5 -100.5t-276.5 -39q-131 0 -218 31t-139 85t-71 129q-15 57 -15 123q0 21 1 42zM416 446q8 -40 28.5 -62t51 -28t67.5 -6q43 0 81 6t66.5 23.5t49 51.5t31.5 89l6 31q6 32 6 59q0 65 -35 97q-49 45 -135 45 q-37 0 -70 -6.5t-61.5 -28t-49 -61.5t-32.5 -105q-7 -40 -7 -70q0 -20 3 -35z" />
<glyph unicode="h" horiz-adv-x="1234" d="M0 0l256 1458h348l-69 -399q-4 -16 6 -19.5t24 0.5q72 23 142.5 32t117.5 9q187 1 285 -77q77 -61 77 -168q0 -28 -5 -60l-135 -776h-349l107 604q3 19 3 36q0 40 -16 68q-24 40 -112 40q-43 0 -81 -7.5t-68.5 -29t-53 -59.5t-33.5 -101l-96 -551h-348z" />
<glyph unicode="i" horiz-adv-x="573" d="M10 0l183 1040h348l-183 -1040h-348zM205 1110l61 348h348l-61 -348h-348z" />
<glyph unicode="j" horiz-adv-x="573" d="M-143 -418l55 334h20q61 0 74 61l187 1063h348l-205 -1165q-29 -152 -129.5 -222.5t-290.5 -70.5h-59zM205 1110l61 348h348l-61 -348h-348z" />
<glyph unicode="k" horiz-adv-x="1185" d="M0 0l256 1458h348l-102 -575q-4 -27 6 -37l12 -15q8 -10 17.5 -8t17.5 11l219 206h451l-480 -436q-22 -18 -22 -38q0 -13 10 -27l363 -539h-465l-195 326q-8 10 -19 6t-14 -17l-55 -315h-348z" />
<glyph unicode="l" horiz-adv-x="593" d="M57 272l209 1186h348l-190 -1083q-2 -10 -2 -18q0 -43 51 -44h21l-58 -333h-61q-190 0 -267 70q-58 53 -58 151q0 33 7 71z" />
<glyph unicode="m" horiz-adv-x="1769" d="M0 0l182 1040h170q70 0 114 6.5t83 14.5t81.5 14t112.5 6q57 0 97.5 -9t70 -19.5t54 -19.5t55.5 -9q39 0 70.5 9t68.5 19.5t84 19.5t117 9q188 1 286 -77q76 -61 76 -166q0 -29 -6 -62l-135 -776h-348l106 604q4 26 4 49q0 31 -8 55q-14 40 -80 40q-37 0 -67.5 -7.5 t-55 -29t-43 -59.5t-28.5 -101l-96 -551h-349l107 604q4 26 4 49q0 31 -8 55q-14 40 -80 40q-37 0 -67.5 -7.5t-55 -29t-43 -59.5t-29.5 -101l-96 -551h-348z" />
<glyph unicode="n" horiz-adv-x="1234" d="M0 0l182 1040h170q70 0 121 6.5t101.5 14.5t108.5 14t142 6q187 1 285 -77q77 -61 77 -168q0 -28 -5 -60l-135 -776h-349l107 604q3 19 3 36q0 40 -16 68q-24 40 -112 40q-43 0 -81 -7.5t-68.5 -29t-53 -59.5t-33.5 -101l-96 -551h-348z" />
<glyph unicode="o" horiz-adv-x="1187" d="M46 284q-2 28 -2 59q0 82 17 177q23 131 69 235.5t120 176.5t180.5 110.5t251.5 38.5t237.5 -38.5t140.5 -110.5t56 -176q2 -28 2 -58q0 -82 -16 -178q-23 -131 -68 -235.5t-118.5 -176t-180 -110.5t-252.5 -39q-145 0 -237 39t-142 110.5t-58 175.5zM414 520 q-9 -55 -10 -95q0 -58 20 -87q33 -49 117 -49t135 49t74 182q9 55 9 95q0 57 -19 87q-33 50 -117 50t-135.5 -49.5t-73.5 -182.5z" />
<glyph unicode="p" horiz-adv-x="1253" d="M-74 -418l256 1458h170q70 0 116 6.5t91 14.5t98.5 14t137.5 6q94 0 176 -23.5t135 -86t72 -171.5q8 -41 8 -93q0 -81 -19 -187q-31 -172 -88 -280.5t-133 -171t-166 -86t-184 -23.5q-47 0 -98.5 9t-114.5 32q-33 10 -39 -18l-70 -400h-348zM434 489q-6 -33 -6 -60 q0 -64 34 -95q48 -45 134 -45q37 0 70.5 11t63.5 38t51.5 72t33.5 110q8 42 8 75q0 19 -3 36q-7 45 -26.5 71.5t-49 38t-66.5 11.5q-86 0 -149.5 -45t-84.5 -156z" />
<glyph unicode="q" horiz-adv-x="1253" d="M50 240q-8 42 -8 94q0 81 19 186q31 172 89.5 280.5t134 171t166 86t184.5 23.5q84 0 135 -6t92 -14t85 -14.5t114 -6.5h170l-256 -1458h-348l69 400q4 16 -6 19t-24 -1q-72 -23 -127.5 -32t-102.5 -9q-94 0 -176 23.5t-136 86t-74 171.5zM409 410q7 -45 26.5 -72t49 -38 t66.5 -11q86 0 150.5 45t84.5 155l11 62q6 32 6 59q0 65 -35 97q-49 45 -135 45q-37 0 -71 -11.5t-63.5 -38t-51 -71.5t-33.5 -111q-8 -42 -8 -75q0 -19 3 -35z" />
<glyph unicode="r" horiz-adv-x="874" d="M0 0l182 1040h170q70 0 114 6.5t83 14.5t82 14t112 6q43 0 88.5 -12t61.5 -29l-133 -317q-23 10 -51.5 17.5t-69.5 7.5q-37 0 -67.5 -7.5t-55 -29t-43 -59.5t-29.5 -101l-96 -551h-348z" />
<glyph unicode="s" horiz-adv-x="1054" d="M-49 86l186 285q72 -53 152 -71.5t151 -18.5q76 0 108 13t36 38q4 27 -25 39t-92 20q-82 10 -152.5 26.5t-120.5 51.5t-72 95q-12 33 -12 77q0 37 9 82q18 104 70.5 173t125 110t156.5 58t168 17q49 0 100.5 -2t103.5 -13t103 -31.5t98 -57.5l-184 -275 q-59 39 -121.5 56.5t-138.5 17.5q-70 0 -92.5 -15.5t-26.5 -33.5t21.5 -30.5t99.5 -20.5q86 -10 156.5 -30.5t119.5 -59.5q48 -40 67 -100q11 -35 11 -78q0 -32 -6 -70q-18 -106 -65 -179t-119 -117t-165 -63.5t-206 -19.5q-127 0 -237.5 25.5t-206.5 101.5z" />
<glyph unicode="t" horiz-adv-x="788" d="M70 748l36 210q117 45 192 129t105 162h226l-31 -178q-6 -31 27 -31h172l-52 -292h-172q-33 0 -38 -31l-64 -363q-2 -10 -2 -18q0 -43 53 -43h123l-51 -293h-164q-190 0 -268 70q-57 51 -57 147q0 35 8 76l73 424q6 31 -26 31h-90z" />
<glyph unicode="u" horiz-adv-x="1234" d="M29 264l137 776h348l-106 -604q-3 -19 -3 -36q0 -39 16 -67q23 -40 111 -40q43 0 81 7t69 28.5t52.5 59.5t33.5 101l96 551h348l-182 -1040h-170q-70 0 -121 -6t-101 -14.5t-108.5 -14.5t-142.5 -6q-189 0 -287 77q-76 60 -77 166q0 29 6 62z" />
<glyph unicode="v" horiz-adv-x="1177" d="M98 1040h389l54 -563q2 -23 25.5 -22.5t33.5 22.5l250 563h389l-516 -1040h-473z" />
<glyph unicode="w" horiz-adv-x="1675" d="M111 1040h360l-18 -563q0 -10 5 -16t13 -6t17.5 6t13.5 16l211 563h409l15 -563q0 -23 20.5 -22.5t28.5 22.5l178 563h360l-368 -1040h-484l-14 604q-4 16 -14 17q-14 0 -19 -17l-227 -604h-483z" />
<glyph unicode="x" horiz-adv-x="1257" d="M-90 0l381 520q16 20 16 42q0 11 -4 22l-180 456h434l82 -268q4 -16 19.5 -16t25.5 16l176 268h434l-340 -456q-16 -22 -16 -43q0 -11 4 -21l201 -520h-459l-84 287q-4 23 -19.5 22.5t-29.5 -22.5l-182 -287h-459z" />
<glyph unicode="y" horiz-adv-x="1222" d="M-25 -41h353q2 -51 33.5 -82t117.5 -31q104 0 146.5 41t52.5 99l10 57q4 16 -6 19.5t-25 -1.5q-72 -23 -142.5 -32t-117.5 -9q-188 0 -287 77q-76 59 -76 164q0 30 7 65l125 714h348l-96 -542q-3 -19 -3 -36q0 -39 17 -68q23 -40 111 -40q43 0 81 7.5t68.5 29t52 59 t33.5 101.5l86 489h348l-186 -1060q-14 -76 -49 -153t-103.5 -138.5t-179 -100.5t-276.5 -39q-131 0 -218 31t-139.5 85t-72.5 129q-14 57 -14 123q0 21 1 42z" />
<glyph unicode="z" horiz-adv-x="1024" d="M-31 0l39 227l441 480q16 16 12 28.5t-21 12.5h-329l51 292h860l-39 -227l-442 -479q-16 -16 -11 -28.5t21 -12.5h350l-51 -293h-881z" />
<glyph unicode="{" horiz-adv-x="675" d="M23 -158l124 588q10 53 -27.5 94t-88.5 68l8 45q59 27 111.5 67.5t60.5 94.5l84 587q10 78 53 114t121 36h344l-59 -330h-115q-47 0 -57 -53q-14 -76 -22.5 -138.5t-15.5 -125t-15.5 -128t-22.5 -147.5t-28.5 -147.5t-30 -128t-30 -124.5t-26.5 -138q-10 -53 39 -53h115 l-58 -330h-344q-78 0 -107.5 35.5t-12.5 113.5z" />
<glyph unicode="|" horiz-adv-x="573" d="M-35 -307l326 1843h327l-325 -1843h-328z" />
<glyph unicode="}" horiz-adv-x="614" d="M-125 -307l55 330h115q49 0 59 53q12 76 20.5 138t15.5 124.5t15.5 128t22.5 147.5t29.5 147.5t30 128l29 125t28.5 138.5q10 53 -41 53h-115l60 330h344q78 0 107.5 -36t13.5 -114l-125 -587q-10 -53 26.5 -94t87.5 -68l-8 -45q-59 -27 -110.5 -68t-59.5 -94l-84 -588 q-10 -78 -53 -113.5t-121 -35.5h-342z" />
<glyph unicode="&#xa1;" horiz-adv-x="573" d="M-92 -418l123 535l143 444h217l-12 -444l-66 -535h-405zM131 692l62 348h348l-62 -348h-348z" />
<glyph unicode="&#xa2;" d="M94 709q27 150 81 266.5t143.5 196t213 120.5t287.5 41h44.5t41.5 -2l109 230h160l-121 -254q86 -23 137 -56.5t92 -70.5l-201 -281q-41 31 -80.5 54.5t-99.5 33.5l-264 -565q12 -2 25.5 -2h27.5q113 0 183.5 26.5t140.5 71.5l102 -280q-41 -29 -88 -56.5t-108.5 -49 t-140.5 -35t-179 -13.5q-63 0 -121 6l-88 -192h-160l105 223q-174 59 -228.5 208.5t-13.5 379.5zM457 709q-33 -172 43 -240l248 526q-129 -8 -197.5 -75.5t-93.5 -210.5z" />
<glyph unicode="&#xa3;" d="M-47 0l57 328h123l43 247h-123l51 293h123l27 154q41 227 194.5 331.5t407.5 104.5q82 0 146.5 -10t119 -28.5t97.5 -43t81 -53.5l-204 -303q-59 41 -137 61.5t-154 20.5q-92 0 -133 -31t-51 -84l-21 -119h397l-51 -293h-397l-43 -247h602l-57 -328h-1098z" />
<glyph unicode="&#xa5;" d="M27 311l39 217h340l-5 15l-22 78h-297l39 217h198l-161 579h348l131 -526q8 -23 28.5 -23t32.5 23l320 526h348l-367 -579h199l-39 -217h-299l-49 -78l-8 -15h340l-39 -217h-354l-54 -311h-368l53 311h-354z" />
<glyph unicode="&#xa6;" horiz-adv-x="573" d="M-35 -307l156 880h328l-156 -880h-328zM135 655l156 881h327l-155 -881h-328z" />
<glyph unicode="&#xa7;" horiz-adv-x="4464" d="M102 487v52h377v-23q0 -78 53.5 -136t145.5 -58q61 0 108.5 33.5t47.5 90.5q0 51 -27 78t-68 47l-344 172q-78 39 -134 83t-91 96.5t-51.5 118t-16.5 147.5q0 98 42 184t116 150.5t175.5 102.5t221.5 38q150 0 254.5 -54.5t171 -134t97 -168.5t30.5 -159v-19h-391 q-8 70 -48 118t-118 48q-27 0 -53.5 -7t-48 -20.5t-34.5 -36t-13 -52.5q0 -35 16.5 -60.5t57.5 -44.5l288 -129q68 -31 131.5 -73t113.5 -99t81 -129t31 -160q0 -106 -43 -202.5t-117 -170t-173 -117.5t-212 -44q-145 0 -253 49t-179.5 126t-107.5 172t-36 191zM1286 449 v591h383v-581q0 -68 38 -109t120 -41q55 0 105 35t50 107v589h379v-1169q0 -90 -34.5 -180t-103.5 -162t-169 -116t-231 -44q-106 0 -199.5 40t-164 106.5t-113.5 154.5t-50 185l385 -2q10 -59 53.5 -86t98.5 -27q72 0 109.5 39t37.5 100v119q-53 -27 -101 -38t-101 -11 q-117 0 -208 44t-153.5 114.5t-96.5 159.5t-34 182zM2441 0v1077q0 141 41 251t118 184.5t187.5 112.5t247.5 38h252v-399h-248q-53 0 -90 -7.5t-60.5 -27t-34.5 -54t-11 -90.5v-45h364v-378h-364v-662h-402zM3287 449v591h383v-581q0 -68 38 -109t120 -41q55 0 105 35 t50 107v589h379v-1169q0 -90 -34.5 -180t-103.5 -162t-169 -116t-231 -44q-106 0 -199.5 40t-164.5 106.5t-114 154.5t-49 185l385 -2q10 -59 53.5 -86t98.5 -27q72 0 109.5 39t37.5 100v119q-53 -27 -101 -38t-101 -11q-117 0 -208 44t-153.5 114.5t-96.5 159.5t-34 182z " />
<glyph unicode="&#xa8;" d="M307 1110l62 348h348l-62 -348h-348zM758 1110l61 348h348l-61 -348h-348z" />
<glyph unicode="&#xa9;" horiz-adv-x="1654" d="M110.5 406.5q-16.5 138.5 12.5 302.5t93.5 302t168.5 237.5t251.5 154.5t340.5 55t319.5 -55t197.5 -154.5t87 -238t-12 -301.5q-29 -164 -94.5 -302.5t-170 -237.5t-251.5 -154.5t-340 -55.5t-320 55.5t-196.5 154.5t-86 237.5zM271.5 470q13.5 -110 67.5 -188.5 t153.5 -123.5t248.5 -45q147 0 262 45t198 123.5t135 188.5t75 239t9.5 237.5t-69 188t-153.5 125t-246 45.5q-150 0 -264.5 -45.5t-197 -124t-135 -188t-74.5 -238.5q-23 -129 -9.5 -239zM442 709q39 219 152 333.5t326 114.5q68 0 117.5 -8t88.5 -22.5t68 -35t53 -44.5 l-153 -222q-43 37 -84 52.5t-101 15.5q-86 0 -128 -44t-58 -140q-18 -98 8.5 -142.5t112.5 -44.5q59 0 105 15.5t102 52.5l75 -221q-33 -25 -68.5 -44.5t-78.5 -35t-96.5 -23.5t-120.5 -8q-213 0 -287 115t-33 336z" />
<glyph unicode="&#xab;" horiz-adv-x="1064" d="M27 561l18 109l471 370l115 -178l-240 -203q-53 -43 -14 -88l166 -202l-176 -179zM467 561l18 109l471 370l115 -178l-240 -203q-53 -43 -14 -88l166 -202l-176 -179z" />
<glyph unicode="&#xac;" horiz-adv-x="1765" d="M137 729q29 160 114 300t208 244.5t274.5 165t310.5 60.5q160 0 289 -60.5t215 -165t122 -244.5t7 -300t-113.5 -300t-207.5 -244.5t-273.5 -165t-310.5 -60.5t-290 60.5t-216 165t-122 244.5t-7 300z" />
<glyph unicode="&#xad;" horiz-adv-x="778" d="M86 518l51 293h582l-51 -293h-582z" />
<glyph unicode="&#xae;" horiz-adv-x="518" d="M156 1233q16 98 78.5 161.5t179.5 63.5t155.5 -63.5t22.5 -161.5q-18 -98 -79.5 -161.5t-178.5 -63.5t-157 63.5t-21 161.5zM195 1233q-16 -84 16.5 -136.5t128.5 -52.5q98 0 148.5 51.5t66.5 137.5q14 84 -18.5 136t-128.5 52q-98 0 -148.5 -51t-64.5 -137zM272 1114 l43 244h21q18 0 35.5 3t38.5 3q47 0 58 -23.5t5 -54.5q-4 -23 -16.5 -43t-36.5 -31q-10 -4 -4 -12l33 -86h-43l-35 96h-43l-19 -96h-37zM334 1245h63q16 0 25.5 12.5t13.5 28.5q4 18 -3 29.5t-38 11.5q-23 0 -35 -3t-16 -15z" />
<glyph unicode="&#xaf;" d="M426 1165l51 293h582l-51 -293h-582z" />
<glyph unicode="&#xb0;" horiz-adv-x="778" d="M176 1147q27 145 124 228t243 83q145 0 213.5 -83t42.5 -228q-25 -145 -123.5 -228t-243.5 -83t-212.5 82.5t-43.5 228.5zM385 1147q-8 -49 15.5 -76t68.5 -27t79 27t42 76q10 49 -14.5 75.5t-69.5 26.5t-78 -26.5t-43 -75.5z" />
<glyph unicode="&#xb1;" d="M47 152l51 294h983l-51 -294h-983zM150 735l51 295h307q16 0 28.5 10.5t14.5 26.5l37 201h295l-37 -201q-2 -16 6 -26.5t25 -10.5h307l-51 -295h-308q-16 0 -28.5 -10t-14.5 -27l-37 -200h-294l36 200q2 16 -6 26.5t-24 10.5h-307z" />
<glyph unicode="&#xb4;" d="M553 1165l154 293h430l-256 -293h-328z" />
<glyph unicode="&#xb7;" horiz-adv-x="520" d="M96 492l62 348h348l-62 -348h-348z" />
<glyph unicode="&#xb8;" d="M213 -389l94 188q16 -10 48 -19t59 -9q35 0 47 7t14 21q2 18 -13.5 27.5t-34.5 20t-33.5 24.5t-10.5 43q4 20 17.5 44t39.5 42h133l-10 -55q-6 -29 22.5 -43.5t62.5 -31.5t59.5 -48t13.5 -94q-8 -47 -36 -79t-67.5 -51.5t-90 -27.5t-103.5 -8q-70 0 -123 14t-88 35z" />
<glyph unicode="&#xbb;" horiz-adv-x="1064" d="M4 369l240 202q53 43 14 88l-166 203l176 178l340 -370l-18 -109l-471 -371zM444 369l240 202q53 43 14 88l-166 203l177 178l340 -370l-19 -109l-471 -371z" />
<glyph unicode="&#xbf;" horiz-adv-x="1110" d="M-55 -74q14 76 52 132.5t86 97.5t102.5 69.5t99.5 52t76.5 45t35.5 48.5q6 33 -32 45l118 231q45 -8 98.5 -22.5t97.5 -44t67.5 -80.5t9.5 -133q-10 -61 -45 -107.5t-81 -82.5t-97.5 -63.5t-95.5 -51t-73.5 -46t-33.5 -45.5q-6 -37 27.5 -55t123.5 -18q98 0 178 28.5 t154 69.5l98 -303q-106 -68 -234 -110t-306 -42q-236 0 -348.5 90t-77.5 295zM420 692l61 348h348l-61 -348h-348z" />
<glyph unicode="&#xc0;" horiz-adv-x="1390" d="M-102 0l673 1458h555l162 -1458h-401l-23 229h-465l-100 -229h-401zM553 1876h430l51 -293h-327zM555 578h276l-36 403q-4 23 -27 23t-33 -23z" />
<glyph unicode="&#xc1;" horiz-adv-x="1390" d="M-102 0l673 1458h555l162 -1458h-401l-23 229h-465l-100 -229h-401zM555 578h276l-36 403q-4 23 -27 23t-33 -23zM709 1583l153 293h430l-256 -293h-327z" />
<glyph unicode="&#xc2;" horiz-adv-x="1390" d="M-102 0l673 1458h555l162 -1458h-401l-23 229h-465l-100 -229h-401zM440 1583l277 293h409l174 -293h-307l-104 109l-141 -109h-308zM555 578h276l-36 403q-4 23 -27 23t-33 -23z" />
<glyph unicode="&#xc3;" horiz-adv-x="1390" d="M-102 0l673 1458h555l162 -1458h-401l-23 229h-465l-100 -229h-401zM444 1583q25 139 89.5 211t181.5 72q47 0 85 -5.5t69.5 -10.5t61.5 -10t60 -5q61 0 70 41h287q-25 -139 -89.5 -211t-181.5 -72q-47 0 -85 5.5t-70.5 10.5t-62.5 10t-60 5q-61 0 -68 -41h-287zM555 578 h276l-36 403q-4 23 -27 23t-33 -23z" />
<glyph unicode="&#xc4;" horiz-adv-x="1390" d="M-102 0l673 1458h555l162 -1458h-401l-23 229h-465l-100 -229h-401zM461 1528l61 348h348l-61 -348h-348zM555 578h276l-36 403q-4 23 -27 23t-33 -23zM911 1528l62 348h348l-61 -348h-349z" />
<glyph unicode="&#xc5;" horiz-adv-x="1390" d="M-102 0l673 1458h555l162 -1458h-401l-23 229h-465l-100 -229h-401zM555 578h276l-36 403q-4 23 -27 23t-33 -23zM692 1774q8 43 30.5 81.5t56.5 67.5t76 45.5t85 16.5t79 -16.5t59.5 -45.5t33.5 -67.5t2 -81.5t-30.5 -82t-56.5 -68t-76 -45t-85 -16t-78.5 16t-59 45 t-34 68t-2.5 82zM825 1774q-6 -33 12.5 -55.5t51.5 -22.5t59.5 22.5t32.5 55.5t-12.5 55t-50.5 22q-33 0 -60 -22.5t-33 -54.5z" />
<glyph unicode="&#xc7;" horiz-adv-x="1239" d="M77 432q-5 133 23 297q33 182 93.5 325.5t159 242t236.5 150.5t326 52q88 0 157 -14.5t120 -38t89 -51t67 -54.5l-220 -292q-53 45 -114.5 72.5t-161.5 27.5q-74 0 -133.5 -21.5t-105.5 -71.5t-78.5 -130t-53.5 -197q-20 -117 -16 -196.5t32.5 -130t81 -72t126.5 -21.5 q100 0 170.5 28t140.5 73l117 -293q-37 -27 -84.5 -53.5t-104.5 -49t-126.5 -38t-153.5 -17.5l-2 -14q-6 -29 22.5 -43.5t62 -31.5t59 -48t13.5 -94q-8 -47 -35.5 -79t-67.5 -51.5t-90.5 -27.5t-103.5 -8q-70 0 -123 14t-88 35l95 188q16 -10 47.5 -19t58.5 -9q35 0 47 7 t14 21q2 18 -13 27.5t-34.5 20t-34 24.5t-10.5 43q4 12 9.5 26.5t15.5 26.5q-145 18 -237.5 77.5t-139.5 157t-52 230.5z" />
<glyph unicode="&#xc8;" horiz-adv-x="1177" d="M20 0l256 1458h971l-61 -348h-565q-16 0 -27.5 -10t-15.5 -27l-23 -131h561l-61 -348h-561l-37 -209q-4 -16 4 -26.5t24 -10.5h566l-60 -348h-971zM467 1876h430l51 -293h-327z" />
<glyph unicode="&#xc9;" horiz-adv-x="1177" d="M20 0l256 1458h971l-61 -348h-565q-16 0 -27.5 -10t-15.5 -27l-23 -131h561l-61 -348h-561l-37 -209q-4 -16 4 -26.5t24 -10.5h566l-60 -348h-971zM602 1583l154 293h430l-256 -293h-328z" />
<glyph unicode="&#xca;" horiz-adv-x="1177" d="M20 0l256 1458h971l-61 -348h-565q-16 0 -27.5 -10t-15.5 -27l-23 -131h561l-61 -348h-561l-37 -209q-4 -16 4 -26.5t24 -10.5h566l-60 -348h-971zM336 1583l276 293h410l174 -293h-307l-105 109l-141 -109h-307z" />
<glyph unicode="&#xcb;" horiz-adv-x="1177" d="M20 0l256 1458h971l-61 -348h-565q-16 0 -27.5 -10t-15.5 -27l-23 -131h561l-61 -348h-561l-37 -209q-4 -16 4 -26.5t24 -10.5h566l-60 -348h-971zM356 1528l62 348h348l-61 -348h-349zM807 1528l61 348h349l-62 -348h-348z" />
<glyph unicode="&#xcc;" horiz-adv-x="634" d="M31 0l256 1458h368l-256 -1458h-368zM176 1876h430l51 -293h-327z" />
<glyph unicode="&#xcd;" horiz-adv-x="634" d="M31 0l256 1458h368l-256 -1458h-368zM330 1583l153 293h430l-256 -293h-327z" />
<glyph unicode="&#xce;" horiz-adv-x="634" d="M31 0l256 1458h368l-256 -1458h-368zM63 1583l277 293h410l174 -293h-308l-104 109l-141 -109h-308z" />
<glyph unicode="&#xcf;" horiz-adv-x="634" d="M31 0l256 1458h368l-256 -1458h-368zM84 1528l61 348h349l-62 -348h-348zM535 1528l61 348h348l-61 -348h-348z" />
<glyph unicode="&#xd1;" horiz-adv-x="1433" d="M20 0l256 1458h424l230 -710q8 -27 32.5 -23t30.5 33l123 700h348l-256 -1458h-424l-229 711q-4 12 -13.5 18t-19.5 4t-19 -10t-11 -23l-123 -700h-349zM467 1583q25 139 89.5 211t180.5 72q47 0 85 -5.5t70 -10.5t61.5 -10t60.5 -5q61 0 69 41h287q-25 -139 -89 -211 t-181 -72q-47 0 -85 5.5t-71 10.5t-62.5 10t-60.5 5q-61 0 -67 -41h-287z" />
<glyph unicode="&#xd2;" horiz-adv-x="1433" d="M81 397.5q-3 143.5 30 331.5q33 186 86 330.5t142 242t220 147.5t320 50q188 0 300.5 -50t167 -147.5t56.5 -242t-31 -330.5q-33 -188 -86 -331.5t-141 -241t-219 -147.5t-320 -50q-188 0 -302 50t-167 147.5t-56 241zM467 518q-2 -82 19.5 -128t66.5 -63.5t115 -17.5 t120 17.5t87.5 63.5t65.5 128t50 211q23 129 24 211t-20.5 128t-65.5 63.5t-114 17.5t-120 -17.5t-88 -63.5t-65 -128t-50 -211t-25 -211zM575 1876h431l51 -293h-328z" />
<glyph unicode="&#xd3;" horiz-adv-x="1433" d="M81 397.5q-3 143.5 30 331.5q33 186 86 330.5t142 242t220 147.5t320 50q188 0 300.5 -50t167 -147.5t56.5 -242t-31 -330.5q-33 -188 -86 -331.5t-141 -241t-219 -147.5t-320 -50q-188 0 -302 50t-167 147.5t-56 241zM467 518q-2 -82 19.5 -128t66.5 -63.5t115 -17.5 t120 17.5t87.5 63.5t65.5 128t50 211q23 129 24 211t-20.5 128t-65.5 63.5t-114 17.5t-120 -17.5t-88 -63.5t-65 -128t-50 -211t-25 -211zM729 1583l154 293h430l-256 -293h-328z" />
<glyph unicode="&#xd4;" horiz-adv-x="1433" d="M81 397.5q-3 143.5 30 331.5q33 186 86 330.5t142 242t220 147.5t320 50q188 0 300.5 -50t167 -147.5t56.5 -242t-31 -330.5q-33 -188 -86 -331.5t-141 -241t-219 -147.5t-320 -50q-188 0 -302 50t-167 147.5t-56 241zM463 1583l276 293h410l174 -293h-307l-105 109 l-141 -109h-307zM467 518q-2 -82 19.5 -128t66.5 -63.5t115 -17.5t120 17.5t87.5 63.5t65.5 128t50 211q23 129 24 211t-20.5 128t-65.5 63.5t-114 17.5t-120 -17.5t-88 -63.5t-65 -128t-50 -211t-25 -211z" />
<glyph unicode="&#xd5;" horiz-adv-x="1433" d="M81 397.5q-3 143.5 30 331.5q33 186 86 330.5t142 242t220 147.5t320 50q188 0 300.5 -50t167 -147.5t56.5 -242t-31 -330.5q-33 -188 -86 -331.5t-141 -241t-219 -147.5t-320 -50q-188 0 -302 50t-167 147.5t-56 241zM467 518q-2 -82 19.5 -128t66.5 -63.5t115 -17.5 t120 17.5t87.5 63.5t65.5 128t50 211q23 129 24 211t-20.5 128t-65.5 63.5t-114 17.5t-120 -17.5t-88 -63.5t-65 -128t-50 -211t-25 -211zM467 1583q25 139 89.5 211t180.5 72q47 0 85 -5.5t70 -10.5t61.5 -10t60.5 -5q61 0 69 41h287q-25 -139 -89 -211t-181 -72 q-47 0 -85 5.5t-71 10.5t-62.5 10t-60.5 5q-61 0 -67 -41h-287z" />
<glyph unicode="&#xd6;" horiz-adv-x="1433" d="M81 397.5q-3 143.5 30 331.5q33 186 86 330.5t142 242t220 147.5t320 50q188 0 300.5 -50t167 -147.5t56.5 -242t-31 -330.5q-33 -188 -86 -331.5t-141 -241t-219 -147.5t-320 -50q-188 0 -302 50t-167 147.5t-56 241zM467 518q-2 -82 19.5 -128t66.5 -63.5t115 -17.5 t120 17.5t87.5 63.5t65.5 128t50 211q23 129 24 211t-20.5 128t-65.5 63.5t-114 17.5t-120 -17.5t-88 -63.5t-65 -128t-50 -211t-25 -211zM483 1528l62 348h348l-62 -348h-348zM934 1528l61 348h348l-61 -348h-348z" />
<glyph unicode="&#xd7;" d="M104 434l291 248q14 10 17.5 26.5t-6.5 26.5l-213 258l245 209l213 -258q8 -12 23.5 -12t30.5 12l290 248l172 -209l-290 -248q-14 -10 -17.5 -26.5t6.5 -26.5l213 -258l-245 -209l-213 258q-8 12 -23.5 12t-30.5 -12l-291 -248z" />
<glyph unicode="&#xd9;" horiz-adv-x="1392" d="M81.5 168q-18.5 76 0.5 186l194 1104h369l-180 -1026q-4 -27 0 -49.5t24.5 -38.5t58.5 -25.5t99 -9.5t103.5 9.5t68 25.5t38.5 39t17 49l181 1026h368l-256 -1458h-194q-66 0 -112 -6t-95 -14.5t-109.5 -14.5t-152.5 -6q-119 0 -207 20.5t-142.5 66.5t-73 122zM555 1876 h430l51 -293h-327z" />
<glyph unicode="&#xda;" horiz-adv-x="1392" d="M81.5 168q-18.5 76 0.5 186l194 1104h369l-180 -1026q-4 -27 0 -49.5t24.5 -38.5t58.5 -25.5t99 -9.5t103.5 9.5t68 25.5t38.5 39t17 49l181 1026h368l-256 -1458h-194q-66 0 -112 -6t-95 -14.5t-109.5 -14.5t-152.5 -6q-119 0 -207 20.5t-142.5 66.5t-73 122zM688 1583 l154 293h430l-256 -293h-328z" />
<glyph unicode="&#xdb;" horiz-adv-x="1392" d="M81.5 168q-18.5 76 0.5 186l194 1104h369l-180 -1026q-4 -27 0 -49.5t24.5 -38.5t58.5 -25.5t99 -9.5t103.5 9.5t68 25.5t38.5 39t17 49l181 1026h368l-256 -1458h-194q-66 0 -112 -6t-95 -14.5t-109.5 -14.5t-152.5 -6q-119 0 -207 20.5t-142.5 66.5t-73 122zM442 1583 l277 293h409l175 -293h-308l-104 109l-141 -109h-308z" />
<glyph unicode="&#xdc;" horiz-adv-x="1392" d="M81.5 168q-18.5 76 0.5 186l194 1104h369l-180 -1026q-4 -27 0 -49.5t24.5 -38.5t58.5 -25.5t99 -9.5t103.5 9.5t68 25.5t38.5 39t17 49l181 1026h368l-256 -1458h-194q-66 0 -112 -6t-95 -14.5t-109.5 -14.5t-152.5 -6q-119 0 -207 20.5t-142.5 66.5t-73 122zM463 1528 l61 348h348l-61 -348h-348zM913 1528l62 348h348l-61 -348h-349z" />
<glyph unicode="&#xe0;" horiz-adv-x="1251" d="M48.5 239.5q-19.5 108.5 10.5 280.5q31 172 89.5 280.5t134 171t166 86t184.5 23.5q84 0 135 -6t92 -14t85 -14.5t114 -6.5h170l-182 -1040h-170q-70 0 -116 -6t-91 -14.5t-98.5 -14.5t-137.5 -6q-94 0 -176 23.5t-136 86t-73.5 171zM393 1458h430l51 -293h-327z M407 409.5q7 -44.5 26.5 -71.5t49 -38t66.5 -11q86 0 150.5 45t84.5 155l11 62q20 111 -29 156t-135 45q-37 0 -71 -11.5t-63.5 -38t-51 -71.5t-33.5 -111t-5 -110.5z" />
<glyph unicode="&#xe1;" horiz-adv-x="1251" d="M48.5 239.5q-19.5 108.5 10.5 280.5q31 172 89.5 280.5t134 171t166 86t184.5 23.5q84 0 135 -6t92 -14t85 -14.5t114 -6.5h170l-182 -1040h-170q-70 0 -116 -6t-91 -14.5t-98.5 -14.5t-137.5 -6q-94 0 -176 23.5t-136 86t-73.5 171zM407 409.5q7 -44.5 26.5 -71.5 t49 -38t66.5 -11q86 0 150.5 45t84.5 155l11 62q20 111 -29 156t-135 45q-37 0 -71 -11.5t-63.5 -38t-51 -71.5t-33.5 -111t-5 -110.5zM528 1165l154 293h430l-256 -293h-328z" />
<glyph unicode="&#xe2;" horiz-adv-x="1251" d="M48.5 239.5q-19.5 108.5 10.5 280.5q31 172 89.5 280.5t134 171t166 86t184.5 23.5q84 0 135 -6t92 -14t85 -14.5t114 -6.5h170l-182 -1040h-170q-70 0 -116 -6t-91 -14.5t-98.5 -14.5t-137.5 -6q-94 0 -176 23.5t-136 86t-73.5 171zM283 1165l276 293h410l174 -293h-307 l-105 109l-141 -109h-307zM407 409.5q7 -44.5 26.5 -71.5t49 -38t66.5 -11q86 0 150.5 45t84.5 155l11 62q20 111 -29 156t-135 45q-37 0 -71 -11.5t-63.5 -38t-51 -71.5t-33.5 -111t-5 -110.5z" />
<glyph unicode="&#xe3;" horiz-adv-x="1251" d="M48.5 239.5q-19.5 108.5 10.5 280.5q31 172 89.5 280.5t134 171t166 86t184.5 23.5q84 0 135 -6t92 -14t85 -14.5t114 -6.5h170l-182 -1040h-170q-70 0 -116 -6t-91 -14.5t-98.5 -14.5t-137.5 -6q-94 0 -176 23.5t-136 86t-73.5 171zM287 1165q25 139 89 211t181 72 q47 0 85 -5t70.5 -10.5t62.5 -10.5t61 -5q59 0 67 41h287q-25 -139 -89.5 -210.5t-180.5 -71.5q-47 0 -85 5t-71 10t-62.5 10t-60.5 5q-61 0 -68 -41h-286zM407 409.5q7 -44.5 26.5 -71.5t49 -38t66.5 -11q86 0 150.5 45t84.5 155l11 62q20 111 -29 156t-135 45 q-37 0 -71 -11.5t-63.5 -38t-51 -71.5t-33.5 -111t-5 -110.5z" />
<glyph unicode="&#xe4;" horiz-adv-x="1251" d="M48.5 239.5q-19.5 108.5 10.5 280.5q31 172 89.5 280.5t134 171t166 86t184.5 23.5q84 0 135 -6t92 -14t85 -14.5t114 -6.5h170l-182 -1040h-170q-70 0 -116 -6t-91 -14.5t-98.5 -14.5t-137.5 -6q-94 0 -176 23.5t-136 86t-73.5 171zM303 1110l62 348h348l-62 -348h-348z M407 409.5q7 -44.5 26.5 -71.5t49 -38t66.5 -11q86 0 150.5 45t84.5 155l11 62q20 111 -29 156t-135 45q-37 0 -71 -11.5t-63.5 -38t-51 -71.5t-33.5 -111t-5 -110.5zM754 1110l61 348h348l-61 -348h-348z" />
<glyph unicode="&#xe5;" horiz-adv-x="1251" d="M48.5 239.5q-19.5 108.5 10.5 280.5q31 172 89.5 280.5t134 171t166 86t184.5 23.5q84 0 135 -6t92 -14t85 -14.5t114 -6.5h170l-182 -1040h-170q-70 0 -116 -6t-91 -14.5t-98.5 -14.5t-137.5 -6q-94 0 -176 23.5t-136 86t-73.5 171zM407 409.5q7 -44.5 26.5 -71.5 t49 -38t66.5 -11q86 0 150.5 45t84.5 155l11 62q20 111 -29 156t-135 45q-37 0 -71 -11.5t-63.5 -38t-51 -71.5t-33.5 -111t-5 -110.5zM535 1356q8 43 30.5 82t56 67.5t75.5 45t85 16.5t79 -16.5t59.5 -45t34 -67.5t1.5 -82q-8 -43 -30.5 -82t-56 -67.5t-75.5 -45t-85 -16.5 t-79 16.5t-59.5 45t-33.5 67.5t-2 82zM668 1356q-4 -33 14 -55.5t51 -22.5t59.5 22.5t30.5 55.5q6 33 -12 55.5t-51 22.5t-59.5 -22.5t-32.5 -55.5z" />
<glyph unicode="&#xe7;" horiz-adv-x="1064" d="M61 520q49 272 192.5 416.5t408.5 144.5q86 0 148 -10t109.5 -28.5t83 -43t66.5 -55.5l-192 -276q-53 47 -104.5 65.5t-125.5 18.5q-109 0 -160 -55.5t-73 -176.5q-20 -121 11.5 -176t139.5 -55q74 0 131.5 18.5t128.5 65.5l95 -277q-78 -55 -169.5 -92t-236.5 -43 l-2 -16q-6 -29 22.5 -43.5t62.5 -31.5t59.5 -48t13.5 -94q-8 -47 -36 -79t-68 -51.5t-90 -27.5t-103 -8q-70 0 -123 14t-88 35l94 188q16 -10 48 -19t58 -9q35 0 47.5 7t14.5 21q2 18 -13.5 27.5t-35 20t-33.5 24.5t-10 43q4 12 9 25.5t15 27.5q-203 29 -270.5 168 t-24.5 385z" />
<glyph unicode="&#xe8;" horiz-adv-x="1091" d="M27.5 296q-13.5 103 9.5 224q20 121 63 224.5t116 178t181.5 116.5t261.5 42q121 0 201 -40t124 -107.5t55.5 -156.5t-7.5 -185q-4 -18 -14 -48t-35 -59.5t-64.5 -51t-101.5 -21.5h-405q-33 0 -39 -31q-10 -53 35 -93t149 -40q84 0 157.5 24.5t141.5 71.5l98 -240 q-88 -72 -197.5 -108.5t-260.5 -36.5q-150 0 -248 42t-152.5 117t-68 178zM330 1458h430l51 -293h-328zM422 664q-6 -31 27 -31h227q33 0 39 31q10 59 -19.5 94t-99.5 35q-72 0 -118 -36t-56 -93z" />
<glyph unicode="&#xe9;" horiz-adv-x="1091" d="M27.5 296q-13.5 103 9.5 224q20 121 63 224.5t116 178t181.5 116.5t261.5 42q121 0 201 -40t124 -107.5t55.5 -156.5t-7.5 -185q-4 -18 -14 -48t-35 -59.5t-64.5 -51t-101.5 -21.5h-405q-33 0 -39 -31q-10 -53 35 -93t149 -40q84 0 157.5 24.5t141.5 71.5l98 -240 q-88 -72 -197.5 -108.5t-260.5 -36.5q-150 0 -248 42t-152.5 117t-68 178zM422 664q-6 -31 27 -31h227q33 0 39 31q10 59 -19.5 94t-99.5 35q-72 0 -118 -36t-56 -93zM485 1165l154 293h430l-256 -293h-328z" />
<glyph unicode="&#xea;" horiz-adv-x="1091" d="M27.5 296q-13.5 103 9.5 224q20 121 63 224.5t116 178t181.5 116.5t261.5 42q121 0 201 -40t124 -107.5t55.5 -156.5t-7.5 -185q-4 -18 -14 -48t-35 -59.5t-64.5 -51t-101.5 -21.5h-405q-33 0 -39 -31q-10 -53 35 -93t149 -40q84 0 157.5 24.5t141.5 71.5l98 -240 q-88 -72 -197.5 -108.5t-260.5 -36.5q-150 0 -248 42t-152.5 117t-68 178zM219 1165l277 293h409l174 -293h-307l-104 109l-142 -109h-307zM422 664q-6 -31 27 -31h227q33 0 39 31q10 59 -19.5 94t-99.5 35q-72 0 -118 -36t-56 -93z" />
<glyph unicode="&#xeb;" horiz-adv-x="1091" d="M27.5 296q-13.5 103 9.5 224q20 121 63 224.5t116 178t181.5 116.5t261.5 42q121 0 201 -40t124 -107.5t55.5 -156.5t-7.5 -185q-4 -18 -14 -48t-35 -59.5t-64.5 -51t-101.5 -21.5h-405q-33 0 -39 -31q-10 -53 35 -93t149 -40q84 0 157.5 24.5t141.5 71.5l98 -240 q-88 -72 -197.5 -108.5t-260.5 -36.5q-150 0 -248 42t-152.5 117t-68 178zM240 1110l61 348h348l-61 -348h-348zM422 664q-6 -31 27 -31h227q33 0 39 31q10 59 -19.5 94t-99.5 35q-72 0 -118 -36t-56 -93zM690 1110l62 348h348l-62 -348h-348z" />
<glyph unicode="&#xec;" horiz-adv-x="573" d="M10 0l183 1040h348l-183 -1040h-348zM72 1458h430l51 -293h-328z" />
<glyph unicode="&#xed;" horiz-adv-x="573" d="M10 0l183 1040h348l-183 -1040h-348zM225 1165l154 293h430l-256 -293h-328z" />
<glyph unicode="&#xee;" horiz-adv-x="573" d="M-41 1165l277 293h409l174 -293h-307l-104 109l-142 -109h-307zM10 0l183 1040h348l-183 -1040h-348z" />
<glyph unicode="&#xef;" horiz-adv-x="573" d="M-20 1110l61 348h348l-61 -348h-348zM10 0l183 1040h348l-183 -1040h-348zM430 1110l62 348h348l-62 -348h-348z" />
<glyph unicode="&#xf1;" horiz-adv-x="1234" d="M0 0l182 1040h170q70 0 121 6.5t101.5 14.5t108.5 14t142 6q188 0 285.5 -77.5t71.5 -227.5l-135 -776h-349l107 604q10 63 -13.5 103.5t-111.5 40.5q-43 0 -81 -7.5t-68.5 -29t-53 -59.5t-33.5 -101l-96 -551h-348zM293 1165q25 139 89 211t181 72q47 0 85 -5t71 -10.5 t62.5 -10.5t60.5 -5q59 0 67 41h287q-25 -139 -89.5 -210.5t-180.5 -71.5q-47 0 -85 5t-71 10t-62.5 10t-60.5 5q-61 0 -67 -41h-287z" />
<glyph unicode="&#xf2;" horiz-adv-x="1187" d="M46.5 284.5q-8.5 104.5 14.5 235.5t69 235.5t120 176.5t180.5 110.5t251.5 38.5t237.5 -38.5t140.5 -110.5t56 -176.5t-14 -235.5q-23 -131 -68 -235.5t-118.5 -176t-180 -110.5t-252.5 -39q-145 0 -237 39t-141.5 110.5t-58 176zM379 1458h430l51 -293h-328zM414 520 q-23 -133 10 -182t117 -49t135 49t74 182t-10 182.5t-117 49.5t-135.5 -49.5t-73.5 -182.5z" />
<glyph unicode="&#xf3;" horiz-adv-x="1187" d="M46.5 284.5q-8.5 104.5 14.5 235.5t69 235.5t120 176.5t180.5 110.5t251.5 38.5t237.5 -38.5t140.5 -110.5t56 -176.5t-14 -235.5q-23 -131 -68 -235.5t-118.5 -176t-180 -110.5t-252.5 -39q-145 0 -237 39t-141.5 110.5t-58 176zM414 520q-23 -133 10 -182t117 -49 t135 49t74 182t-10 182.5t-117 49.5t-135.5 -49.5t-73.5 -182.5zM532 1165l154 293h430l-256 -293h-328z" />
<glyph unicode="&#xf4;" horiz-adv-x="1187" d="M46.5 284.5q-8.5 104.5 14.5 235.5t69 235.5t120 176.5t180.5 110.5t251.5 38.5t237.5 -38.5t140.5 -110.5t56 -176.5t-14 -235.5q-23 -131 -68 -235.5t-118.5 -176t-180 -110.5t-252.5 -39q-145 0 -237 39t-141.5 110.5t-58 176zM266 1165l277 293h409l174 -293h-307 l-104 109l-142 -109h-307zM414 520q-23 -133 10 -182t117 -49t135 49t74 182t-10 182.5t-117 49.5t-135.5 -49.5t-73.5 -182.5z" />
<glyph unicode="&#xf5;" horiz-adv-x="1187" d="M46.5 284.5q-8.5 104.5 14.5 235.5t69 235.5t120 176.5t180.5 110.5t251.5 38.5t237.5 -38.5t140.5 -110.5t56 -176.5t-14 -235.5q-23 -131 -68 -235.5t-118.5 -176t-180 -110.5t-252.5 -39q-145 0 -237 39t-141.5 110.5t-58 176zM270 1165q25 139 89.5 211t181.5 72 q47 0 85 -5t70.5 -10.5t62 -10.5t60.5 -5q59 0 68 41h287q-25 -139 -89.5 -210.5t-181.5 -71.5q-47 0 -85 5t-70.5 10t-62.5 10t-60 5q-61 0 -68 -41h-287zM414 520q-23 -133 10 -182t117 -49t135 49t74 182t-10 182.5t-117 49.5t-135.5 -49.5t-73.5 -182.5z" />
<glyph unicode="&#xf6;" horiz-adv-x="1187" d="M46.5 284.5q-8.5 104.5 14.5 235.5t69 235.5t120 176.5t180.5 110.5t251.5 38.5t237.5 -38.5t140.5 -110.5t56 -176.5t-14 -235.5q-23 -131 -68 -235.5t-118.5 -176t-180 -110.5t-252.5 -39q-145 0 -237 39t-141.5 110.5t-58 176zM287 1110l61 348h348l-61 -348h-348z M414 520q-23 -133 10 -182t117 -49t135 49t74 182t-10 182.5t-117 49.5t-135.5 -49.5t-73.5 -182.5zM737 1110l62 348h348l-62 -348h-348z" />
<glyph unicode="&#xf7;" d="M119 563l51 293h983l-51 -293h-983zM358 119l62 348h348l-61 -348h-349zM504 950l61 348h348l-61 -348h-348z" />
<glyph unicode="&#xf9;" horiz-adv-x="1234" d="M29 264l137 776h348l-106 -604q-10 -63 13 -103t111 -40q43 0 81 7t69 28.5t52.5 59.5t33.5 101l96 551h348l-182 -1040h-170q-70 0 -121 -6t-101 -14.5t-108.5 -14.5t-142.5 -6q-190 0 -287.5 77t-70.5 228zM401 1458h430l52 -293h-328z" />
<glyph unicode="&#xfa;" horiz-adv-x="1234" d="M29 264l137 776h348l-106 -604q-10 -63 13 -103t111 -40q43 0 81 7t69 28.5t52.5 59.5t33.5 101l96 551h348l-182 -1040h-170q-70 0 -121 -6t-101 -14.5t-108.5 -14.5t-142.5 -6q-190 0 -287.5 77t-70.5 228zM537 1165l153 293h430l-256 -293h-327z" />
<glyph unicode="&#xfb;" horiz-adv-x="1234" d="M29 264l137 776h348l-106 -604q-10 -63 13 -103t111 -40q43 0 81 7t69 28.5t52.5 59.5t33.5 101l96 551h348l-182 -1040h-170q-70 0 -121 -6t-101 -14.5t-108.5 -14.5t-142.5 -6q-190 0 -287.5 77t-70.5 228zM268 1165l277 293h409l174 -293h-307l-104 109l-142 -109 h-307z" />
<glyph unicode="&#xfc;" horiz-adv-x="1234" d="M29 264l137 776h348l-106 -604q-10 -63 13 -103t111 -40q43 0 81 7t69 28.5t52.5 59.5t33.5 101l96 551h348l-182 -1040h-170q-70 0 -121 -6t-101 -14.5t-108.5 -14.5t-142.5 -6q-190 0 -287.5 77t-70.5 228zM289 1110l61 348h348l-61 -348h-348zM739 1110l62 348h348 l-62 -348h-348z" />
<glyph unicode="&#x2c6;" d="M287 1165l276 293h410l174 -293h-307l-105 109l-141 -109h-307z" />
<glyph unicode="&#x2dc;" d="M291 1165q25 139 89 211t181 72q47 0 85 -5t71 -10.5t62.5 -10.5t60.5 -5q59 0 67 41h287q-25 -139 -89.5 -210.5t-180.5 -71.5q-47 0 -85 5t-71 10t-62.5 10t-60.5 5q-61 0 -67 -41h-287z" />
<glyph unicode="&#x2000;" horiz-adv-x="992" />
<glyph unicode="&#x2001;" horiz-adv-x="1985" />
<glyph unicode="&#x2002;" horiz-adv-x="992" />
<glyph unicode="&#x2003;" horiz-adv-x="1985" />
<glyph unicode="&#x2004;" horiz-adv-x="661" />
<glyph unicode="&#x2005;" horiz-adv-x="496" />
<glyph unicode="&#x2006;" horiz-adv-x="330" />
<glyph unicode="&#x2007;" horiz-adv-x="330" />
<glyph unicode="&#x2008;" horiz-adv-x="248" />
<glyph unicode="&#x2009;" horiz-adv-x="397" />
<glyph unicode="&#x200a;" horiz-adv-x="110" />
<glyph unicode="&#x2010;" horiz-adv-x="778" d="M86 518l51 293h582l-51 -293h-582z" />
<glyph unicode="&#x2011;" horiz-adv-x="778" d="M86 518l51 293h582l-51 -293h-582z" />
<glyph unicode="&#x2012;" horiz-adv-x="778" d="M86 518l51 293h582l-51 -293h-582z" />
<glyph unicode="&#x2013;" horiz-adv-x="1024" d="M86 518l51 293h828l-52 -293h-827z" />
<glyph unicode="&#x2014;" horiz-adv-x="2048" d="M86 518l51 293h1852l-52 -293h-1851z" />
<glyph unicode="&#x2018;" horiz-adv-x="491" d="M121 862l31 174q31 178 102.5 290t177.5 196l129 -64q-20 -18 -50 -47t-57.5 -62.5t-48 -70.5t-26.5 -68h151l-61 -348h-348z" />
<glyph unicode="&#x2019;" horiz-adv-x="491" d="M133 862q20 18 49 47t56.5 63t49 70.5t27.5 67.5h-151l61 348h348l-30 -174q-31 -178 -102.5 -289.5t-178.5 -195.5z" />
<glyph unicode="&#x201a;" horiz-adv-x="491" d="M-63 -248q20 18 49.5 47t57.5 63t49.5 70.5t27.5 67.5h-152l60 348h348l-31 -174q-31 -178 -102.5 -289.5t-175.5 -195.5z" />
<glyph unicode="&#x201c;" horiz-adv-x="942" d="M121 862l31 174q31 178 102.5 290t177.5 196l129 -64q-20 -18 -50 -47t-57.5 -62.5t-48 -70.5t-26.5 -68h151l-61 -348h-348zM571 862l31 174q31 178 102.5 290t178.5 196l129 -64q-20 -18 -50 -47t-57.5 -62.5t-48 -70.5t-27.5 -68h152l-61 -348h-349z" />
<glyph unicode="&#x201d;" horiz-adv-x="942" d="M133 862q20 18 49 47t56.5 63t49 70.5t27.5 67.5h-151l61 348h348l-30 -174q-31 -178 -102.5 -289.5t-178.5 -195.5zM584 862q20 18 49 47t56.5 63t49 70.5t27.5 67.5h-152l62 348h348l-31 -174q-31 -178 -102.5 -289.5t-177.5 -195.5z" />
<glyph unicode="&#x201e;" horiz-adv-x="942" d="M-63 -248q20 18 49.5 47t57.5 63t49.5 70.5t27.5 67.5h-152l60 348h348l-31 -174q-31 -178 -102.5 -289.5t-175.5 -195.5zM387 -248q20 18 50 47t57.5 63t49 70.5t27.5 67.5h-151l59 348h348l-30 -174q-31 -178 -102.5 -289.5t-176.5 -195.5z" />
<glyph unicode="&#x2022;" horiz-adv-x="614" d="M74 510l78 438h438l-78 -438h-438z" />
<glyph unicode="&#x2026;" horiz-adv-x="2048" d="M92 0l60 348h348l-60 -348h-348zM748 0l59 348h348l-59 -348h-348zM1403 0l59 348h348l-59 -348h-348z" />
<glyph unicode="&#x202f;" horiz-adv-x="397" />
<glyph unicode="&#x2039;" horiz-adv-x="624" d="M27 561l18 109l471 370l115 -178l-240 -203q-53 -43 -14 -88l166 -202l-176 -179z" />
<glyph unicode="&#x203a;" horiz-adv-x="624" d="M4 369l240 202q53 43 14 88l-166 203l176 178l340 -370l-18 -109l-471 -371z" />
<glyph unicode="&#x205f;" horiz-adv-x="496" />
<glyph unicode="&#x20ac;" d="M27 453l39 217h98l14 78h-98l39 217h114q47 141 113 236t151 152.5t190.5 81t232.5 23.5q82 0 143 -11t108.5 -30.5t82 -44t63.5 -51.5l-219 -293q-47 41 -96.5 60.5t-124.5 19.5q-94 0 -154.5 -28.5t-99.5 -114.5h378l-102 -217h-340l-14 -78h317l-102 -217h-230 q10 -88 60.5 -116t144.5 -28q76 0 131.5 19.5t118.5 60.5l117 -293q-39 -27 -82 -51.5t-97.5 -43.5t-120 -30.5t-147.5 -11.5q-127 0 -224 23.5t-161.5 81t-97.5 152.5t-31 237h-114z" />
<glyph unicode="&#x2122;" horiz-adv-x="1222" d="M186 1403l11 55h274l-10 -55h-90q-16 0 -21 -19l-53 -303h-57l53 303q4 18 -17 19h-90zM457 1081l65 377h74l41 -192q4 -12 13 -12.5t16 12.5l110 192h74l-66 -377h-57l45 258q0 4 -3 4t-5 -4l-96 -178h-70l-31 178q-2 4 -5 4t-3 -4l-45 -258h-57z" />
<glyph unicode="&#x25fc;" horiz-adv-x="1044" d="M0 0v1044h1044v-1044h-1044z" />
</font>
</defs>
</svg>
