<?xml version="1.0" standalone="no"?>
<!DOCTYPE svg PUBLIC "-//W3C//DTD SVG 1.1//EN" "http://www.w3.org/Graphics/SVG/1.1/DTD/svg11.dtd" >
<svg xmlns="http://www.w3.org/2000/svg" xmlns:xlink="http://www.w3.org/1999/xlink" version="1.1">
<metadata></metadata>
<defs>
<font id="syfymedium" horiz-adv-x="1228" >
<font-face units-per-em="2048" ascent="1638" descent="-410" />
<missing-glyph horiz-adv-x="520" />
<glyph unicode="&#xfb01;" horiz-adv-x="1257" d="M74 836v204h86q18 0 31.5 13.5t13.5 31.5v86q0 88 25.5 143.5t69.5 87.5t100.5 44t117.5 12h148v-205h-154q-102 0 -102 -106v-62q0 -18 13 -31.5t32 -13.5h200v-204h-200q-18 0 -31.5 -13.5t-13.5 -31.5v-791h-205v791q0 18 -13.5 31.5t-31.5 13.5h-86zM885 1233v225 h225v-225h-225zM895 0v1040h205v-1040h-205z" />
<glyph unicode="&#xfb02;" horiz-adv-x="1298" d="M74 836v204h86q18 0 31.5 13.5t13.5 31.5v86q0 88 25.5 143.5t69.5 87.5t100.5 44t117.5 12h148v-205h-154q-102 0 -102 -106v-62q0 -18 13 -31.5t32 -13.5h200v-204h-200q-18 0 -31.5 -13.5t-13.5 -31.5v-791h-205v791q0 18 -13.5 31.5t-31.5 13.5h-86zM895 229v1229 h205v-1188q0 -86 82 -86h41v-204h-68q-49 0 -96 13t-83 41.5t-58.5 77t-22.5 117.5z" />
<glyph horiz-adv-x="0" />
<glyph unicode="&#xd;" horiz-adv-x="520" />
<glyph unicode=" "  horiz-adv-x="520" />
<glyph unicode="&#x09;" horiz-adv-x="520" />
<glyph unicode="&#xa0;" horiz-adv-x="520" />
<glyph unicode="!" horiz-adv-x="520" d="M125 1458h270l-28 -534l-45 -506h-123l-45 506zM147 0v225h226v-225h-226z" />
<glyph unicode="&#x22;" horiz-adv-x="847" d="M143 1458h234l-47 -512h-140zM471 1458h234l-48 -512h-139z" />
<glyph unicode="#" d="M47 377v135h240l55 393h-233v135h253l54 377h159l-53 -377h281l53 377h160l-53 -377h221v-135h-242l-55 -393h235v-135h-254l-53 -377h-160l54 377h-281l-53 -377h-160l53 377h-221zM446 512h281l55 393h-280z" />
<glyph unicode="$" d="M129 217l92 197q80 -55 180 -86l99 338q-68 16 -124.5 39.5t-96 58.5t-61 85t-21.5 120q0 170 117.5 267t324.5 97h29.5t27.5 -2l68 230h160l-74 -250q63 -14 115.5 -37t101.5 -51l-94 -185q-37 23 -84 39.5t-101 26.5l-81 -279q76 -18 144.5 -41.5t120.5 -61.5 t81.5 -95.5t29.5 -139.5q0 -182 -119.5 -292.5t-369.5 -110.5h-52.5t-52.5 4l-55 -190h-160l66 221q-63 16 -117.5 40.5t-93.5 57.5zM410 989q0 -53 28.5 -80.5t118.5 -50.5l78 262h-4q-106 0 -163.5 -32.5t-57.5 -98.5zM551 299q10 -2 22.5 -2h22.5q123 0 197.5 40 t74.5 138q0 37 -12 60.5t-37.5 41t-67.5 29.5t-102 25z" />
<glyph unicode="%" horiz-adv-x="1638" d="M76 1087q0 197 76.5 284t236.5 87t236.5 -87t76.5 -284t-76.5 -283.5t-236.5 -86.5t-236.5 87t-76.5 283zM248 1087q0 -111 33.5 -157.5t107.5 -46.5t107.5 46.5t33.5 157.5t-33.5 158t-107.5 47t-107.5 -47t-33.5 -158zM272 0l906 1417h188l-905 -1417h-189zM936 330 q0 197 77 283.5t236 86.5q160 0 237 -87t77 -283q0 -197 -77 -284t-237 -87t-236.5 87t-76.5 284zM1108 330q0 -111 34 -158t107 -47q74 0 108 47t34 158t-34 158t-108 47t-107.5 -47t-33.5 -158z" />
<glyph unicode="&#x26;" horiz-adv-x="1343" d="M92 344q0 68 17.5 126t45 106.5t61.5 86t67 66.5q45 39 14 86q-25 41 -46.5 76t-38.5 70.5t-26.5 75.5t-9.5 93q0 18 3 53.5t14.5 76t35 82.5t65.5 77t105.5 57.5t155.5 22.5q86 0 151.5 -25.5t108.5 -70.5t64.5 -106.5t21.5 -131.5q0 -49 -10 -93t-33.5 -87t-63.5 -89 t-100 -99q-23 -18 -19.5 -41t19.5 -39l283 -303q35 66 51 142.5t16 160.5h224q0 -143 -38 -261t-102 -208l129 -133l-163 -156l-115 125q-88 -63 -193.5 -94t-216.5 -31q-100 0 -187 25.5t-151.5 75t-101.5 121t-37 163.5zM315 354q0 -84 69 -133t196 -49q74 0 134 20.5 t111 57.5l-319 344q-14 14 -39 4q-16 -6 -42 -27.5t-50.5 -53.5t-42 -74t-17.5 -89zM401 1145q0 -57 25 -110.5t80 -119.5q49 43 80.5 75t49 59.5t24 53t6.5 56.5q0 20 -6.5 44t-21.5 44.5t-40 32.5t-59 12q-47 0 -74 -15t-41 -37.5t-18.5 -48.5t-4.5 -46z" />
<glyph unicode="'" horiz-adv-x="520" d="M143 1458h234l-47 -512h-140z" />
<glyph unicode="(" horiz-adv-x="614" d="M123 614q0 125 14.5 252t43 247t73.5 227.5t104 195.5h230q-61 -82 -106.5 -186.5t-75 -224t-44 -250t-14.5 -261.5q0 -133 14.5 -262t44 -248.5t74.5 -224t107 -186.5h-230q-59 88 -104 195.5t-73.5 227.5t-43 245.5t-14.5 252.5z" />
<glyph unicode=")" horiz-adv-x="614" d="M27 -307q61 82 106 186.5t75 224t44 248.5t14 262q0 131 -14 261.5t-44 250t-75 224t-106 186.5h229q59 -88 103 -195.5t74 -227.5t44.5 -247t14.5 -252q0 -127 -14.5 -252.5t-44.5 -245.5t-74 -227.5t-103 -195.5h-229z" />
<glyph unicode="*" horiz-adv-x="860" d="M49 1126l25 70l22 72l260 -86v276h148v-276l260 86l22 -72l25 -70l-260 -86l160 -219l-60 -43l-59 -45l-162 223l-162 -223l-59 45l-59 43l159 219z" />
<glyph unicode="+" d="M143 606v205h295q31 0 52.5 21.5t21.5 52.5v295h205v-295q0 -31 21.5 -52.5t52.5 -21.5h294v-205h-294q-31 0 -52.5 -21.5t-21.5 -52.5v-294h-205v294q0 31 -21.5 52.5t-52.5 21.5h-295z" />
<glyph unicode="," horiz-adv-x="520" d="M147 0v225h226v-112q0 -78 -24.5 -174.5t-100.5 -182.5l-72 31q53 70 68.5 126t15.5 87h-113z" />
<glyph unicode="-" horiz-adv-x="737" d="M98 571v189h541v-189h-541z" />
<glyph unicode="." horiz-adv-x="520" d="M147 0v225h226v-225h-226z" />
<glyph unicode="/" horiz-adv-x="819" d="M41 -205l553 1766h184l-553 -1766h-184z" />
<glyph unicode="0" d="M117 709q0 199 24.5 340t82 232t152.5 134t238 43t238.5 -43t153 -134t82 -232.5t24.5 -339.5q0 -199 -24.5 -340.5t-82 -232.5t-152.5 -134t-239 -43q-143 0 -238 43t-152.5 134t-82 232.5t-24.5 340.5zM342 709q0 -158 10 -262.5t40 -166t83 -86t139 -24.5t139.5 24.5 t83 86t40 166t10.5 262.5t-10.5 262t-40 165.5t-83 86t-139.5 24.5t-139 -24.5t-83 -86t-40 -166t-10 -261.5z" />
<glyph unicode="1" d="M190 0v211h338v917q0 18 -13 32t-32 14h-293v159q47 6 104.5 14.5t114 21.5t107.5 34.5t88 54.5h139v-1247h338v-211h-891z" />
<glyph unicode="2" d="M137 1325q39 27 83 51.5t97.5 43t119 28.5t147.5 10q102 0 188 -23.5t147.5 -70.5t96.5 -120t35 -173q0 -68 -13.5 -118t-38 -89t-59.5 -71.5t-78 -67.5l-368 -287q-53 -43 -77 -78.5t-24 -99.5q0 -27 13.5 -38t29.5 -11h635v-211h-913v174q0 74 6 130t22.5 101.5t45 83 t75.5 72.5l391 299q41 31 67 56.5t39 49t18 48t5 55.5q0 86 -62.5 132t-180.5 46q-96 0 -182.5 -20.5t-180.5 -81.5z" />
<glyph unicode="3" d="M106 88l84 184q94 -61 192.5 -81.5t174.5 -20.5q70 0 127 14.5t98 45t63.5 77.5t22.5 113q0 41 -12 79t-37.5 67.5t-64.5 47t-90 17.5h-304v211h263q102 0 153 60.5t51 144.5q0 100 -62.5 150t-180.5 50q-96 0 -182.5 -20.5t-180.5 -81.5l-84 180q39 27 83 51.5t97.5 43 t119 28.5t147.5 10q102 0 188 -22.5t147.5 -70.5t96.5 -123t35 -181q0 -90 -22.5 -150.5t-70.5 -109.5q-18 -20 -33.5 -29.5t-15.5 -26.5q0 -16 16.5 -25t37.5 -26q55 -41 91 -112.5t36 -167.5q0 -123 -41 -209t-113 -141.5t-169 -80t-210 -24.5q-145 0 -258 37t-193 92z " />
<glyph unicode="4" d="M96 338v119q0 66 10.5 112.5t28.5 89.5l332 758h223l-330 -751q-10 -20 -15 -37t-5 -39q0 -16 9 -28.5t34 -12.5h338v491h207v-491h205v-211h-205v-338h-205l-2 338h-625z" />
<glyph unicode="5" d="M125 88l84 184q94 -61 194.5 -81.5t176.5 -20.5q70 0 128 14.5t101 45t66.5 77.5t23.5 113q0 111 -55.5 169t-208.5 58h-432v770h868v-209h-610q-14 0 -26.5 -9t-12.5 -32v-315h248q442 0 442 -434q0 -125 -41 -212t-112.5 -142.5t-169 -80t-209.5 -24.5q-145 0 -260 37 t-195 92z" />
<glyph unicode="6" d="M105 725.5q-1 91.5 10.5 190t39 195.5t84 174t147.5 125t228 48q104 0 179 -20.5t127 -42.5q59 -29 100 -64l-84 -182q-41 25 -75 43t-69.5 30.5t-77.5 18.5t-100 6q-88 0 -141 -35.5t-82 -86t-38 -102.5t-9 -83q0 -10 9 -18.5t24 0.5q29 16 92 28.5t145 12.5 q229 0 347 -128t118 -366q0 -117 -28.5 -211t-86 -160.5t-144.5 -102.5t-206 -36q-125 0 -220 35t-158.5 108.5t-96.5 189.5t-33 279q0 63 -1 154.5zM330 471q0 -299 274 -299q145 0 203.5 72.5t58.5 224.5q0 141 -57 212t-207 71q-152 0 -212 -70t-60 -211z" />
<glyph unicode="7" d="M168 1206v211h924v-119q0 -66 -10.5 -112.5t-28.5 -89.5l-484 -1096h-223l481 1090q10 20 15.5 36.5t5.5 38.5q0 16 -9.5 28.5t-33.5 12.5h-637z" />
<glyph unicode="8" d="M121 393q0 113 42 186.5t93 125.5q12 12 20.5 21t8.5 24q0 12 -4.5 24t-20.5 29q-29 33 -60.5 96.5t-31.5 157.5q0 92 25.5 165.5t80 126t138.5 81t202 28.5q236 0 341.5 -108.5t105.5 -292.5q0 -94 -32 -157.5t-60 -96.5q-16 -16 -20.5 -28.5t-4.5 -24.5 q0 -14 8.5 -23.5t20.5 -21.5q51 -51 93 -125t42 -187q0 -211 -123 -322.5t-371 -111.5t-370.5 111.5t-122.5 322.5zM346 393q0 -43 13.5 -84t44 -71.5t82 -49t128.5 -18.5q76 0 128.5 18.5t83 49t44 71.5t13.5 84q0 131 -72 188.5t-197 57.5t-196.5 -57.5t-71.5 -188.5z M369 1042q0 -109 68.5 -162t176.5 -53q109 0 177.5 53.5t68.5 161.5q0 104 -59.5 154.5t-186.5 50.5t-186 -50t-59 -155z" />
<glyph unicode="9" d="M137 948q0 117 29 211t86 160.5t144 102.5t206 36q125 0 220.5 -34.5t158.5 -108.5t96 -189.5t33 -279.5q0 -63 1 -154.5t-10 -190t-39 -195.5t-84 -174t-147.5 -125t-228.5 -48q-104 0 -179 19.5t-126 44.5q-59 27 -100 63l84 182q39 -25 73.5 -43t70.5 -30.5t78 -18.5 t99 -6q88 0 141.5 36t82 86t37.5 102t9 83q0 10 -9 18.5t-23 0.5q-29 -16 -92.5 -28.5t-145.5 -12.5q-229 0 -347 127.5t-118 365.5zM350 948q0 -141 57.5 -211.5t206.5 -70.5q152 0 212.5 69.5t60.5 210.5q0 299 -275 299q-145 0 -203.5 -72.5t-58.5 -224.5z" />
<glyph unicode=":" horiz-adv-x="520" d="M147 0v225h226v-225h-226zM147 676v225h226v-225h-226z" />
<glyph unicode=";" horiz-adv-x="520" d="M147 0v225h226v-112q0 -78 -24.5 -174.5t-100.5 -182.5l-72 31q53 70 68.5 126t15.5 87h-113zM147 676v225h226v-225h-226z" />
<glyph unicode="&#x3c;" d="M123 606v205l942 430v-225l-612 -264q-14 -6 -21.5 -15.5t-7.5 -27.5t7 -27.5t22 -15.5l612 -265v-225z" />
<glyph unicode="=" d="M143 401v205h942v-205h-942zM143 811v205h942v-205h-942z" />
<glyph unicode="&#x3e;" d="M164 176v225l612 265q14 6 21.5 15.5t7.5 27.5t-7 27t-22 16l-612 264v225l942 -430v-205z" />
<glyph unicode="?" horiz-adv-x="925" d="M63 1393q94 59 182.5 82.5t194.5 23.5q90 0 166 -22.5t130.5 -68.5t85 -113.5t30.5 -157.5q0 -78 -28.5 -134.5t-71.5 -100.5t-92.5 -77.5t-92.5 -63.5t-71.5 -59.5t-28.5 -64.5q0 -41 22.5 -62.5t67.5 -35.5l-59 -162q-55 10 -102.5 30.5t-83.5 53.5t-55 81t-19 113 q0 68 28.5 116t72.5 86t94 66.5t94 60.5t73 67.5t29 85.5q0 86 -50.5 116.5t-142.5 30.5q-68 0 -131 -17.5t-143 -64.5zM311 0v225h226v-225h-226z" />
<glyph unicode="@" horiz-adv-x="1904" d="M63 471q0 229 62.5 412.5t183.5 310.5t299 195.5t410 68.5q217 0 373.5 -57.5t256 -160.5t146.5 -245.5t47 -312.5q0 -162 -44 -278.5t-113.5 -191.5t-153.5 -109.5t-164 -34.5q-88 0 -138 22.5t-79 50.5q-63 -47 -149.5 -70.5t-184.5 -23.5q-80 0 -147.5 24.5t-116.5 75 t-77 126t-28 176.5q0 276 131.5 410t374.5 134q53 0 94 -8t77 -17.5t71 -16.5t78 -7h123l-99 -579q-8 -43 10.5 -77t79.5 -36q39 0 86.5 20.5t88.5 70.5t68.5 133t27.5 210q0 129 -34 238.5t-109.5 189.5t-197.5 125t-300 45q-156 0 -294 -44t-242.5 -140t-166 -252 t-61.5 -377q0 -170 47 -300t136 -220t217 -136t292 -46q221 0 368.5 48t250.5 130l94 -148q-55 -43 -124 -83t-156 -69.5t-194.5 -47t-238.5 -17.5q-219 0 -384 65.5t-275.5 184.5t-166 281.5t-55.5 357.5zM641 461q0 -109 48 -169.5t161 -60.5q70 0 119 17.5t81.5 54.5 t52.5 94t32 135q10 70 11 122.5t-18.5 87t-65.5 52t-128 17.5q-88 0 -144.5 -26.5t-89 -72.5t-46 -110.5t-13.5 -140.5z" />
<glyph unicode="A" horiz-adv-x="1310" d="M16 0l482 1458h315l481 -1458h-252l-90 281h-596l-88 -281h-252zM426 496h459l-199 626q-8 25 -30.5 25t-30.5 -25z" />
<glyph unicode="B" horiz-adv-x="1232" d="M154 0v1458h118q72 0 123 6t96.5 14.5t90.5 14.5t104 6q117 0 197 -34.5t128 -91t69.5 -130.5t21.5 -149q0 -98 -24.5 -165t-67.5 -108q-20 -18 -34.5 -28.5t-14.5 -26.5t16 -25.5t37 -25.5q55 -41 91 -115t36 -170q0 -84 -20.5 -162t-66.5 -137t-118 -95t-172 -36h-610z M379 215h358q47 0 82 19.5t57.5 50t33 68.5t10.5 75q0 41 -12.5 81t-38 70.5t-64.5 50t-90 19.5h-336v-434zM379 864h295q51 0 90 18.5t64.5 48.5t38 68.5t12.5 79.5q0 37 -9.5 74t-37 65.5t-76.5 47t-131 18.5q-55 0 -100.5 -4t-77 -17.5t-50 -37t-18.5 -62.5v-299z" />
<glyph unicode="C" horiz-adv-x="1245" d="M98 729q0 178 33 321.5t107.5 243t196.5 152.5t300 53q154 0 254.5 -39t179.5 -96l-102 -184q-39 23 -75 41t-75.5 30.5t-84 19.5t-99.5 7q-127 0 -204.5 -45t-119.5 -121t-56.5 -175t-14.5 -208t14.5 -208t56.5 -175t119.5 -121t204.5 -45q55 0 99.5 7.5t84 19.5 t75.5 30.5t75 41.5l102 -185q-80 -57 -180 -96t-254 -39q-178 0 -300 53.5t-196.5 152.5t-107.5 242.5t-33 321.5z" />
<glyph unicode="D" horiz-adv-x="1306" d="M154 0v1458h118q57 0 106.5 6t94.5 14.5t88 14.5t90 6q162 0 270.5 -52t173 -149.5t92 -236.5t27.5 -311t-27.5 -311.5t-95 -237t-180 -149.5t-282.5 -52h-475zM379 215h252q113 0 181.5 47t106 122t50 171t12.5 195q0 98 -12.5 194t-50 171t-106.5 122t-181 47 q-53 0 -99.5 -4t-80 -16.5t-53 -35t-19.5 -59.5v-954z" />
<glyph unicode="E" horiz-adv-x="1167" d="M154 0v1458h899v-215h-600q-31 0 -52.5 -21.5t-21.5 -52.5v-284h633v-215h-633v-381q0 -31 21.5 -52.5t52.5 -21.5h600v-215h-899z" />
<glyph unicode="F" horiz-adv-x="1101" d="M154 0v1458h858v-215h-559q-31 0 -52.5 -21.5t-21.5 -52.5v-338h633v-215h-633v-616h-225z" />
<glyph unicode="G" horiz-adv-x="1355" d="M98 729q0 184 32 327.5t107.5 242t199.5 149.5t308 51q90 0 159 -11t124 -32.5t101.5 -52.5t93.5 -70l-105 -184q-72 55 -160 92t-215 37t-206.5 -45t-123.5 -121t-59.5 -175t-15.5 -208t14.5 -208t56.5 -175t119.5 -121t204.5 -45q74 0 126 9.5t86 32t49.5 59t15.5 94.5 v198h-334v215h557v-788h-162q-57 0 -102 -6t-86 -14.5t-84 -14.5t-97 -6q-172 0 -287.5 51t-186 149.5t-100.5 242t-30 327.5z" />
<glyph unicode="H" horiz-adv-x="1390" d="M154 0v1458h225v-500q0 -31 21.5 -52t52.5 -21h485q31 0 52.5 21.5t21.5 51.5v500h225v-1458h-225v596q0 31 -21.5 52.5t-52.5 21.5h-485q-31 0 -52.5 -21.5t-21.5 -52.5v-596h-225z" />
<glyph unicode="I" horiz-adv-x="532" d="M154 0v1458h225v-1458h-225z" />
<glyph unicode="J" horiz-adv-x="964" d="M66 61l104 195q51 -33 104.5 -54.5t133.5 -21.5q35 0 69.5 6.5t61 24.5t43 51t16.5 86v1110h225v-1153q0 -78 -28.5 -142.5t-82 -109.5t-127 -69.5t-163.5 -24.5q-123 0 -206 25.5t-150 76.5z" />
<glyph unicode="K" horiz-adv-x="1208" d="M154 0v1458h225v-428q0 -25 4 -37t18 -28l64 -70q23 -27 47.5 -27t42.5 27l399 563h273l-535 -727q-18 -24 -18 -45.5t18 -42.5l531 -643h-308l-489 598q-12 16 -29.5 10t-17.5 -24v-584h-225z" />
<glyph unicode="L" horiz-adv-x="1087" d="M154 0v1458h225v-1169q0 -31 21.5 -52.5t52.5 -21.5h600v-215h-899z" />
<glyph unicode="M" horiz-adv-x="1581" d="M154 0v1458h290l291 -747q8 -23 23.5 -33t32 -10t32 10t23.5 33l291 747h290v-1458h-225v977q0 12 -10 14t-14 -10l-254 -672h-267l-254 672q-4 12 -14 10t-10 -14v-977h-225z" />
<glyph unicode="N" horiz-adv-x="1372" d="M154 0v1458h272l516 -987q12 -25 39 -19.5t27 33.5v973h211v-1458h-273l-516 987q-12 25 -38.5 19.5t-26.5 -33.5v-973h-211z" />
<glyph unicode="O" horiz-adv-x="1400" d="M98 729q0 166 21.5 306.5t86 243.5t182.5 161.5t312 58.5q193 0 311.5 -58.5t183.5 -161.5t86.5 -243.5t21.5 -306.5t-21.5 -306t-86.5 -243.5t-183.5 -162t-311.5 -58.5q-195 0 -312.5 58.5t-182 162t-86 243.5t-21.5 306zM338 729q0 -115 12 -214t50 -174t110 -118 t190 -43q119 0 191 43t109.5 118t50 174t12.5 214q0 113 -12.5 213t-50 175t-109.5 118t-191 43t-190.5 -43t-109.5 -118t-50 -175t-12 -213z" />
<glyph unicode="P" horiz-adv-x="1138" d="M154 0v1458h118q115 0 209 20.5t191 20.5q123 0 206 -38t133 -101.5t70.5 -147.5t20.5 -176t-20.5 -176t-74 -147.5t-143.5 -101.5t-231 -38q-53 0 -99.5 3.5t-80.5 7.5q-39 4 -74 10v-594h-225zM379 809q29 -6 65 -10q33 -4 78 -7.5t101 -3.5q70 0 119 20.5t79.5 55.5 t44 80t13.5 92q0 55 -11.5 100.5t-39 78t-78 51t-125.5 18.5q-55 0 -100.5 -4t-77 -17.5t-50 -37t-18.5 -62.5v-354z" />
<glyph unicode="Q" horiz-adv-x="1400" d="M98 729q0 166 21.5 307.5t86 244.5t182.5 161.5t312 58.5q193 0 311.5 -58.5t183.5 -161.5t86.5 -244.5t21.5 -307.5q0 -160 -19.5 -296t-79.5 -238q23 -18 53.5 -24.5t65.5 -6.5v-199q-2 0 -13.5 -2t-37.5 -2q-115 0 -215 80q-66 -41 -153 -61.5t-204 -20.5 q-195 0 -312.5 58.5t-182 162t-86 243.5t-21.5 306zM338 729q0 -84 5 -154.5t22 -136.5q12 12 34.5 28.5t57.5 31t83 24.5t113 10q121 0 209 -48t154 -113q29 72 38 163t9 195q0 113 -12.5 213t-50 176t-109.5 119t-191 43t-190.5 -43t-109.5 -119t-50 -176t-12 -213z M471 250q0 -16 19.5 -29.5t51 -23t71.5 -13.5t79 -4q55 0 102.5 9.5t82.5 27.5q-53 55 -110.5 88t-121.5 33q-70 0 -122 -24.5t-52 -63.5z" />
<glyph unicode="R" horiz-adv-x="1198" d="M154 0v1458h118q115 0 209 20.5t191 20.5q123 0 206 -38t133 -101.5t70.5 -147.5t20.5 -176q0 -70 -13.5 -137.5t-43 -126.5t-76.5 -105t-115 -71q-23 -10 -27 -29.5t11 -44.5l299 -522h-260l-318 573h-180v-573h-225zM379 788h295q51 0 90 20.5t64.5 55.5t38 80t12.5 92 q0 55 -11.5 100.5t-39 78t-78 51t-125.5 18.5q-55 0 -100.5 -4t-77 -17.5t-50 -37t-18.5 -62.5v-375z" />
<glyph unicode="S" horiz-adv-x="1157" d="M94 90l92 203q86 -55 170 -83t195 -28q139 0 223 53.5t84 178.5q0 63 -21.5 107t-63.5 76t-105.5 55.5t-149.5 47.5q-78 23 -151.5 49.5t-131 68.5t-93.5 104.5t-36 154.5t32 170t93.5 134.5t149.5 87t201 30.5q82 0 147.5 -8t118.5 -23.5t97 -35t87 -43.5l-96 -191 q-63 35 -154.5 56.5t-197.5 21.5q-256 0 -256 -176q0 -47 18.5 -78t55 -53.5t94 -41t135.5 -42.5q88 -29 169 -63t142.5 -86t98 -127t36.5 -181q0 -217 -133 -343t-397 -126q-135 0 -253 33t-200 98z" />
<glyph unicode="T" horiz-adv-x="1146" d="M41 1243v215h1065v-215h-346q-31 0 -52.5 -21.5t-21.5 -52.5v-1169h-225v1169q0 31 -21.5 52.5t-52.5 21.5h-346z" />
<glyph unicode="U" horiz-adv-x="1372" d="M154 344v1114h225v-1085q0 -37 13.5 -72t46 -61.5t87 -43t138.5 -16.5q98 0 164.5 11.5t107.5 36t58.5 64.5t17.5 99v1067h225v-1458h-162q-72 0 -116 -6t-86 -14.5t-95 -14.5t-145 -6q-98 0 -185.5 21.5t-153 68.5t-103 120t-37.5 175z" />
<glyph unicode="V" horiz-adv-x="1310" d="M16 1458h252l357 -1122q8 -25 30.5 -25t30.5 25l356 1122h252l-481 -1458h-315z" />
<glyph unicode="W" horiz-adv-x="1740" d="M37 1458h219l164 -1122q2 -12 10 -19.5t18.5 -7.5t19.5 6.5t11 18.5l221 1124h340l222 -1124q2 -12 11 -18.5t19.5 -6.5t18.5 7.5t10 19.5l164 1122h219l-223 -1458h-346l-236 1171q-4 25 -28.5 25t-28.5 -25l-236 -1171h-346z" />
<glyph unicode="X" d="M20 0l386 739q10 18 10 36.5t-10 37.5l-336 645h262l248 -502q14 -29 34.5 -28.5t34.5 28.5l248 502h262l-336 -645q-10 -18 -10 -36.5t10 -37.5l385 -739h-266l-293 571q-14 27 -34.5 27t-34.5 -27l-293 -571h-267z" />
<glyph unicode="Y" horiz-adv-x="1187" d="M10 1458h258l281 -592q16 -35 45 -35t45 35l281 592h258l-451 -915q-12 -25 -16 -47.5t-4 -44.5v-451h-226v451q0 23 -4 45t-16 47z" />
<glyph unicode="Z" horiz-adv-x="1126" d="M80 0v197l637 974q12 20 6 46t-41 26h-578v215h926v-196l-637 -975q-12 -18 -6 -45t41 -27h619v-215h-967z" />
<glyph unicode="[" horiz-adv-x="614" d="M154 -307v1843h399v-207h-150q-18 0 -31.5 -13t-13.5 -32v-1339q0 -18 13.5 -31.5t31.5 -13.5h150v-207h-399z" />
<glyph unicode="\" horiz-adv-x="819" d="M41 1561h184l553 -1766h-184z" />
<glyph unicode="]" horiz-adv-x="614" d="M61 -100h150q18 0 31.5 13t13.5 32v1339q0 18 -13.5 31.5t-31.5 13.5h-150v207h400v-1843h-400v207z" />
<glyph unicode="^" d="M82 494l430 942h205l430 -942h-225l-265 612q-6 14 -15.5 21.5t-27.5 7.5t-27 -7.5t-16 -21.5l-264 -612h-225z" />
<glyph unicode="_" horiz-adv-x="768" d="M0 -229h768v-189h-768v189z" />
<glyph unicode="`" d="M307 1458h307l103 -293h-205z" />
<glyph unicode="a" horiz-adv-x="1095" d="M82 324q0 84 29.5 144t80 98t118 56.5t143.5 18.5h262q18 0 31.5 12.5t13.5 30.5v35q0 39 -9.5 69.5t-34 51t-66.5 31t-107 10.5q-115 0 -193 -29t-135 -72l-92 176q68 57 174 91t248 34q76 0 150.5 -15t135 -50t97.5 -93.5t37 -144.5v-778h-146q-55 0 -90 -6 t-68.5 -14.5t-74.5 -14.5t-109 -6q-199 0 -297 95.5t-98 269.5zM295 307q0 -66 54 -106.5t161 -40.5q133 0 191.5 53t58.5 129v66q0 18 -13.5 31.5t-31.5 13.5h-244q-76 0 -126 -29t-50 -117z" />
<glyph unicode="b" horiz-adv-x="1200" d="M143 0v1458h205v-409q0 -10 8.5 -13.5t22.5 2.5q57 23 119.5 33t134.5 10q143 0 235.5 -37.5t145.5 -109.5t73.5 -176.5t20.5 -237.5t-20.5 -237.5t-73.5 -176t-145.5 -109.5t-235.5 -38q-68 0 -110 6t-76.5 14.5t-69.5 14.5t-88 6h-146zM348 397q0 -51 8.5 -95t37 -75.5 t81.5 -49t143 -17.5t143.5 26.5t82 73.5t37 113.5t8.5 146.5t-8.5 146.5t-37 113.5t-81.5 74t-144 27q-90 0 -143 -17.5t-81.5 -49.5t-37 -76t-8.5 -95v-246z" />
<glyph unicode="c" horiz-adv-x="1038" d="M92 520q0 133 22.5 237.5t79 176.5t150.5 109.5t238 37.5q123 0 217 -33.5t162 -86.5l-101 -193q-55 47 -123.5 79t-146.5 32q-92 0 -148.5 -28t-87 -75t-41 -113.5t-10.5 -142.5q0 -78 10.5 -143.5t41 -112.5t87 -74.5t148.5 -27.5q78 0 146.5 31.5t123.5 78.5l101 -192 q-68 -53 -162 -87t-217 -34q-143 0 -237.5 38t-151 109.5t-79 176t-22.5 237.5z" />
<glyph unicode="d" horiz-adv-x="1200" d="M92 520q0 133 20.5 237.5t74 176.5t145.5 109.5t235 37.5q72 0 134.5 -10t119.5 -33q14 -6 22.5 -3t8.5 14v409h205v-1458h-146q-53 0 -88 -6t-69.5 -14.5t-76.5 -14.5t-110 -6q-143 0 -235 38t-145.5 109.5t-74 176t-20.5 237.5zM311 520q0 -80 8.5 -146.5t37 -113.5 t82 -73.5t143.5 -26.5t143 17.5t82 49t37 75.5t8 95v246q0 51 -8 95t-37 76t-82 49.5t-143 17.5t-143.5 -27t-82 -74t-37 -113.5t-8.5 -146.5z" />
<glyph unicode="e" horiz-adv-x="1089" d="M92 518q0 133 24.5 237.5t80 177.5t147.5 110.5t227 37.5q106 0 188.5 -34.5t136.5 -96t82 -147.5t28 -187q0 -41 -4.5 -74.5t-8.5 -56.5q-6 -27 -10 -49h-633q-37 0 -37 -45q0 -109 72 -170t201 -61q96 0 172 27.5t135 68.5l94 -176q-68 -53 -163 -87t-240 -34 q-258 0 -375 146.5t-117 412.5zM313 649q0 -45 37 -45h410q37 0 37 45q0 106 -52.5 169t-183.5 63q-123 0 -185.5 -62.5t-62.5 -169.5z" />
<glyph unicode="f" horiz-adv-x="737" d="M74 836v204h86q18 0 31.5 13.5t13.5 31.5v86q0 88 25.5 143.5t69.5 87.5t100.5 44t117.5 12h148v-205h-154q-102 0 -102 -106v-62q0 -18 13 -31.5t32 -13.5h200v-204h-200q-18 0 -31.5 -13.5t-13.5 -31.5v-791h-205v791q0 18 -13.5 31.5t-31.5 13.5h-86z" />
<glyph unicode="g" horiz-adv-x="1200" d="M92 541q0 133 20.5 234.5t74 169t145.5 102t235 34.5q68 0 110 -6t76.5 -14t69.5 -14.5t88 -6.5h146v-1077q0 -199 -121 -306.5t-344 -107.5q-70 0 -143.5 14.5t-137 50.5t-111.5 94.5t-67 146.5h229q20 -57 79 -84t149 -27q121 0 191.5 58.5t70.5 177.5v53q0 10 -8 13 t-23 -3q-57 -23 -119.5 -33t-134.5 -10q-143 0 -235 35t-145.5 102.5t-74 169t-20.5 234.5zM311 541q0 -80 8.5 -143.5t37 -106.5t82 -66.5t143.5 -23.5t143 17.5t82 49t37 75.5t8 95v205q0 51 -8 95t-37 76t-82 49.5t-143 17.5t-143.5 -23.5t-82 -66.5t-37 -106.5 t-8.5 -143.5z" />
<glyph unicode="h" horiz-adv-x="1193" d="M143 0v1458h205v-414q0 -20 31 -6q57 23 123.5 33t159.5 10q86 0 160.5 -17t129 -57t85 -103.5t30.5 -153.5v-750h-205v717q0 31 -8 60.5t-30.5 53t-63.5 37t-107 13.5q-90 0 -148.5 -10.5t-93 -35t-49 -66.5t-14.5 -105v-664h-205z" />
<glyph unicode="i" horiz-adv-x="520" d="M147 1233v225h226v-225h-226zM158 0v1040h204v-1040h-204z" />
<glyph unicode="j" horiz-adv-x="520" d="M-16 -213h71q102 0 103 107v1146h204v-1171q0 -88 -25.5 -143.5t-69.5 -87t-100 -44t-118 -12.5h-65v205zM147 1233v225h226v-225h-226z" />
<glyph unicode="k" horiz-adv-x="1060" d="M147 0v1458h205v-563q0 -25 5 -37t18 -29l41 -47q16 -19 32 -19q15 0 31 17l258 260h275l-412 -401q-20 -20 -18 -37.5t18 -40.5l471 -561h-274l-398 494q-12 16 -29.5 10t-17.5 -25v-479h-205z" />
<glyph unicode="l" horiz-adv-x="561" d="M158 229v1229h204v-1188q0 -86 82 -86h41v-204h-67q-49 0 -96.5 13t-83 41.5t-58 77t-22.5 117.5z" />
<glyph unicode="m" horiz-adv-x="1708" d="M143 0v1040h146q49 0 86 6.5t72.5 14.5t74.5 14t88 6q68 0 109 -9t69.5 -21.5t52 -21.5t58.5 -9q41 0 69.5 9t62.5 21.5t79 21.5t117 9t136 -16t112.5 -54t77 -99.5t28.5 -151.5v-760h-205v735q0 63 -38 104.5t-140 41.5q-119 0 -176 -46.5t-57 -170.5v-664h-205v735 q0 63 -38 104.5t-140 41.5q-119 0 -176.5 -46.5t-57.5 -170.5v-664h-205z" />
<glyph unicode="n" horiz-adv-x="1193" d="M143 0v1040h146q53 0 89 6.5t72.5 14.5t85 14t126.5 6q86 0 160.5 -17t129 -57t85 -103.5t30.5 -153.5v-750h-205v717q0 31 -8 60.5t-30.5 53t-63.5 37t-107 13.5q-90 0 -148.5 -10.5t-93 -35t-49 -66.5t-14.5 -105v-664h-205z" />
<glyph unicode="o" horiz-adv-x="1163" d="M92 520q0 133 22.5 237.5t79 176.5t150.5 109.5t238 37.5q143 0 237 -37.5t150.5 -109.5t79 -176.5t22.5 -237.5t-22.5 -237.5t-79 -176t-150.5 -109.5t-237 -38t-237.5 38t-151 109.5t-79 176t-22.5 237.5zM303 520q0 -78 10.5 -143.5t41 -113.5t85 -75.5t142.5 -27.5 t142 27.5t85 75.5t41 113.5t10 143.5q0 76 -10 142.5t-41 114.5t-85 76t-142 28t-142.5 -28t-85 -76t-41 -114.5t-10.5 -142.5z" />
<glyph unicode="p" horiz-adv-x="1200" d="M143 -418v1458h146q53 0 88 6.5t69.5 14.5t76.5 14t110 6q143 0 235.5 -37.5t145.5 -109.5t73.5 -176.5t20.5 -237.5t-20.5 -237.5t-73.5 -176t-145.5 -109.5t-235.5 -38q-72 0 -134.5 10.5t-119.5 32.5q-14 6 -22.5 3t-8.5 -13v-410h-205zM348 397q0 -51 8.5 -95 t37 -75.5t81.5 -49t143 -17.5t143.5 26.5t82 73.5t37 113.5t8.5 146.5t-8.5 146.5t-37 113.5t-81.5 74t-144 27q-90 0 -143 -17.5t-81.5 -49.5t-37 -76t-8.5 -95v-246z" />
<glyph unicode="q" horiz-adv-x="1200" d="M92 520q0 133 20.5 237.5t74 176.5t145.5 109.5t235 37.5q68 0 110 -6t76.5 -14t69.5 -14.5t88 -6.5h146v-1458h-205v410q0 10 -8 13t-23 -3q-57 -23 -119.5 -33t-134.5 -10q-143 0 -235 38t-145.5 109.5t-74 176t-20.5 237.5zM311 520q0 -80 8.5 -146.5t37 -113.5 t82 -73.5t143.5 -26.5t143 17.5t82 49t37 75.5t8 95v246q0 51 -8 95t-37 76t-82 49.5t-143 17.5t-143.5 -27t-82 -74t-37 -113.5t-8.5 -146.5z" />
<glyph unicode="r" horiz-adv-x="798" d="M143 0v1040h146q37 0 67.5 6.5t60 14.5t63.5 14t79 6q106 0 168 -41l-45 -184q-25 10 -60.5 17.5t-84.5 7.5q-96 0 -142.5 -43t-46.5 -154v-684h-205z" />
<glyph unicode="s" horiz-adv-x="1024" d="M66 88l96 195q68 -53 162 -86t174 -33q53 0 97 5t75.5 21.5t49 44t17.5 74.5q0 33 -10 55.5t-37.5 40t-78 29.5t-128.5 23q-88 12 -155.5 31.5t-113.5 53t-69.5 85t-23.5 127.5q0 88 29.5 150.5t83 102.5t130 57t171.5 17q68 0 121 -6t98 -19.5t85 -31.5t83 -43l-95 -180 q-63 41 -145 59.5t-168 18.5t-136 -27t-50 -82q0 -25 5 -45t28.5 -35.5t69.5 -27t128 -19.5q80 -8 150.5 -28.5t124 -57.5t85 -94t31.5 -141q0 -174 -105.5 -268.5t-346.5 -94.5q-123 0 -242 35t-190 94z" />
<glyph unicode="t" horiz-adv-x="768" d="M74 836v143q98 47 147 118.5t66 151.5h123v-164q0 -18 13 -31.5t32 -13.5h221v-204h-221q-18 0 -31.5 -13.5t-13.5 -31.5v-480q0 -106 102 -106h133v-205h-127q-61 0 -117.5 12.5t-100.5 44t-69.5 87t-25.5 143.5v504q0 18 -13.5 31.5t-31.5 13.5h-86z" />
<glyph unicode="u" horiz-adv-x="1193" d="M123 291v749h205v-716q0 -31 8 -61t30.5 -53.5t63.5 -36.5t107 -13q90 0 148 10t93 34.5t49.5 66.5t14.5 106v663h205v-1040h-146q-53 0 -89 -6t-73 -14.5t-85 -14.5t-126 -6q-86 0 -160.5 17.5t-129 57.5t-85 103.5t-30.5 153.5z" />
<glyph unicode="v" horiz-adv-x="1058" d="M20 1040h238l242 -706q8 -23 29.5 -23t29.5 23l242 706h237l-374 -1040h-269z" />
<glyph unicode="w" horiz-adv-x="1564" d="M41 1040h227l144 -704q4 -23 28.5 -24t30.5 22l203 706h217l203 -706q6 -23 30.5 -22t28.5 24l143 704h228l-238 -1040h-303l-188 682q-4 10 -13 10q-8 0 -12 -10l-188 -682h-303z" />
<glyph unicode="x" horiz-adv-x="1064" d="M2 0l369 528q18 27 0 54l-320 458h250l201 -303q16 -24 31 -24.5t30 24.5l201 303h250l-320 -458q-18 -27 0 -54l369 -528h-254l-246 373q-16 24 -31 24.5t-30 -24.5l-246 -373h-254z" />
<glyph unicode="y" horiz-adv-x="1193" d="M123 -145h229q20 -57 78.5 -84t149.5 -27q121 0 191.5 58.5t70.5 177.5v53q0 10 -9.5 12t-19.5 -2q-57 -23 -123.5 -33t-161.5 -10q-86 0 -160.5 17.5t-128 57.5t-84 103.5t-30.5 153.5v708h203v-675q0 -31 8 -61t30.5 -53.5t64.5 -36.5t108 -13q90 0 148 10t93 34.5 t48.5 66.5t13.5 106v622h205v-1077q0 -199 -121 -306.5t-344 -107.5q-70 0 -143.5 14.5t-137 50.5t-112 94.5t-66.5 146.5z" />
<glyph unicode="z" horiz-adv-x="919" d="M88 0v158l418 608q14 23 7 49.5t-46 26.5h-358v198h718v-157l-417 -609q-14 -23 -7 -49t46 -26h419v-199h-780z" />
<glyph unicode="{" horiz-adv-x="614" d="M41 592v45q55 27 100 67.5t43 94.5l-20 587q-4 78 32.5 114t114.5 36h242v-207h-135q-49 0 -49 -53q0 -76 3 -149.5t7 -152.5t7 -167.5t3 -192.5t-3 -192t-7 -167t-7 -152.5t-3 -149.5q0 -53 49 -53h135v-207h-242q-78 0 -114.5 35.5t-32.5 113.5l20 588q2 53 -43 94 t-100 68z" />
<glyph unicode="|" horiz-adv-x="512" d="M154 -307v1843h204v-1843h-204z" />
<glyph unicode="}" horiz-adv-x="614" d="M61 -100h136q49 0 49 53q0 76 -3 149.5t-7.5 152.5t-7.5 167t-3 192t3 192.5t7.5 167.5t7.5 152.5t3 149.5q0 53 -49 53h-136v207h242q78 0 115 -36t33 -114l-21 -587q-2 -53 43 -94t100 -68v-45q-55 -27 -100 -68t-43 -94l21 -588q4 -78 -33 -113.5t-115 -35.5h-242v207 z" />
<glyph unicode="&#xa1;" horiz-adv-x="520" d="M125 -418l29 535l45 506h123l45 -506l28 -535h-270zM147 815v225h226v-225h-226z" />
<glyph unicode="&#xa2;" d="M133 709q0 297 141.5 460.5t452.5 163.5h24.5t22.5 -2l68 230h159l-75 -254q53 -14 100 -37t90 -53l-94 -185q-84 49 -156 70l-235 -799q45 -6 98 -6q78 0 146.5 20.5t146.5 67.5l94 -184q-78 -57 -175 -87t-214 -30q-84 0 -158 12l-57 -198h-160l72 241 q-152 70 -221.5 214.5t-69.5 355.5zM362 709q0 -117 28 -205t99 -142l224 758q-100 -2 -167 -32.5t-108 -84t-58.5 -128t-17.5 -166.5z" />
<glyph unicode="&#xa3;" d="M117 0v211h153v440h-153v154h153v266q0 100 35 173t94.5 120t141.5 70.5t176 23.5q68 0 121 -8t98 -23.5t85 -37t81 -48.5l-84 -180q-94 57 -165 71.5t-136 14.5q-104 0 -163.5 -46t-59.5 -132v-264h393v-154h-393v-440h618v-211h-995z" />
<glyph unicode="&#xa5;" d="M51 1417h256l262 -551q16 -35 45 -35t45 35l263 551h256l-301 -612h235v-154h-311l-53 -108q-14 -27 -17 -47h381v-154h-385v-342h-225v342h-385v154h381q-4 10 -7.5 22t-9.5 25l-53 108h-311v154h235z" />
<glyph unicode="&#xa6;" horiz-adv-x="512" d="M154 -307v880h204v-880h-204zM154 655v881h204v-881h-204z" />
<glyph unicode="&#xa7;" horiz-adv-x="4464" d="M102 487v52h377v-23q0 -78 53.5 -136t145.5 -58q61 0 108.5 33.5t47.5 90.5q0 51 -27 78t-68 47l-344 172q-78 39 -134 83t-91 96.5t-51.5 118t-16.5 147.5q0 98 42 184t116 150.5t175.5 102.5t221.5 38q150 0 254.5 -54.5t171 -134t97 -168.5t30.5 -159v-19h-391 q-8 70 -48 118t-118 48q-27 0 -53.5 -7t-48 -20.5t-34.5 -36t-13 -52.5q0 -35 16.5 -60.5t57.5 -44.5l288 -129q68 -31 131.5 -73t113.5 -99t81 -129t31 -160q0 -106 -43 -202.5t-117 -170t-173 -117.5t-212 -44q-145 0 -253 49t-179.5 126t-107.5 172t-36 191zM1286 449 v591h383v-581q0 -68 38 -109t120 -41q55 0 105 35t50 107v589h379v-1169q0 -90 -34.5 -180t-103.5 -162t-169 -116t-231 -44q-106 0 -199.5 40t-164 106.5t-113.5 154.5t-50 185l385 -2q10 -59 53.5 -86t98.5 -27q72 0 109.5 39t37.5 100v119q-53 -27 -101 -38t-101 -11 q-117 0 -208 44t-153.5 114.5t-96.5 159.5t-34 182zM2441 0v1077q0 141 41 251t118 184.5t187.5 112.5t247.5 38h252v-399h-248q-53 0 -90 -7.5t-60.5 -27t-34.5 -54t-11 -90.5v-45h364v-378h-364v-662h-402zM3287 449v591h383v-581q0 -68 38 -109t120 -41q55 0 105 35 t50 107v589h379v-1169q0 -90 -34.5 -180t-103.5 -162t-169 -116t-231 -44q-106 0 -199.5 40t-164.5 106.5t-114 154.5t-49 185l385 -2q10 -59 53.5 -86t98.5 -27q72 0 109.5 39t37.5 100v119q-53 -27 -101 -38t-101 -11q-117 0 -208 44t-153.5 114.5t-96.5 159.5t-34 182z " />
<glyph unicode="&#xa8;" d="M297 1233v225h225v-225h-225zM707 1233v225h225v-225h-225z" />
<glyph unicode="&#xa9;" horiz-adv-x="1654" d="M100 709q0 164 41 302t128 237.5t224.5 154.5t329.5 55q193 0 330 -55t224 -154.5t128 -238t41 -301.5q0 -164 -41 -302.5t-128 -237.5t-224 -154.5t-330 -55.5t-330 55.5t-224 154.5t-128 237.5t-41 302.5zM258 709q0 -129 33 -239t101.5 -188.5t176 -123.5t256.5 -45 q147 0 254 45t175.5 123.5t101.5 188.5t33 239t-33 238.5t-102.5 188t-176 124t-256.5 45.5q-147 0 -253.5 -45.5t-175 -125t-101.5 -188t-33 -237.5zM446 709q0 106 18.5 189t63.5 140.5t121 88t191 30.5q98 0 172.5 -27.5t130.5 -68.5l-82 -154q-43 37 -98.5 62.5 t-116.5 25.5q-74 0 -119 -21.5t-69.5 -60.5t-33 -91t-8.5 -113t8.5 -113.5t33 -91.5t69.5 -60.5t119 -21.5q61 0 116.5 25.5t98.5 62.5l82 -154q-55 -41 -130 -68.5t-173 -27.5q-115 0 -191 31t-121 88t-63.5 140.5t-18.5 189.5z" />
<glyph unicode="&#xab;" horiz-adv-x="1024" d="M72 580v71l356 326l92 -115l-217 -217q-31 -31 0 -59l217 -217l-92 -115zM481 580v71l357 326l92 -115l-217 -217q-31 -31 0 -59l217 -217l-92 -115z" />
<glyph unicode="&#xac;" horiz-adv-x="1765" d="M113 729q0 160 60 300t164.5 244.5t245 165t300.5 60.5t300 -60.5t244.5 -165t165 -244.5t60.5 -300t-60.5 -300t-165 -244.5t-245 -165t-299.5 -60.5q-160 0 -300.5 60.5t-245 165t-164.5 244.5t-60 300z" />
<glyph unicode="&#xad;" horiz-adv-x="737" d="M98 571v189h541v-189h-541z" />
<glyph unicode="&#xae;" horiz-adv-x="518" d="M41 1233q0 98 51 161.5t168 63.5t167 -63.5t50 -161.5t-50 -161.5t-167 -63.5t-168 63.5t-51 161.5zM80 1233q0 -86 41 -137.5t139 -51.5t139 51.5t41 137.5t-41 137t-139 51t-139 -51t-41 -137zM180 1114v244h21q18 0 34.5 3t36.5 3q47 0 62.5 -23.5t15.5 -54.5 q0 -23 -9 -43t-32 -31q-8 -4 -2 -12l49 -86h-43l-53 96h-43v-96h-37zM217 1245h64q16 0 24 12.5t8 28.5q0 18 -9 29.5t-40 11.5q-23 0 -35 -3t-12 -15v-64z" />
<glyph unicode="&#xaf;" d="M344 1251v189h541v-189h-541z" />
<glyph unicode="&#xb0;" horiz-adv-x="778" d="M78 1147q0 145 83 228t228 83t228 -83t83 -228t-83 -228t-228 -83t-228 82.5t-83 228.5zM244 1147q0 -72 39.5 -109t105.5 -37t106 37t40 109t-40 108.5t-106 36.5t-105.5 -36.5t-39.5 -108.5z" />
<glyph unicode="&#xb1;" d="M143 211v205h942v-205h-942zM143 750v204h295q31 0 52.5 21.5t21.5 52.5v178h205v-178q0 -31 21.5 -52.5t52.5 -21.5h294v-204h-294q-31 0 -52.5 -21.5t-21.5 -52.5v-178h-205v178q0 31 -21.5 52.5t-52.5 21.5h-295z" />
<glyph unicode="&#xb4;" d="M512 1165l102 293h308l-205 -293h-205z" />
<glyph unicode="&#xb7;" horiz-adv-x="520" d="M147 553v225h226v-225h-226z" />
<glyph unicode="&#xb8;" d="M436 -399l45 149q33 -14 60.5 -19t64.5 -5q35 0 56.5 8t21.5 28q0 18 -25.5 27.5t-55.5 21t-55.5 29t-25.5 51.5q0 25 14.5 53.5t36.5 55.5h82v-63q0 -31 31 -44.5t68 -29t67.5 -45t30.5 -90.5q0 -47 -18.5 -79t-49 -51.5t-71.5 -27.5t-88 -8q-113 0 -189 39z" />
<glyph unicode="&#xbb;" horiz-adv-x="1024" d="M94 369l217 217q29 29 0 59l-217 217l92 115l357 -326v-71l-357 -326zM504 369l217 217q29 29 0 59l-217 217l92 115l356 -326v-71l-356 -326z" />
<glyph unicode="&#xbf;" horiz-adv-x="925" d="M53 -96q0 76 29 133t72 101t92 78t92 63.5t71.5 59.5t28.5 64q0 41 -22.5 62.5t-67.5 36.5l60 162q55 -10 102 -31t83 -53.5t55.5 -80.5t19.5 -114q0 -68 -29 -116t-73 -86t-94 -66.5t-94 -60t-73 -67.5t-29 -85q0 -86 50.5 -117t142.5 -31q68 0 131.5 17.5t142.5 64.5 l99 -190q-94 -59 -182.5 -83t-194.5 -24q-90 0 -166 22.5t-130 68.5t-85 114t-31 158zM369 815v225h225v-225h-225z" />
<glyph unicode="&#xc0;" horiz-adv-x="1310" d="M16 0l482 1458h315l481 -1458h-252l-90 281h-596l-88 -281h-252zM348 1876h307l103 -293h-205zM426 496h459l-199 626q-8 25 -30.5 25t-30.5 -25z" />
<glyph unicode="&#xc1;" horiz-adv-x="1310" d="M16 0l482 1458h315l481 -1458h-252l-90 281h-596l-88 -281h-252zM426 496h459l-199 626q-8 25 -30.5 25t-30.5 -25zM553 1583l102 293h308l-205 -293h-205z" />
<glyph unicode="&#xc2;" horiz-adv-x="1310" d="M16 0l482 1458h315l481 -1458h-252l-90 281h-596l-88 -281h-252zM307 1583l205 293h287l205 -293h-205l-144 146l-143 -146h-205zM426 496h459l-199 626q-8 25 -30.5 25t-30.5 -25z" />
<glyph unicode="&#xc3;" horiz-adv-x="1310" d="M16 0l482 1458h315l481 -1458h-252l-90 281h-596l-88 -281h-252zM291 1583q0 139 64.5 200.5t156.5 61.5q41 0 76 -6t65.5 -14t60 -14.5t60.5 -6.5q29 0 45.5 19.5t16.5 52.5h184q0 -139 -64.5 -200.5t-156.5 -61.5q-41 0 -76 6t-65.5 14t-60.5 14.5t-60 6.5 q-29 0 -45.5 -19.5t-16.5 -52.5h-184zM426 496h459l-199 626q-8 25 -30.5 25t-30.5 -25z" />
<glyph unicode="&#xc4;" horiz-adv-x="1310" d="M16 0l482 1458h315l481 -1458h-252l-90 281h-596l-88 -281h-252zM338 1651v225h225v-225h-225zM426 496h459l-199 626q-8 25 -30.5 25t-30.5 -25zM748 1651v225h225v-225h-225z" />
<glyph unicode="&#xc5;" horiz-adv-x="1310" d="M16 0l482 1458h315l481 -1458h-252l-90 281h-596l-88 -281h-252zM426 496h459l-199 626q-8 25 -30.5 25t-30.5 -25zM444 1774q0 43 16.5 81.5t45.5 67.5t67.5 45.5t81.5 16.5t82 -16.5t68 -45.5t45 -67.5t16 -81.5t-16 -82t-45 -68t-68 -45t-82 -16t-81.5 16t-67.5 45 t-45.5 68t-16.5 82zM526 1774q0 -53 38 -91t91 -38t91 38t38 91t-37.5 91t-91.5 38q-53 0 -91 -38t-38 -91z" />
<glyph unicode="&#xc7;" horiz-adv-x="1245" d="M98 729q0 178 33 321.5t107.5 243t196.5 152.5t300 53q154 0 254.5 -39t179.5 -96l-102 -184q-39 23 -75 41t-75.5 30.5t-84 19.5t-99.5 7q-127 0 -204.5 -45t-119.5 -121t-56.5 -175t-14.5 -208t14.5 -208t56.5 -175t119.5 -121t204.5 -45q55 0 99.5 7.5t84 19.5 t75.5 30.5t75 41.5l102 -185q-80 -57 -180 -96t-254 -39v-22q0 -31 31 -44.5t67.5 -29t67.5 -45t31 -90.5q0 -47 -18.5 -79t-49 -51.5t-71.5 -27.5t-88 -8q-113 0 -189 39l45 149q33 -14 60.5 -19t64.5 -5q35 0 56.5 8t21.5 28q0 18 -25.5 27.5t-55.5 21t-55.5 29 t-25.5 51.5q0 37 25 74q-147 14 -249 73.5t-163 158t-89 232.5t-28 300z" />
<glyph unicode="&#xc8;" horiz-adv-x="1167" d="M154 0v1458h899v-215h-600q-31 0 -52.5 -21.5t-21.5 -52.5v-284h633v-215h-633v-381q0 -31 21.5 -52.5t52.5 -21.5h600v-215h-899zM317 1876h308l102 -293h-205z" />
<glyph unicode="&#xc9;" horiz-adv-x="1167" d="M154 0v1458h899v-215h-600q-31 0 -52.5 -21.5t-21.5 -52.5v-284h633v-215h-633v-381q0 -31 21.5 -52.5t52.5 -21.5h600v-215h-899zM481 1583l103 293h307l-205 -293h-205z" />
<glyph unicode="&#xca;" horiz-adv-x="1167" d="M154 0v1458h899v-215h-600q-31 0 -52.5 -21.5t-21.5 -52.5v-284h633v-215h-633v-381q0 -31 21.5 -52.5t52.5 -21.5h600v-215h-899zM236 1583l204 293h287l205 -293h-205l-143 146l-144 -146h-204z" />
<glyph unicode="&#xcb;" horiz-adv-x="1167" d="M154 0v1458h899v-215h-600q-31 0 -52.5 -21.5t-21.5 -52.5v-284h633v-215h-633v-381q0 -31 21.5 -52.5t52.5 -21.5h600v-215h-899zM266 1651v225h226v-225h-226zM676 1651v225h225v-225h-225z" />
<glyph unicode="&#xcc;" horiz-adv-x="532" d="M-41 1876h307l103 -293h-205zM154 0v1458h225v-1458h-225z" />
<glyph unicode="&#xcd;" horiz-adv-x="532" d="M154 0v1458h225v-1458h-225zM164 1583l102 293h307l-204 -293h-205z" />
<glyph unicode="&#xce;" horiz-adv-x="532" d="M-82 1583l205 293h287l204 -293h-204l-144 146l-143 -146h-205zM154 0v1458h225v-1458h-225z" />
<glyph unicode="&#xcf;" horiz-adv-x="532" d="M-51 1651v225h225v-225h-225zM154 0v1458h225v-1458h-225zM358 1651v225h226v-225h-226z" />
<glyph unicode="&#xd1;" horiz-adv-x="1372" d="M154 0v1458h272l516 -987q12 -25 39 -19.5t27 33.5v973h211v-1458h-273l-516 987q-12 25 -38.5 19.5t-26.5 -33.5v-973h-211zM322 1583q0 139 64.5 200.5t156.5 61.5q41 0 75.5 -6t65.5 -14t60.5 -14.5t60.5 -6.5q29 0 45 19.5t16 52.5h185q0 -139 -64.5 -200.5 t-157.5 -61.5q-41 0 -75.5 6t-65.5 14t-60.5 14.5t-60.5 6.5q-29 0 -45 -19.5t-16 -52.5h-184z" />
<glyph unicode="&#xd2;" horiz-adv-x="1400" d="M98 729q0 166 21.5 306.5t86 243.5t182.5 161.5t312 58.5q193 0 311.5 -58.5t183.5 -161.5t86.5 -243.5t21.5 -306.5t-21.5 -306t-86.5 -243.5t-183.5 -162t-311.5 -58.5q-195 0 -312.5 58.5t-182 162t-86 243.5t-21.5 306zM338 729q0 -115 12 -214t50 -174t110 -118 t190 -43q119 0 191 43t109.5 118t50 174t12.5 214q0 113 -12.5 213t-50 175t-109.5 118t-191 43t-190.5 -43t-109.5 -118t-50 -175t-12 -213zM393 1876h307l103 -293h-205z" />
<glyph unicode="&#xd3;" horiz-adv-x="1400" d="M98 729q0 166 21.5 306.5t86 243.5t182.5 161.5t312 58.5q193 0 311.5 -58.5t183.5 -161.5t86.5 -243.5t21.5 -306.5t-21.5 -306t-86.5 -243.5t-183.5 -162t-311.5 -58.5q-195 0 -312.5 58.5t-182 162t-86 243.5t-21.5 306zM338 729q0 -115 12 -214t50 -174t110 -118 t190 -43q119 0 191 43t109.5 118t50 174t12.5 214q0 113 -12.5 213t-50 175t-109.5 118t-191 43t-190.5 -43t-109.5 -118t-50 -175t-12 -213zM598 1583l102 293h308l-205 -293h-205z" />
<glyph unicode="&#xd4;" horiz-adv-x="1400" d="M98 729q0 166 21.5 306.5t86 243.5t182.5 161.5t312 58.5q193 0 311.5 -58.5t183.5 -161.5t86.5 -243.5t21.5 -306.5t-21.5 -306t-86.5 -243.5t-183.5 -162t-311.5 -58.5q-195 0 -312.5 58.5t-182 162t-86 243.5t-21.5 306zM338 729q0 -115 12 -214t50 -174t110 -118 t190 -43q119 0 191 43t109.5 118t50 174t12.5 214q0 113 -12.5 213t-50 175t-109.5 118t-191 43t-190.5 -43t-109.5 -118t-50 -175t-12 -213zM352 1583l205 293h287l205 -293h-205l-144 146l-143 -146h-205z" />
<glyph unicode="&#xd5;" horiz-adv-x="1400" d="M98 729q0 166 21.5 306.5t86 243.5t182.5 161.5t312 58.5q193 0 311.5 -58.5t183.5 -161.5t86.5 -243.5t21.5 -306.5t-21.5 -306t-86.5 -243.5t-183.5 -162t-311.5 -58.5q-195 0 -312.5 58.5t-182 162t-86 243.5t-21.5 306zM336 1583q0 139 64.5 200.5t156.5 61.5 q41 0 76 -6t65.5 -14t60 -14.5t60.5 -6.5q29 0 45.5 19.5t16.5 52.5h184q0 -139 -64.5 -200.5t-156.5 -61.5q-41 0 -76 6t-65.5 14t-60.5 14.5t-60 6.5q-29 0 -45.5 -19.5t-16.5 -52.5h-184zM338 729q0 -115 12 -214t50 -174t110 -118t190 -43q119 0 191 43t109.5 118 t50 174t12.5 214q0 113 -12.5 213t-50 175t-109.5 118t-191 43t-190.5 -43t-109.5 -118t-50 -175t-12 -213z" />
<glyph unicode="&#xd6;" horiz-adv-x="1400" d="M98 729q0 166 21.5 306.5t86 243.5t182.5 161.5t312 58.5q193 0 311.5 -58.5t183.5 -161.5t86.5 -243.5t21.5 -306.5t-21.5 -306t-86.5 -243.5t-183.5 -162t-311.5 -58.5q-195 0 -312.5 58.5t-182 162t-86 243.5t-21.5 306zM338 729q0 -115 12 -214t50 -174t110 -118 t190 -43q119 0 191 43t109.5 118t50 174t12.5 214q0 113 -12.5 213t-50 175t-109.5 118t-191 43t-190.5 -43t-109.5 -118t-50 -175t-12 -213zM383 1651v225h225v-225h-225zM793 1651v225h225v-225h-225z" />
<glyph unicode="&#xd7;" d="M133 371l285 286q23 23 22.5 51.5t-22.5 51.5l-285 287l143 143l287 -285q23 -23 51.5 -22.5t51.5 22.5l286 285l144 -143l-285 -287q-23 -23 -23 -51.5t23 -51.5l285 -286l-144 -144l-286 285q-23 23 -51.5 23t-51.5 -23l-287 -285z" />
<glyph unicode="&#xd9;" horiz-adv-x="1372" d="M154 344v1114h225v-1085q0 -37 13.5 -72t46 -61.5t87 -43t138.5 -16.5q98 0 164.5 11.5t107.5 36t58.5 64.5t17.5 99v1067h225v-1458h-162q-72 0 -116 -6t-86 -14.5t-95 -14.5t-145 -6q-98 0 -185.5 21.5t-153 68.5t-103 120t-37.5 175zM379 1876h307l102 -293h-204z" />
<glyph unicode="&#xda;" horiz-adv-x="1372" d="M154 344v1114h225v-1085q0 -37 13.5 -72t46 -61.5t87 -43t138.5 -16.5q98 0 164.5 11.5t107.5 36t58.5 64.5t17.5 99v1067h225v-1458h-162q-72 0 -116 -6t-86 -14.5t-95 -14.5t-145 -6q-98 0 -185.5 21.5t-153 68.5t-103 120t-37.5 175zM584 1583l102 293h307l-205 -293 h-204z" />
<glyph unicode="&#xdb;" horiz-adv-x="1372" d="M154 344v1114h225v-1085q0 -37 13.5 -72t46 -61.5t87 -43t138.5 -16.5q98 0 164.5 11.5t107.5 36t58.5 64.5t17.5 99v1067h225v-1458h-162q-72 0 -116 -6t-86 -14.5t-95 -14.5t-145 -6q-98 0 -185.5 21.5t-153 68.5t-103 120t-37.5 175zM338 1583l205 293h286l205 -293 h-205l-143 146l-143 -146h-205z" />
<glyph unicode="&#xdc;" horiz-adv-x="1372" d="M154 344v1114h225v-1085q0 -37 13.5 -72t46 -61.5t87 -43t138.5 -16.5q98 0 164.5 11.5t107.5 36t58.5 64.5t17.5 99v1067h225v-1458h-162q-72 0 -116 -6t-86 -14.5t-95 -14.5t-145 -6q-98 0 -185.5 21.5t-153 68.5t-103 120t-37.5 175zM369 1651v225h225v-225h-225z M778 1651v225h226v-225h-226z" />
<glyph unicode="&#xe0;" horiz-adv-x="1095" d="M82 324q0 84 29.5 144t80 98t118 56.5t143.5 18.5h262q18 0 31.5 12.5t13.5 30.5v35q0 39 -9.5 69.5t-34 51t-66.5 31t-107 10.5q-115 0 -193 -29t-135 -72l-92 176q68 57 174 91t248 34q76 0 150.5 -15t135 -50t97.5 -93.5t37 -144.5v-778h-146q-55 0 -90 -6 t-68.5 -14.5t-74.5 -14.5t-109 -6q-199 0 -297 95.5t-98 269.5zM219 1458h307l103 -293h-205zM295 307q0 -66 54 -106.5t161 -40.5q133 0 191.5 53t58.5 129v66q0 18 -13.5 31.5t-31.5 13.5h-244q-76 0 -126 -29t-50 -117z" />
<glyph unicode="&#xe1;" horiz-adv-x="1095" d="M82 324q0 84 29.5 144t80 98t118 56.5t143.5 18.5h262q18 0 31.5 12.5t13.5 30.5v35q0 39 -9.5 69.5t-34 51t-66.5 31t-107 10.5q-115 0 -193 -29t-135 -72l-92 176q68 57 174 91t248 34q76 0 150.5 -15t135 -50t97.5 -93.5t37 -144.5v-778h-146q-55 0 -90 -6 t-68.5 -14.5t-74.5 -14.5t-109 -6q-199 0 -297 95.5t-98 269.5zM295 307q0 -66 54 -106.5t161 -40.5q133 0 191.5 53t58.5 129v66q0 18 -13.5 31.5t-31.5 13.5h-244q-76 0 -126 -29t-50 -117zM426 1165l102 293h308l-205 -293h-205z" />
<glyph unicode="&#xe2;" horiz-adv-x="1095" d="M82 324q0 84 29.5 144t80 98t118 56.5t143.5 18.5h262q18 0 31.5 12.5t13.5 30.5v35q0 39 -9.5 69.5t-34 51t-66.5 31t-107 10.5q-115 0 -193 -29t-135 -72l-92 176q68 57 174 91t248 34q76 0 150.5 -15t135 -50t97.5 -93.5t37 -144.5v-778h-146q-55 0 -90 -6 t-68.5 -14.5t-74.5 -14.5t-109 -6q-199 0 -297 95.5t-98 269.5zM180 1165l205 293h287l205 -293h-205l-144 146l-143 -146h-205zM295 307q0 -66 54 -106.5t161 -40.5q133 0 191.5 53t58.5 129v66q0 18 -13.5 31.5t-31.5 13.5h-244q-76 0 -126 -29t-50 -117z" />
<glyph unicode="&#xe3;" horiz-adv-x="1095" d="M82 324q0 84 29.5 144t80 98t118 56.5t143.5 18.5h262q18 0 31.5 12.5t13.5 30.5v35q0 39 -9.5 69.5t-34 51t-66.5 31t-107 10.5q-115 0 -193 -29t-135 -72l-92 176q68 57 174 91t248 34q76 0 150.5 -15t135 -50t97.5 -93.5t37 -144.5v-778h-146q-55 0 -90 -6 t-68.5 -14.5t-74.5 -14.5t-109 -6q-199 0 -297 95.5t-98 269.5zM164 1165q0 139 64.5 200.5t156.5 61.5q41 0 76 -6t65.5 -14t60 -14.5t60.5 -6.5q29 0 45.5 19.5t16.5 52.5h184q0 -139 -64.5 -200.5t-156.5 -61.5q-41 0 -76 6t-65.5 14.5t-60.5 14.5t-60 6 q-29 0 -45.5 -19.5t-16.5 -52.5h-184zM295 307q0 -66 54 -106.5t161 -40.5q133 0 191.5 53t58.5 129v66q0 18 -13.5 31.5t-31.5 13.5h-244q-76 0 -126 -29t-50 -117z" />
<glyph unicode="&#xe4;" horiz-adv-x="1095" d="M82 324q0 84 29.5 144t80 98t118 56.5t143.5 18.5h262q18 0 31.5 12.5t13.5 30.5v35q0 39 -9.5 69.5t-34 51t-66.5 31t-107 10.5q-115 0 -193 -29t-135 -72l-92 176q68 57 174 91t248 34q76 0 150.5 -15t135 -50t97.5 -93.5t37 -144.5v-778h-146q-55 0 -90 -6 t-68.5 -14.5t-74.5 -14.5t-109 -6q-199 0 -297 95.5t-98 269.5zM211 1233v225h225v-225h-225zM295 307q0 -66 54 -106.5t161 -40.5q133 0 191.5 53t58.5 129v66q0 18 -13.5 31.5t-31.5 13.5h-244q-76 0 -126 -29t-50 -117zM621 1233v225h225v-225h-225z" />
<glyph unicode="&#xe5;" horiz-adv-x="1095" d="M82 324q0 84 29.5 144t80 98t118 56.5t143.5 18.5h262q18 0 31.5 12.5t13.5 30.5v35q0 39 -9.5 69.5t-34 51t-66.5 31t-107 10.5q-115 0 -193 -29t-135 -72l-92 176q68 57 174 91t248 34q76 0 150.5 -15t135 -50t97.5 -93.5t37 -144.5v-778h-146q-55 0 -90 -6 t-68.5 -14.5t-74.5 -14.5t-109 -6q-199 0 -297 95.5t-98 269.5zM295 307q0 -66 54 -106.5t161 -40.5q133 0 191.5 53t58.5 129v66q0 18 -13.5 31.5t-31.5 13.5h-244q-76 0 -126 -29t-50 -117zM317 1356q0 43 16.5 82t45.5 67.5t67.5 45t81.5 16.5t82 -16.5t68 -45t45 -67.5 t16 -82t-16 -82t-45 -67.5t-68 -45t-82 -16.5t-81.5 16.5t-67.5 45t-45.5 67.5t-16.5 82zM399 1356q0 -53 38 -91t91 -38t91 38t38 91t-37.5 91t-91.5 38q-53 0 -91 -38t-38 -91z" />
<glyph unicode="&#xe7;" horiz-adv-x="1038" d="M92 520q0 133 22.5 237.5t79 176.5t150.5 109.5t238 37.5q123 0 217 -33.5t162 -86.5l-101 -193q-55 47 -123.5 79t-146.5 32q-92 0 -148.5 -28t-87 -75t-41 -113.5t-10.5 -142.5q0 -78 10.5 -143.5t41 -112.5t87 -74.5t148.5 -27.5q78 0 146.5 31.5t123.5 78.5l101 -192 q-68 -53 -162 -87t-217 -34v-22q0 -31 30.5 -44.5t67.5 -29t67.5 -45t30.5 -90.5q0 -47 -18.5 -79t-49 -51.5t-71.5 -27.5t-88 -8q-113 0 -189 39l46 149q33 -14 60.5 -19t63.5 -5q35 0 56.5 8t21.5 28q0 18 -25.5 27.5t-55 21t-55 29t-25.5 51.5q0 37 24 74 q-111 14 -184.5 57.5t-116.5 114t-61.5 166.5t-18.5 217z" />
<glyph unicode="&#xe8;" horiz-adv-x="1089" d="M92 518q0 133 24.5 237.5t80 177.5t147.5 110.5t227 37.5q106 0 188.5 -34.5t136.5 -96t82 -147.5t28 -187q0 -41 -4.5 -74.5t-8.5 -56.5q-6 -27 -10 -49h-633q-37 0 -37 -45q0 -109 72 -170t201 -61q96 0 172 27.5t135 68.5l94 -176q-68 -53 -163 -87t-240 -34 q-258 0 -375 146.5t-117 412.5zM258 1458h307l103 -293h-205zM313 649q0 -45 37 -45h410q37 0 37 45q0 106 -52.5 169t-183.5 63q-123 0 -185.5 -62.5t-62.5 -169.5z" />
<glyph unicode="&#xe9;" horiz-adv-x="1089" d="M92 518q0 133 24.5 237.5t80 177.5t147.5 110.5t227 37.5q106 0 188.5 -34.5t136.5 -96t82 -147.5t28 -187q0 -41 -4.5 -74.5t-8.5 -56.5q-6 -27 -10 -49h-633q-37 0 -37 -45q0 -109 72 -170t201 -61q96 0 172 27.5t135 68.5l94 -176q-68 -53 -163 -87t-240 -34 q-258 0 -375 146.5t-117 412.5zM313 649q0 -45 37 -45h410q37 0 37 45q0 106 -52.5 169t-183.5 63q-123 0 -185.5 -62.5t-62.5 -169.5zM463 1165l102 293h307l-204 -293h-205z" />
<glyph unicode="&#xea;" horiz-adv-x="1089" d="M92 518q0 133 24.5 237.5t80 177.5t147.5 110.5t227 37.5q106 0 188.5 -34.5t136.5 -96t82 -147.5t28 -187q0 -41 -4.5 -74.5t-8.5 -56.5q-6 -27 -10 -49h-633q-37 0 -37 -45q0 -109 72 -170t201 -61q96 0 172 27.5t135 68.5l94 -176q-68 -53 -163 -87t-240 -34 q-258 0 -375 146.5t-117 412.5zM207 1165l205 293h286l205 -293h-205l-143 146l-143 -146h-205zM313 649q0 -45 37 -45h410q37 0 37 45q0 106 -52.5 169t-183.5 63q-123 0 -185.5 -62.5t-62.5 -169.5z" />
<glyph unicode="&#xeb;" horiz-adv-x="1089" d="M92 518q0 133 24.5 237.5t80 177.5t147.5 110.5t227 37.5q106 0 188.5 -34.5t136.5 -96t82 -147.5t28 -187q0 -41 -4.5 -74.5t-8.5 -56.5q-6 -27 -10 -49h-633q-37 0 -37 -45q0 -109 72 -170t201 -61q96 0 172 27.5t135 68.5l94 -176q-68 -53 -163 -87t-240 -34 q-258 0 -375 146.5t-117 412.5zM238 1233v225h225v-225h-225zM313 649q0 -45 37 -45h410q37 0 37 45q0 106 -52.5 169t-183.5 63q-123 0 -185.5 -62.5t-62.5 -169.5zM647 1233v225h225v-225h-225z" />
<glyph unicode="&#xec;" horiz-adv-x="520" d="M-47 1458h307l102 -293h-204zM158 0v1040h204v-1040h-204z" />
<glyph unicode="&#xed;" horiz-adv-x="520" d="M158 0v1040h204v-1040h-204zM158 1165l102 293h307l-205 -293h-204z" />
<glyph unicode="&#xee;" horiz-adv-x="520" d="M-88 1165l205 293h286l205 -293h-205l-143 146l-143 -146h-205zM158 0v1040h204v-1040h-204z" />
<glyph unicode="&#xef;" horiz-adv-x="520" d="M-57 1233v225h225v-225h-225zM158 0v1040h204v-1040h-204zM352 1233v225h226v-225h-226z" />
<glyph unicode="&#xf1;" horiz-adv-x="1193" d="M143 0v1040h146q53 0 89 6.5t72.5 14.5t85 14t126.5 6q86 0 160.5 -17t129 -57t85 -103.5t30.5 -153.5v-750h-205v717q0 31 -8 60.5t-30.5 53t-63.5 37t-107 13.5q-90 0 -148.5 -10.5t-93 -35t-49 -66.5t-14.5 -105v-664h-205zM233 1165q0 139 64.5 200.5t157.5 61.5 q41 0 75.5 -6t65.5 -14t60.5 -14.5t60.5 -6.5q29 0 45 19.5t16 52.5h185q0 -139 -64.5 -200.5t-157.5 -61.5q-41 0 -75.5 6t-65.5 14.5t-60.5 14.5t-60.5 6q-29 0 -45 -19.5t-16 -52.5h-185z" />
<glyph unicode="&#xf2;" horiz-adv-x="1163" d="M92 520q0 133 22.5 237.5t79 176.5t150.5 109.5t238 37.5q143 0 237 -37.5t150.5 -109.5t79 -176.5t22.5 -237.5t-22.5 -237.5t-79 -176t-150.5 -109.5t-237 -38t-237.5 38t-151 109.5t-79 176t-22.5 237.5zM274 1458h308l102 -293h-205zM303 520q0 -78 10.5 -143.5 t41 -113.5t85 -75.5t142.5 -27.5t142 27.5t85 75.5t41 113.5t10 143.5q0 76 -10 142.5t-41 114.5t-85 76t-142 28t-142.5 -28t-85 -76t-41 -114.5t-10.5 -142.5z" />
<glyph unicode="&#xf3;" horiz-adv-x="1163" d="M92 520q0 133 22.5 237.5t79 176.5t150.5 109.5t238 37.5q143 0 237 -37.5t150.5 -109.5t79 -176.5t22.5 -237.5t-22.5 -237.5t-79 -176t-150.5 -109.5t-237 -38t-237.5 38t-151 109.5t-79 176t-22.5 237.5zM303 520q0 -78 10.5 -143.5t41 -113.5t85 -75.5t142.5 -27.5 t142 27.5t85 75.5t41 113.5t10 143.5q0 76 -10 142.5t-41 114.5t-85 76t-142 28t-142.5 -28t-85 -76t-41 -114.5t-10.5 -142.5zM479 1165l103 293h307l-205 -293h-205z" />
<glyph unicode="&#xf4;" horiz-adv-x="1163" d="M92 520q0 133 22.5 237.5t79 176.5t150.5 109.5t238 37.5q143 0 237 -37.5t150.5 -109.5t79 -176.5t22.5 -237.5t-22.5 -237.5t-79 -176t-150.5 -109.5t-237 -38t-237.5 38t-151 109.5t-79 176t-22.5 237.5zM233 1165l205 293h287l205 -293h-205l-143 146l-144 -146h-205 zM303 520q0 -78 10.5 -143.5t41 -113.5t85 -75.5t142.5 -27.5t142 27.5t85 75.5t41 113.5t10 143.5q0 76 -10 142.5t-41 114.5t-85 76t-142 28t-142.5 -28t-85 -76t-41 -114.5t-10.5 -142.5z" />
<glyph unicode="&#xf5;" horiz-adv-x="1163" d="M92 520q0 133 22.5 237.5t79 176.5t150.5 109.5t238 37.5q143 0 237 -37.5t150.5 -109.5t79 -176.5t22.5 -237.5t-22.5 -237.5t-79 -176t-150.5 -109.5t-237 -38t-237.5 38t-151 109.5t-79 176t-22.5 237.5zM217 1165q0 139 64.5 200.5t156.5 61.5q41 0 76 -6t65.5 -14 t60.5 -14.5t60 -6.5q29 0 45.5 19.5t16.5 52.5h184q0 -139 -64.5 -200.5t-156.5 -61.5q-41 0 -76 6t-65.5 14.5t-60 14.5t-60.5 6q-29 0 -45.5 -19.5t-16.5 -52.5h-184zM303 520q0 -78 10.5 -143.5t41 -113.5t85 -75.5t142.5 -27.5t142 27.5t85 75.5t41 113.5t10 143.5 q0 76 -10 142.5t-41 114.5t-85 76t-142 28t-142.5 -28t-85 -76t-41 -114.5t-10.5 -142.5z" />
<glyph unicode="&#xf6;" horiz-adv-x="1163" d="M92 520q0 133 22.5 237.5t79 176.5t150.5 109.5t238 37.5q143 0 237 -37.5t150.5 -109.5t79 -176.5t22.5 -237.5t-22.5 -237.5t-79 -176t-150.5 -109.5t-237 -38t-237.5 38t-151 109.5t-79 176t-22.5 237.5zM264 1233v225h225v-225h-225zM303 520q0 -78 10.5 -143.5 t41 -113.5t85 -75.5t142.5 -27.5t142 27.5t85 75.5t41 113.5t10 143.5q0 76 -10 142.5t-41 114.5t-85 76t-142 28t-142.5 -28t-85 -76t-41 -114.5t-10.5 -142.5zM674 1233v225h225v-225h-225z" />
<glyph unicode="&#xf7;" d="M143 606v205h942v-205h-942zM502 242v225h225v-225h-225zM502 950v226h225v-226h-225z" />
<glyph unicode="&#xf9;" horiz-adv-x="1193" d="M123 291v749h205v-716q0 -31 8 -61t30.5 -53.5t63.5 -36.5t107 -13q90 0 148 10t93 34.5t49.5 66.5t14.5 106v663h205v-1040h-146q-53 0 -89 -6t-73 -14.5t-85 -14.5t-126 -6q-86 0 -160.5 17.5t-129 57.5t-85 103.5t-30.5 153.5zM289 1458h307l102 -293h-204z" />
<glyph unicode="&#xfa;" horiz-adv-x="1193" d="M123 291v749h205v-716q0 -31 8 -61t30.5 -53.5t63.5 -36.5t107 -13q90 0 148 10t93 34.5t49.5 66.5t14.5 106v663h205v-1040h-146q-53 0 -89 -6t-73 -14.5t-85 -14.5t-126 -6q-86 0 -160.5 17.5t-129 57.5t-85 103.5t-30.5 153.5zM475 1165l103 293h307l-205 -293h-205z " />
<glyph unicode="&#xfb;" horiz-adv-x="1193" d="M123 291v749h205v-716q0 -31 8 -61t30.5 -53.5t63.5 -36.5t107 -13q90 0 148 10t93 34.5t49.5 66.5t14.5 106v663h205v-1040h-146q-53 0 -89 -6t-73 -14.5t-85 -14.5t-126 -6q-86 0 -160.5 17.5t-129 57.5t-85 103.5t-30.5 153.5zM229 1165l205 293h287l205 -293h-205 l-143 146l-144 -146h-205z" />
<glyph unicode="&#xfc;" horiz-adv-x="1193" d="M123 291v749h205v-716q0 -31 8 -61t30.5 -53.5t63.5 -36.5t107 -13q90 0 148 10t93 34.5t49.5 66.5t14.5 106v663h205v-1040h-146q-53 0 -89 -6t-73 -14.5t-85 -14.5t-126 -6q-86 0 -160.5 17.5t-129 57.5t-85 103.5t-30.5 153.5zM260 1233v225h225v-225h-225zM670 1233 v225h225v-225h-225z" />
<glyph unicode="&#x2c6;" d="M266 1165l205 293h287l205 -293h-205l-144 146l-143 -146h-205z" />
<glyph unicode="&#x2dc;" d="M250 1165q0 139 64.5 200.5t156.5 61.5q41 0 76 -6t65.5 -14t60 -14.5t60.5 -6.5q29 0 45.5 19.5t16.5 52.5h184q0 -139 -64.5 -200.5t-156.5 -61.5q-41 0 -76 6t-65.5 14.5t-60.5 14.5t-60 6q-29 0 -45.5 -19.5t-16.5 -52.5h-184z" />
<glyph unicode="&#x2000;" horiz-adv-x="992" />
<glyph unicode="&#x2001;" horiz-adv-x="1985" />
<glyph unicode="&#x2002;" horiz-adv-x="992" />
<glyph unicode="&#x2003;" horiz-adv-x="1985" />
<glyph unicode="&#x2004;" horiz-adv-x="661" />
<glyph unicode="&#x2005;" horiz-adv-x="496" />
<glyph unicode="&#x2006;" horiz-adv-x="330" />
<glyph unicode="&#x2007;" horiz-adv-x="330" />
<glyph unicode="&#x2008;" horiz-adv-x="248" />
<glyph unicode="&#x2009;" horiz-adv-x="397" />
<glyph unicode="&#x200a;" horiz-adv-x="110" />
<glyph unicode="&#x2010;" horiz-adv-x="737" d="M98 571v189h541v-189h-541z" />
<glyph unicode="&#x2011;" horiz-adv-x="737" d="M98 571v189h541v-189h-541z" />
<glyph unicode="&#x2012;" horiz-adv-x="737" d="M98 571v189h541v-189h-541z" />
<glyph unicode="&#x2013;" horiz-adv-x="1024" d="M98 571v189h828v-189h-828z" />
<glyph unicode="&#x2014;" horiz-adv-x="2048" d="M98 571v189h1852v-189h-1852z" />
<glyph unicode="&#x2018;" horiz-adv-x="438" d="M106 1020v113q0 39 5.5 83t18.5 90t38 93t63 90l72 -31q-53 -70 -68.5 -126t-15.5 -87h113v-225h-226z" />
<glyph unicode="&#x2019;" horiz-adv-x="438" d="M106 1233v225h226v-112q0 -78 -24.5 -174.5t-100.5 -182.5l-72 31q53 70 68.5 126t15.5 87h-113z" />
<glyph unicode="&#x201a;" horiz-adv-x="438" d="M106 0v225h226v-112q0 -78 -24.5 -174.5t-100.5 -182.5l-72 31q53 70 68.5 126t15.5 87h-113z" />
<glyph unicode="&#x201c;" horiz-adv-x="765" d="M106 1020v113q0 39 5.5 83t18.5 90t38 93t63 90l72 -31q-53 -70 -68.5 -126t-15.5 -87h113v-225h-226zM434 1020v113q0 39 5 83t18.5 90t38 93t63.5 90l72 -31q-53 -70 -68.5 -126t-15.5 -87h112v-225h-225z" />
<glyph unicode="&#x201d;" horiz-adv-x="765" d="M106 1233v225h226v-112q0 -78 -24.5 -174.5t-100.5 -182.5l-72 31q53 70 68.5 126t15.5 87h-113zM434 1233v225h225v-112q0 -78 -24.5 -174.5t-99.5 -182.5l-72 31q53 70 68.5 126t15.5 87h-113z" />
<glyph unicode="&#x201e;" horiz-adv-x="765" d="M106 0v225h226v-112q0 -78 -24.5 -174.5t-100.5 -182.5l-72 31q53 70 68.5 126t15.5 87h-113zM434 0v225h225v-112q0 -78 -24.5 -174.5t-99.5 -182.5l-72 31q53 70 68.5 126t15.5 87h-113z" />
<glyph unicode="&#x2022;" horiz-adv-x="614" d="M109 530v398h397v-398h-397z" />
<glyph unicode="&#x2026;" horiz-adv-x="2048" d="M229 0v225h226v-225h-226zM911 0v225h226v-225h-226zM1593 0v225h226v-225h-226z" />
<glyph unicode="&#x202f;" horiz-adv-x="397" />
<glyph unicode="&#x2039;" horiz-adv-x="614" d="M72 580v71l356 326l92 -115l-217 -217q-31 -31 0 -59l217 -217l-92 -115z" />
<glyph unicode="&#x203a;" horiz-adv-x="614" d="M94 369l217 217q29 29 0 59l-217 217l92 115l357 -326v-71l-357 -326z" />
<glyph unicode="&#x205f;" horiz-adv-x="496" />
<glyph unicode="&#x20ac;" d="M98 477v154h131v155h-131v154h144q31 258 155.5 388t384.5 130q117 0 209 -34.5t178 -100.5l-102 -184q-72 49 -138.5 73.5t-144.5 24.5t-132 -19.5t-89 -58.5t-55.5 -94t-28.5 -125h447l-45 -154h-412v-155h367l-45 -154h-312q8 -72 28.5 -127t55.5 -93t89.5 -57.5 t131.5 -19.5q78 0 144.5 24.5t138.5 74.5l102 -185q-86 -66 -178 -100.5t-209 -34.5q-260 0 -385 130t-155 388h-144z" />
<glyph unicode="&#x2122;" horiz-adv-x="741" d="M43 1403v55h274v-55h-90q-18 0 -18 -19v-303h-57v303q0 18 -19 19h-90zM369 1081v377h73l76 -192q4 -12 14.5 -12.5t14.5 12.5l76 192h73v-377h-57v258q0 4 -3 4t-5 -4l-64 -178h-69l-64 178q-2 4 -5 4t-3 -4v-258h-57z" />
<glyph unicode="&#x25fc;" horiz-adv-x="1044" d="M0 0v1044h1044v-1044h-1044z" />
</font>
</defs>
</svg>
