<?xml version="1.0" standalone="no"?>
<!DOCTYPE svg PUBLIC "-//W3C//DTD SVG 1.1//EN" "http://www.w3.org/Graphics/SVG/1.1/DTD/svg11.dtd" >
<svg xmlns="http://www.w3.org/2000/svg" xmlns:xlink="http://www.w3.org/1999/xlink" version="1.1">
<metadata></metadata>
<defs>
<font id="syfymedium_italic" horiz-adv-x="1228" >
<font-face units-per-em="2048" ascent="1638" descent="-410" />
<missing-glyph horiz-adv-x="520" />
<glyph unicode="&#xfb01;" horiz-adv-x="1257" d="M29 -418l213 1209q4 18 -8.5 31.5t-30.5 13.5h-86l37 204h86q18 0 33.5 13.5t19.5 31.5l14 86q14 88 50 143.5t85.5 87.5t108.5 44t121 12h147l-37 -205h-153q-102 0 -121 -106l-10 -62q-4 -18 7 -31.5t30 -13.5h200l-37 -204h-200q-18 0 -32.5 -13.5t-19.5 -31.5 l-213 -1209h-204zM793 0l182 1040h205l-183 -1040h-204zM999 1233l39 225h226l-39 -225h-226z" />
<glyph unicode="&#xfb02;" horiz-adv-x="1298" d="M29 -418l213 1209q4 18 -8.5 31.5t-30.5 13.5h-86l37 204h86q18 0 33.5 13.5t19.5 31.5l14 86q14 88 50 143.5t85.5 87.5t108.5 44t121 12h147l-37 -205h-153q-102 0 -121 -106l-10 -62q-4 -18 7 -31.5t30 -13.5h200l-37 -204h-200q-18 0 -32.5 -13.5t-19.5 -31.5 l-213 -1209h-204zM831 229l218 1229h204l-209 -1188q-16 -86 66 -86h41l-35 -204h-67q-49 0 -94.5 13t-76 41.5t-45 77t-2.5 117.5z" />
<glyph horiz-adv-x="0" />
<glyph unicode="&#xd;" horiz-adv-x="520" />
<glyph unicode=" "  horiz-adv-x="520" />
<glyph unicode="&#x09;" horiz-adv-x="520" />
<glyph unicode="&#xa0;" horiz-adv-x="520" />
<glyph unicode="!" horiz-adv-x="520" d="M45 0l39 225h225l-39 -225h-225zM168 418l45 506l66 534h270l-123 -534l-135 -506h-123z" />
<glyph unicode="&#x22;" horiz-adv-x="847" d="M254 946l43 512h233l-137 -512h-139zM582 946l43 512h233l-137 -512h-139z" />
<glyph unicode="#" d="M10 377l25 135h239l123 393h-233l24 135h254l121 377h160l-121 -377h281l121 377h159l-121 -377h222l-25 -135h-242l-123 -393h236l-25 -135h-254l-118 -377h-160l119 377h-281l-119 -377h-159l118 377h-221zM434 512h281l123 393h-281z" />
<glyph unicode="$" d="M63 217l127 197q72 -55 166 -86l158 338q-66 16 -117 39.5t-84.5 58.5t-47 85t-1.5 120q14 84 56 151.5t108 114.5t153 72.5t189 25.5h29.5t27.5 -2l109 230h160l-119 -250q61 -14 109.5 -37t93.5 -51l-127 -185q-35 23 -79 39.5t-93 26.5l-131 -279q74 -18 138 -41.5 t108 -61.5t63.5 -95.5t5.5 -139.5q-31 -182 -170 -292.5t-389 -110.5h-52.5t-52.5 4l-88 -190h-159l104 221q-59 16 -110.5 40.5t-84.5 57.5zM481 989q-10 -53 13.5 -80.5t109.5 -50.5l125 262h-4q-106 0 -170 -32.5t-74 -98.5zM500 299q10 -2 22.5 -2h22.5q123 0 205 40 t98 138q6 37 -1 60.5t-30.5 41t-62.5 29.5t-97 25z" />
<glyph unicode="%" horiz-adv-x="1638" d="M164 1087q35 197 127 284t252 87t221.5 -87t26.5 -284t-127.5 -283.5t-251.5 -86.5q-160 0 -221.5 87t-26.5 283zM170 0l1155 1417h188l-1155 -1417h-188zM336 1087q-20 -111 5.5 -157.5t98.5 -46.5q74 0 116 46.5t62 157.5t-5 158t-99 47t-116 -47t-62 -158zM891 330 q35 197 127 283.5t252 86.5t221 -87t27 -283q-35 -197 -127.5 -284t-251.5 -87q-160 0 -221.5 87t-26.5 284zM1063 330q-20 -111 5.5 -158t98.5 -47q74 0 116 47t63 158q20 111 -5.5 158t-99.5 47t-116 -47t-62 -158z" />
<glyph unicode="&#x26;" horiz-adv-x="1343" d="M49 344q12 68 40 126t64.5 106.5t76.5 86t77 66.5q51 39 31 86q-18 41 -33.5 76t-26 70.5t-13.5 75.5t7 93q4 27 22.5 88.5t67 124t133.5 109.5t222 47q86 0 146.5 -25.5t96 -70.5t46 -106.5t-1.5 -131.5q-10 -49 -28 -93t-49.5 -87t-79.5 -89t-116 -99q-25 -18 -27 -41 t13 -39l229 -303q92 133 121 303h223q-25 -143 -84 -261t-137 -208l105 -133l-191 -156l-92 125q-98 -63 -210 -94t-222 -31q-100 0 -183 25.5t-138.5 75t-80 121t-8.5 163.5zM274 354q-16 -84 44.5 -133t187.5 -49q74 0 138.5 20.5t121.5 57.5l-258 344q-12 14 -39 4 q-18 -6 -48 -27.5t-59.5 -53.5t-54 -74t-33.5 -89zM500 1145q-10 -57 5 -110.5t58 -119.5q57 43 94 75t59.5 59.5t33 53t16.5 56.5q4 20 2 44t-13.5 44.5t-34 32.5t-56.5 12q-47 0 -77 -15t-48.5 -37.5t-26.5 -48.5t-12 -46z" />
<glyph unicode="'" horiz-adv-x="520" d="M254 946l43 512h233l-137 -512h-139z" />
<glyph unicode="(" horiz-adv-x="614" d="M96 116q-8 120 0 245.5t31 252.5q23 125 59.5 252t87 247t114 227.5t138.5 195.5h230q-76 -82 -139.5 -186.5t-113.5 -224t-88 -250t-63 -261.5q-23 -133 -31 -262t1.5 -248.5t35 -224t72.5 -186.5h-229q-45 88 -71 195.5t-34 227.5z" />
<glyph unicode=")" horiz-adv-x="614" d="M-129 -307q74 82 137.5 186.5t113.5 224t88 248.5t60 262q25 131 33 261.5t-1 250t-35.5 224t-71.5 186.5h229q43 -88 68.5 -195.5t34 -227.5t0.5 -247t-31 -252q-23 -127 -60 -252.5t-87 -245.5t-112.5 -227.5t-138.5 -195.5h-227z" />
<glyph unicode="*" horiz-adv-x="860" d="M143 1126l37 70l37 72l244 -86l49 276h147l-49 -276l277 86l8 -72l12 -70l-274 -86l121 -219l-66 -43l-68 -45l-122 223l-201 -223l-51 45l-54 43l199 219z" />
<glyph unicode="+" d="M147 606l35 205h295q31 0 56.5 21.5t31.5 52.5l51 295h205l-51 -295q-6 -31 11.5 -52.5t47.5 -21.5h295l-34 -205h-295q-31 0 -56.5 -21.5t-31.5 -52.5l-52 -294h-204l51 294q6 31 -11.5 52.5t-48.5 21.5h-295z" />
<glyph unicode="," horiz-adv-x="520" d="M35 -213q66 70 91.5 126t31.5 87h-113l39 225h225l-20 -112q-14 -78 -55 -174.5t-132 -182.5z" />
<glyph unicode="-" horiz-adv-x="737" d="M96 571l33 189h541l-33 -189h-541z" />
<glyph unicode="." horiz-adv-x="520" d="M45 0l39 225h225l-39 -225h-225z" />
<glyph unicode="/" horiz-adv-x="819" d="M-98 -205l864 1766h184l-864 -1766h-184z" />
<glyph unicode="0" d="M103 368.5q1 141.5 36 340.5t84 340t123 232t176.5 134t245.5 43t231 -43t129 -134t41 -232.5t-34 -339.5q-35 -199 -85.5 -340.5t-124 -232.5t-176 -134t-245.5 -43t-231.5 43t-129.5 134t-40 232.5zM327.5 446.5q-8.5 -104.5 11 -166t68 -86t134.5 -24.5t143 24.5 t98 86t69.5 166t57.5 262.5q27 158 35 262t-11.5 165.5t-67.5 86t-134 24.5t-143.5 -24.5t-97 -86t-69.5 -166t-56 -261.5q-29 -158 -37.5 -262.5z" />
<glyph unicode="1" d="M88 0l37 211h338l162 917q4 18 -7.5 32t-29.5 14h-293l27 159q49 6 107 14.5t116.5 21.5t114 34.5t98.5 54.5h139l-219 -1247h338l-37 -211h-891z" />
<glyph unicode="2" d="M55 0l29 174q12 74 28.5 130t41 101.5t60.5 83t89 72.5l445 299q45 31 74.5 56.5t48 49t27.5 48t15 55.5q14 86 -40 132t-173 46q-96 0 -186 -20.5t-195 -81.5l-51 180q88 55 196.5 94t272.5 39q102 0 184.5 -23.5t135.5 -70.5t75.5 -120t4.5 -173q-12 -68 -34 -118 t-53.5 -89t-72.5 -71.5t-90 -67.5l-420 -287q-61 -43 -91 -78.5t-40 -99.5q-4 -27 7 -38t28 -11h635l-37 -211h-914z" />
<glyph unicode="3" d="M18 88l117 184q84 -61 178.5 -81.5t169.5 -20.5q139 0 235.5 58.5t121.5 191.5q6 41 0 79t-25.5 67.5t-55.5 47t-87 17.5h-303l37 211h262q104 0 164.5 60.5t76.5 144.5q16 100 -37 150t-172 50q-96 0 -186 -20.5t-195 -81.5l-51 180q88 55 196.5 94t272.5 39 q102 0 184.5 -22.5t135.5 -70.5t74.5 -123t3.5 -181q-16 -90 -49 -150.5t-91 -109.5q-23 -20 -39 -29.5t-18 -26.5q-4 -16 11.5 -25t31.5 -26q49 -41 71.5 -112.5t6.5 -167.5q-23 -123 -79 -209t-137 -141.5t-182.5 -80t-214.5 -24.5q-145 0 -250.5 37t-177.5 92z" />
<glyph unicode="4" d="M53 338l21 119q10 66 28.5 112.5t44.5 89.5l467 758h224l-463 -751q-12 -20 -21.5 -37t-13.5 -39q-4 -16 4 -28.5t33 -12.5h338l86 491h207l-86 -491h204l-36 -211h-205l-60 -338h-204l57 338h-625z" />
<glyph unicode="5" d="M37 88l117 184q84 -61 180 -81.5t172 -20.5q70 0 130 14.5t108.5 45t81 77.5t44.5 113q8 55 3 97t-29.5 70.5t-73.5 44t-125 15.5h-432l137 770h869l-37 -209h-611q-14 0 -28.5 -9t-18.5 -32l-55 -315h248q442 0 364 -434q-23 -125 -79 -212t-137 -142.5t-182 -80 t-214 -24.5q-145 0 -252.5 37t-179.5 92z" />
<glyph unicode="6" d="M87 292q-11 116 17 279q10 63 25.5 154.5t44.5 190t73 195.5t114.5 174t170 125t236.5 48q104 0 176 -20.5t119 -42.5q53 -29 88 -64l-117 -182q-35 25 -65.5 43t-64.5 30.5t-75 18.5t-98 6q-88 0 -147.5 -35.5t-97 -86t-56 -102.5t-24.5 -83q-2 -10 6 -18.5t24 0.5 q33 16 97.5 28.5t146.5 12.5q229 0 324.5 -128t54.5 -366q-20 -117 -65.5 -211t-115 -160.5t-162.5 -102.5t-212 -36q-125 0 -214 35t-140.5 108.5t-62.5 189.5zM309 471q-53 -299 221 -299q145 0 217 72.5t99 224.5q25 141 -20.5 212t-194.5 71q-152 0 -224.5 -70 t-97.5 -211z" />
<glyph unicode="7" d="M244 0l671 1090q14 20 22.5 36.5t12.5 38.5q4 16 -4 28.5t-33 12.5h-637l39 211h924l-22 -119q-10 -66 -29 -112.5t-45 -89.5l-676 -1096h-223z" />
<glyph unicode="8" d="M86 393q20 113 75.5 186.5t114.5 125.5q16 12 24.5 21t12.5 24q2 12 0 24t-14 29q-25 33 -45.5 96.5t-3.5 157.5q16 92 55 165.5t102.5 126t152.5 81t208 28.5t199 -28.5t124 -81t56 -126t-4 -165.5q-16 -94 -58.5 -157.5t-76.5 -96.5q-18 -16 -25.5 -28.5t-9.5 -24.5 q-4 -14 3 -23.5t17 -21.5q41 -51 71 -125t9 -187q-37 -211 -179 -322.5t-390 -111.5t-351.5 111.5t-66.5 322.5zM309 309q6 -41 32 -71.5t74 -49t126 -18.5q76 0 131 18.5t92 49t56.5 71.5t27.5 84q23 131 -37.5 188.5t-185.5 57.5t-208 -57.5t-106 -188.5q-8 -43 -2 -84z M449 1042q-18 -109 41 -162t167 -53q109 0 187 53.5t96 161.5q18 104 -32 154.5t-177 50.5t-195.5 -50t-86.5 -155z" />
<glyph unicode="9" d="M109 86l116 182q35 -25 66 -43t64.5 -30.5t74.5 -18.5t98 -6q88 0 147.5 36t97.5 86t56.5 102t24.5 83q2 10 -6 18.5t-25 0.5q-33 -16 -97 -28.5t-146 -12.5q-229 0 -324.5 127.5t-54.5 365.5q20 117 65 211t115 160.5t163 102.5t212 36q125 0 214 -34.5t140 -108.5 t62.5 -189.5t-17.5 -279.5q-10 -63 -25.5 -154.5t-44 -190t-72.5 -195.5t-114 -174t-170 -125t-237 -48q-104 0 -176 19.5t-119 44.5q-53 27 -88 63zM414 948q-25 -141 20 -211.5t195 -70.5q152 0 224.5 69.5t96.5 210.5q53 299 -221 299q-145 0 -216.5 -72.5t-98.5 -224.5z " />
<glyph unicode=":" horiz-adv-x="520" d="M45 0l39 225h225l-39 -225h-225zM164 676l39 225h225l-39 -225h-225z" />
<glyph unicode=";" horiz-adv-x="520" d="M35 -213q66 70 91.5 126t31.5 87h-113l39 225h225l-20 -112q-14 -78 -55 -174.5t-132 -182.5zM164 676l39 225h225l-39 -225h-225z" />
<glyph unicode="&#x3c;" d="M127 606l35 205l1018 430l-39 -225l-660 -264q-14 -6 -22.5 -15.5t-12.5 -27.5t2.5 -27.5t18.5 -15.5l565 -265l-39 -225z" />
<glyph unicode="=" d="M111 401l36 205h943l-37 -205h-942zM182 811l37 205h942l-37 -205h-942z" />
<glyph unicode="&#x3e;" d="M92 176l39 225l660 265q16 6 24 15.5t12 27.5t-2 27t-20 16l-565 264l39 225l866 -430l-35 -205z" />
<glyph unicode="?" horiz-adv-x="925" d="M205 1393q104 59 197.5 82.5t199.5 23.5q90 0 162 -22.5t118 -68.5t64 -113.5t2 -157.5q-12 -78 -51 -134.5t-89 -100.5t-106.5 -77.5t-104.5 -63.5t-82 -59.5t-40 -64.5q-6 -41 12.5 -62.5t61.5 -35.5l-88 -162q-53 10 -97.5 30.5t-74 53.5t-40.5 81t1 113q12 68 49 116 t87 86t106.5 66.5t104.5 60.5t84 67.5t44 85.5q14 84 -30 115.5t-136 31.5q-68 0 -134.5 -17.5t-154.5 -64.5zM209 0l39 225h225l-39 -225h-225z" />
<glyph unicode="@" horiz-adv-x="1904" d="M35.5 113.5q-27.5 162.5 7.5 357.5q41 229 135 412.5t237.5 310.5t334 195.5t421.5 68.5q217 0 363.5 -57.5t227.5 -160.5t104 -245.5t-8 -312.5q-29 -162 -93.5 -278.5t-147.5 -191.5t-173 -109.5t-170 -34.5q-88 0 -134 22.5t-69 50.5q-72 -47 -162 -70.5t-188 -23.5 q-80 0 -142.5 24.5t-103.5 75t-56.5 126t3.5 176.5q49 276 203.5 410t398.5 134q53 0 92 -8t74 -17.5t68.5 -16.5t76.5 -7h123l-201 -579q-16 -43 -3.5 -77t73.5 -36q39 0 90 20.5t101.5 70.5t92.5 133t64 210q23 129 8.5 238.5t-77 189.5t-176 125t-291.5 45 q-156 0 -302.5 -44t-267 -140t-210 -252t-128.5 -377q-59 -340 90.5 -521t479.5 -181q221 0 376.5 48t272.5 130l68 -148q-63 -43 -138 -83t-167.5 -69.5t-203 -47t-241.5 -17.5q-219 0 -371.5 65.5t-243 184.5t-118 281.5zM618 461q-18 -109 19 -169.5t149 -60.5 q70 0 122.5 17.5t91 54.5t68 94t56.5 135q23 70 33 122.5t-3 87t-56 52t-125 17.5q-88 0 -148.5 -26.5t-102.5 -72.5t-65.5 -110.5t-38.5 -140.5z" />
<glyph unicode="A" horiz-adv-x="1310" d="M-86 0l737 1458h316l225 -1458h-252l-41 281h-596l-137 -281h-252zM410 496h458l-88 626q-4 25 -26.5 25t-34.5 -25z" />
<glyph unicode="B" horiz-adv-x="1232" d="M51 0l256 1458h119q72 0 124 6t98 14.5t93 14.5t107 6q117 0 190.5 -34.5t111.5 -91t46 -130.5q3 -30 4 -59q0 -45 -8 -90q-18 -98 -54 -165t-87 -108q-23 -18 -39.5 -28.5t-20.5 -26.5q-2 -16 13.5 -25.5t31.5 -25.5q46 -41 70 -115q14 -44 15 -96q0 -35 -7 -74 q-16 -84 -50 -162t-90 -137t-134 -95t-178 -36h-611zM313 215h359q47 0 85 19.5t65.5 50t45 68.5t23.5 75q5 23 5 47q0 17 -3 34q-6 40 -25.5 70.5t-55.5 50t-87 19.5h-336zM428 864h295q51 0 93 18.5t73 48.5t50 68.5t26 79.5q5 27 5 55q0 9 -1 19q-2 37 -24.5 65.5 t-68.5 47t-128 18.5q-55 0 -101.5 -4t-81.5 -17.5t-56.5 -37t-27.5 -62.5z" />
<glyph unicode="C" horiz-adv-x="1245" d="M99 408q-1 26 -1 54q0 122 25 267q31 178 89 321.5t150.5 243t224.5 152.5t310 53q76 0 136.5 -10t109.5 -28.5t89 -43t75 -53.5l-136 -184q-35 23 -67.5 41t-69.5 30.5t-80 19.5t-98 7q-127 0 -213 -45t-142.5 -121t-88 -175t-50.5 -208q-18 -109 -22 -208v-23 q0 -85 26 -152q30 -76 99.5 -121t196.5 -45q109 0 187.5 25.5t162.5 73.5l71 -185q-90 -57 -197.5 -96t-260.5 -39q-178 0 -291 53.5t-170.5 152.5t-64.5 243z" />
<glyph unicode="D" horiz-adv-x="1306" d="M51 0l256 1458h119q57 0 107.5 6t96.5 14.5t91 14.5t92 6q162 0 261.5 -52t146.5 -149.5t50 -236.5q0 -12 1 -25q0 -129 -29 -286q-31 -172 -83 -311.5t-136 -237t-206 -149.5t-292 -52h-475zM313 215h252q113 0 189.5 47t127 122t80 171t48.5 195q18 98 22 194 q1 13 1 27q1 80 -21 144q-24 75 -85 122t-173 47q-106 0 -183 -21.5t-90 -93.5z" />
<glyph unicode="E" horiz-adv-x="1167" d="M51 0l256 1458h899l-37 -215h-600q-31 0 -56.5 -21.5t-31.5 -52.5l-49 -284h633l-39 -215h-633l-67 -381q-4 -31 13 -52.5t48 -21.5h600l-37 -215h-899z" />
<glyph unicode="F" horiz-adv-x="1101" d="M51 0l256 1458h858l-37 -215h-559q-31 0 -56.5 -21.5t-31.5 -52.5l-59 -338h633l-37 -215h-633l-109 -616h-225z" />
<glyph unicode="G" horiz-adv-x="1355" d="M95 402q-1 18 -1 38q0 129 29 289q33 184 90 327.5t150.5 242t226.5 149.5t317 51q90 0 156.5 -11t118 -32.5t92.5 -52.5t80 -70l-137 -184q-59 55 -141.5 92t-209.5 37t-215 -45t-145 -121t-91 -175t-53 -208q-18 -109 -22 -208v-23q0 -85 26 -152q29 -76 99 -121 t197 -45q74 0 128 9.5t91 32t59.5 59t32.5 94.5l35 198h-334l37 215h557l-138 -788h-161q-57 0 -103.5 -6t-89.5 -14.5t-87 -14.5t-97 -6q-172 0 -278.5 51t-160 149.5t-58.5 242.5z" />
<glyph unicode="H" horiz-adv-x="1390" d="M51 0l256 1458h225l-88 -500q-6 -31 12.5 -52t49.5 -21h485q31 0 55.5 21.5t30.5 51.5l88 500h226l-256 -1458h-226l105 596q4 31 -13.5 52.5t-48.5 21.5h-485q-31 0 -56.5 -21.5t-29.5 -52.5l-105 -596h-225z" />
<glyph unicode="I" horiz-adv-x="532" d="M51 0l256 1458h225l-256 -1458h-225z" />
<glyph unicode="J" horiz-adv-x="964" d="M-27 61l140 195q45 -33 94 -54.5t129 -21.5q35 0 70.5 6.5t65.5 24.5t51.5 51t31.5 86l197 1110h225l-203 -1153q-14 -78 -54 -142.5t-101.5 -109.5t-139.5 -69.5t-168 -24.5q-123 0 -200.5 25.5t-137.5 76.5z" />
<glyph unicode="K" horiz-adv-x="1208" d="M51 0l256 1458h225l-75 -428q-4 -25 -2 -37t14 -28l51 -70q18 -27 43 -27t47 27l498 563h272l-663 -727q-25 -30 -25 -56q0 -17 10 -32l418 -643h-307l-385 598q-10 16 -27.5 10t-21.5 -24l-103 -584h-225z" />
<glyph unicode="L" horiz-adv-x="1087" d="M51 0l256 1458h225l-206 -1169q-4 -31 13 -52.5t48 -21.5h600l-37 -215h-899z" />
<glyph unicode="M" horiz-adv-x="1581" d="M51 0l256 1458h291l160 -747q4 -23 17 -33t29.5 -10t34 10t29.5 33l422 747h291l-256 -1458h-225l172 977q2 12 -8.5 14t-16.5 -10l-373 -672h-266l-135 672q-4 12 -13 10t-11 -14l-173 -977h-225z" />
<glyph unicode="N" horiz-adv-x="1372" d="M51 0l256 1458h273l342 -987q4 -12 14 -17t21.5 -3t20.5 11t11 23l172 973h211l-256 -1458h-272l-344 987q-8 25 -35 19.5t-33 -33.5l-170 -973h-211z" />
<glyph unicode="O" horiz-adv-x="1400" d="M91 423q3 140 32 306t76 306.5t130 243.5t211 161.5t322 58.5q193 0 301.5 -58.5t154.5 -161.5q42 -95 43 -221q0 -10 -1 -22q-4 -140 -33 -307q-29 -166 -75 -306t-129 -243.5t-212 -162t-321 -58.5q-195 0 -302.5 58.5t-153.5 162.5q-43 97 -43 226v17zM337 515 q-1 -17 -1 -33q0 -79 20 -141q24 -75 89 -118t184 -43t197.5 43t130 118t81 174t49.5 214q19 113 25 213l2 36q0 78 -20 139q-24 75 -88 118t-183 43t-198.5 -43t-131 -118t-81.5 -175t-50 -213q-20 -115 -25 -214z" />
<glyph unicode="P" horiz-adv-x="1138" d="M51 0l256 1458h119q115 0 213 20.5t195 20.5q123 0 198.5 -38t114.5 -101.5t45 -147.5q2 -23 2 -46q0 -63 -12 -130q-16 -92 -52 -176t-99.5 -147.5t-161 -101.5t-238.5 -38q-53 0 -98.5 3.5t-79.5 7.5q-39 4 -72 10l-105 -594h-225zM418 809q27 -6 63 -10q31 -4 76 -7.5 t100 -3.5q70 0 123.5 20.5t90 55.5t58 80t29.5 92q7 46 7 86q-1 6 -1 14q-2 46 -25.5 78.5t-69.5 51t-121 18.5q-55 0 -101.5 -4t-81.5 -17.5t-56.5 -37t-27.5 -62.5z" />
<glyph unicode="Q" horiz-adv-x="1400" d="M91 423q3 140 32 306t76 307.5t130 244.5t211 161.5t322 58.5q193 0 301.5 -58.5t154.5 -161.5q42 -95 42 -222v-23q-4 -141 -33 -307q-29 -160 -72 -296t-120 -238q20 -18 49.5 -24.5t64.5 -6.5l-35 -199q-2 0 -14 -2t-39 -2q-115 0 -200 80q-72 -41 -163 -61.5 t-208 -20.5q-195 0 -302.5 58.5t-153.5 162.5q-43 97 -43 226v17zM338 438q14 12 39.5 28.5t62.5 31t87.5 24.5t115.5 10q121 0 201 -48t133 -113q43 72 67.5 163t42.5 195q20 113 25 213q2 18 2 36q0 78 -20 140q-25 76 -88.5 119t-182.5 43t-198.5 -43t-131 -119 t-81.5 -176t-50 -213q-14 -84 -21 -155q-4 -44 -4 -87q0 -25 1 -49zM412 250q-4 -16 14 -29.5t48 -23t69 -13.5t78 -4q55 0 104 9.5t86 27.5q-41 55 -93 88t-116 33q-70 0 -127 -24.5t-63 -63.5z" />
<glyph unicode="R" horiz-adv-x="1198" d="M51 0l256 1458h119q115 0 213 20.5t195 20.5q123 0 198.5 -38t114.5 -101.5t45 -147.5q2 -23 2 -46q0 -63 -12 -130q-12 -70 -38 -137.5t-66 -126.5t-95 -105t-127 -71q-25 -10 -33 -29.5t2 -44.5l209 -522h-260l-217 573h-180l-101 -573h-225zM414 788h295q51 0 93 20.5 t74.5 55.5t53 80t28.5 92q7 46 7 86q-1 6 -1 14q-2 46 -25.5 78.5t-69.5 51t-121 18.5q-55 0 -101.5 -4t-81.5 -17.5t-56.5 -37t-27.5 -62.5z" />
<glyph unicode="S" horiz-adv-x="1157" d="M6 90l129 203q74 -55 154 -83t190 -28q139 0 232.5 53.5t115.5 178.5q6 29 6 54q0 29 -8 53q-14 44 -51 76t-96.5 55.5t-138.5 47.5q-74 23 -142.5 49.5t-120.5 68.5t-76 104q-14 37 -14 85q0 33 7 70q16 92 62 170t116.5 134.5t165 87t206.5 30.5q82 0 145.5 -8 t115 -23.5t92.5 -35t78 -43.5l-130 -191q-57 35 -145 56.5t-194 21.5q-256 0 -287 -176q-3 -19 -3 -35q0 -24 7 -43q12 -31 46 -53.5t88 -41t128 -42.5q84 -29 159 -63t127 -86t74 -127q12 -42 13 -93q0 -41 -8 -88q-39 -217 -194 -343t-419 -126q-135 0 -246.5 33 t-183.5 98z" />
<glyph unicode="T" horiz-adv-x="1146" d="M158 1243l37 215h1065l-37 -215h-346q-31 0 -56.5 -21.5t-32.5 -52.5l-204 -1169h-226l205 1169q6 31 -11 52.5t-48 21.5h-346z" />
<glyph unicode="U" horiz-adv-x="1372" d="M111 344l196 1114h225l-190 -1085q-3 -17 -3 -34q0 -19 4 -38q7 -35 35 -61.5t79 -43t135 -16.5q98 0 166.5 11.5t114 36t70 64.5t34.5 99l188 1067h226l-256 -1458h-162q-72 0 -117 -6t-88 -14.5t-98.5 -14.5t-147.5 -6q-98 0 -181 21.5t-141 68.5q-56 47 -82 120 q-15 42 -15 93q0 38 8 82z" />
<glyph unicode="V" horiz-adv-x="1310" d="M170 1458h252l158 -1122q4 -25 27.5 -25t33.5 25l555 1122h252l-737 -1458h-316z" />
<glyph unicode="W" horiz-adv-x="1740" d="M158 0l32 1458h220l-35 -1122q0 -12 7 -19.5t17.5 -7.5t20.5 6.5t14 18.5l420 1124h340l23 -1124q0 -25 25.5 -25t33.5 27l362 1122h220l-480 -1458h-346l-31 1171q0 25 -23.5 25t-33.5 -25l-440 -1171h-346z" />
<glyph unicode="X" d="M-82 0l514 739q18 25 18 50q0 12 -4 24l-223 645h262l160 -502q8 -29 28.5 -28.5t41.5 28.5l336 502h262l-449 -645q-18 -25 -18 -50q0 -12 4 -24l256 -739h-266l-193 571q-10 27 -30.5 27t-38.5 -27l-394 -571h-266z" />
<glyph unicode="Y" horiz-adv-x="1187" d="M164 1458h258l176 -592q10 -35 39 -35t51 35l385 592h258l-612 -915q-16 -25 -24.5 -47.5t-12.5 -44.5l-78 -451h-225l78 451q4 23 4 45t-8 47z" />
<glyph unicode="Z" horiz-adv-x="1126" d="M-23 0l33 197l809 974q16 20 15.5 46t-35.5 26h-578l37 215h926l-35 -196l-809 -975q-8 -10 -11 -22.5t-2 -23t10 -18.5t25 -8h619l-37 -215h-967z" />
<glyph unicode="[" horiz-adv-x="614" d="M-4 -307l326 1843h399l-37 -207h-149q-18 0 -34 -13t-20 -32l-235 -1339q-4 -18 7 -31.5t30 -13.5h149l-37 -207h-399z" />
<glyph unicode="\" horiz-adv-x="819" d="M213 1561h184l242 -1766h-184z" />
<glyph unicode="]" horiz-adv-x="614" d="M-96 -307l37 207h149q18 0 33.5 13t19.5 32l236 1339q4 18 -7.5 31.5t-29.5 13.5h-149l36 207h400l-326 -1843h-399z" />
<glyph unicode="^" d="M66 494l596 942h204l264 -942h-225l-155 612q-4 14 -12.5 21.5t-26.5 7.5t-28.5 -7.5t-18.5 -21.5l-373 -612h-225z" />
<glyph unicode="_" horiz-adv-x="768" d="M-174 -418l33 189h766l-33 -189h-766z" />
<glyph unicode="`" d="M461 1458h307l51 -293h-205z" />
<glyph unicode="a" horiz-adv-x="1200" d="M59 282v17q0 98 21 221q25 133 63.5 237.5t105 176.5t165 109.5t241.5 37.5q68 0 109 -6t73.5 -14t66.5 -14.5t87 -6.5h146l-183 -1040h-145q-53 0 -89 -6t-72 -14.5t-80 -14.5t-111 -6q-143 0 -228.5 38t-126.5 109.5t-43 175.5zM282 374v-18q0 -56 17 -96 q20 -47 68.5 -73.5t138.5 -26.5t146.5 17.5t90 49t50 75.5t26.5 95l43 246q8 51 8 95t-23.5 76t-73.5 49.5t-140 17.5t-147.5 -27t-94.5 -74t-57.5 -113.5t-34.5 -146.5t-17 -146z" />
<glyph unicode="b" horiz-adv-x="1200" d="M41 0l256 1458h205l-72 -409q-4 -23 29 -11q61 23 125.5 33t136.5 10q143 0 228 -37.5t126 -109.5t43 -176v-20q0 -97 -22 -218q-23 -133 -62 -237.5t-105.5 -176t-164.5 -109.5t-242 -38q-68 0 -108.5 6t-73.5 14.5t-66.5 14.5t-87.5 6h-145zM306 302q1 -44 23.5 -75.5 t73 -49t140.5 -17.5t148.5 26.5t95 73.5t56 113.5t34.5 146.5q14 80 17 146v18q0 55 -16 96q-20 47 -69 74t-139 27t-146.5 -17.5t-90.5 -49.5t-50 -76t-25 -95l-43 -246q-9 -46 -9 -87v-8z" />
<glyph unicode="c" horiz-adv-x="1038" d="M62 282q-1 17 -1 35q0 91 19 203q25 133 65.5 237.5t110.5 176.5t170 109.5t244 37.5q123 0 210 -33.5t146 -86.5l-133 -193q-47 47 -110.5 79t-141.5 32q-92 0 -152.5 -28t-100.5 -75t-61.5 -113.5t-35.5 -142.5q-11 -78 -13 -144v-8q0 -60 20 -104q22 -47 73 -74.5 t143 -27.5q78 0 152.5 31.5t138.5 78.5l65 -192q-78 -53 -177 -87t-222 -34q-143 0 -230 38t-131 109.5t-48 175.5z" />
<glyph unicode="d" horiz-adv-x="1200" d="M59 282v17q0 98 21 221q25 133 63.5 237.5t105 176.5t165 109.5t241.5 37.5q72 0 132.5 -10t113.5 -33q12 -6 21.5 -3t11.5 14l72 409h204l-256 -1458h-145q-53 0 -89 -6t-72 -14.5t-80 -14.5t-111 -6q-143 0 -228.5 38t-126.5 109.5t-43 175.5zM282 374v-18 q0 -56 17 -96q20 -47 68.5 -73.5t138.5 -26.5t146.5 17.5t90 49t50 75.5t26.5 95l43 246q8 51 8 95t-23.5 76t-73.5 49.5t-140 17.5t-147.5 -27t-94.5 -74t-57.5 -113.5t-34.5 -146.5t-17 -146z" />
<glyph unicode="e" horiz-adv-x="1089" d="M80 518q25 133 66.5 237.5t111.5 177.5t168 110.5t233 37.5q106 0 182.5 -34.5t119.5 -96t56 -147.5q5 -36 5 -75q0 -54 -10 -112q-16 -82 -55 -131t-126 -49h-507q-35 0 -45 -45q-4 -25 -4 -48q0 -75 46 -122q60 -61 189 -61q96 0 178 27.5t148 68.5l61 -176 q-78 -53 -177 -87t-247 -34q-258 1 -349 147q-60 97 -60 245q0 76 16 167zM324 649q-6 -45 30 -45h410q37 0 43 45q6 34 6 64q0 62 -28 105q-42 63 -173 63q-123 0 -195.5 -62.5t-92.5 -169.5z" />
<glyph unicode="f" horiz-adv-x="737" d="M29 -418l213 1209q4 18 -8.5 31.5t-30.5 13.5h-86l37 204h86q18 0 33.5 13.5t19.5 31.5l14 86q14 88 50 143.5t85.5 87.5t108.5 44t121 12h147l-37 -205h-153q-102 0 -121 -106l-10 -62q-4 -18 7 -31.5t30 -13.5h200l-37 -204h-200q-18 0 -32.5 -13.5t-19.5 -31.5 l-213 -1209h-204z" />
<glyph unicode="g" horiz-adv-x="1200" d="M4 -145h229q10 -57 63.5 -84t143.5 -27q121 0 202 58.5t103 177.5l9 53q4 23 -29 10q-59 -23 -123.5 -33t-136.5 -10q-143 0 -229 35t-127 102.5t-45 168.5v28q0 92 20 207q25 133 62.5 234.5t103 169t164 102t241.5 34.5q68 0 109 -6t73.5 -14t66.5 -14.5t87 -6.5h146 l-191 -1077q-35 -199 -174 -306.5t-362 -107.5q-70 0 -140.5 14.5t-128 50.5t-95.5 94.5t-42 146.5zM287 398v-12q0 -56 19 -95q20 -43 69 -66.5t139 -23.5t146.5 17.5t90 49t49 75.5t25.5 95l37 205q8 51 8 95t-23.5 76t-73.5 49.5t-140 17.5t-147.5 -23.5t-93.5 -66.5 t-55.5 -106.5t-33.5 -143.5t-16 -143z" />
<glyph unicode="h" horiz-adv-x="1193" d="M41 0l256 1458h205l-74 -414q-4 -20 31 -6q61 23 129.5 33t161.5 10q86 0 157.5 -17t118.5 -57q46 -39 66 -103q11 -35 11 -78q0 -35 -7 -76l-131 -750h-205l125 717q6 31 3 60.5t-21.5 53t-57.5 37t-104 13.5q-90 0 -150.5 -10.5t-99.5 -35t-60.5 -66.5t-32.5 -105 l-116 -664h-205z" />
<glyph unicode="i" horiz-adv-x="520" d="M55 0l183 1040h204l-182 -1040h-205zM262 1233l39 225h225l-39 -225h-225z" />
<glyph unicode="j" horiz-adv-x="520" d="M-190 -418l34 205h70q102 0 121 107l203 1146h204l-206 -1171q-16 -88 -51 -143.5t-84.5 -87t-106.5 -44t-119 -12.5h-65zM262 1233l39 225h225l-39 -225h-225z" />
<glyph unicode="k" horiz-adv-x="1060" d="M45 0l256 1458h205l-98 -563q-4 -25 -2 -37t12 -29l33 -47q13 -19 29 -19q15 0 34 17l303 260h275l-482 -401q-25 -20 -26.5 -37.5t12.5 -40.5l373 -561h-275l-311 494q-10 16 -27.5 10t-21.5 -25l-84 -479h-205z" />
<glyph unicode="l" horiz-adv-x="561" d="M94 229l217 1229h205l-209 -1188q-3 -14 -2 -26q0 -60 68 -60h41l-35 -204h-68q-49 0 -94 13t-75 41q-32 30 -46 78q-8 27 -7 59q0 27 5 58z" />
<glyph unicode="m" horiz-adv-x="1708" d="M41 0l182 1040h146q49 0 88 6.5t75.5 14.5t76.5 14t89 6q68 0 107 -9t65.5 -21.5t48 -21.5t56.5 -9q41 0 71.5 9t66.5 21.5t83 21.5t119 9t133 -16t103 -54q41 -37 59 -99q9 -32 9 -73q0 -36 -7 -79l-133 -760h-205l129 735q2 16 2 30q-1 43 -23 75q-30 42 -133 41 q-119 0 -184.5 -46.5t-85.5 -170.5l-117 -664h-205l129 735q2 16 2 30q0 43 -22 75q-30 42 -133 41q-119 0 -184.5 -46.5t-86.5 -170.5l-116 -664h-205z" />
<glyph unicode="n" horiz-adv-x="1193" d="M41 0l182 1040h146q53 0 90 6.5t74.5 14.5t88 14t128.5 6q86 0 157.5 -17t118.5 -57q46 -39 66 -103q11 -35 11 -78q0 -35 -7 -76l-131 -750h-205l125 717q6 31 3 60.5t-21.5 53t-57.5 37t-104 13.5q-90 0 -150.5 -10.5t-99.5 -35t-60.5 -66.5t-32.5 -105l-116 -664h-205 z" />
<glyph unicode="o" horiz-adv-x="1163" d="M62 282q-1 17 -1 35q0 91 19 203q25 133 65.5 237.5t110.5 176.5t170 109.5t244 37.5q143 0 230 -37.5t130 -109.5t48 -176q1 -18 1 -37q0 -91 -20 -201q-23 -133 -64 -237.5t-110.5 -176t-170 -109.5t-243.5 -38t-230 38t-131 109.5t-48 175.5zM276 376v-13 q0 -57 20 -100q22 -48 72 -75.5t138 -27.5t147.5 27.5t98.5 75.5t61.5 113.5t34.5 143.5q14 76 15 142v6q-1 63 -21 109q-22 48 -71.5 76t-137.5 28t-147.5 -28t-98.5 -76t-60.5 -114.5t-35.5 -142.5q-13 -78 -15 -144z" />
<glyph unicode="p" horiz-adv-x="1200" d="M-33 -418l256 1458h146q53 0 89 6.5t71.5 14.5t79.5 14t112 6q143 0 228 -37.5t126 -109.5t43 -176q1 -10 1 -20q0 -97 -23 -218q-23 -133 -62 -237.5t-105.5 -176t-164.5 -109.5t-242 -38q-72 0 -132 10.5t-114 32.5q-29 12 -32 -10l-72 -410h-205zM306 302 q1 -44 23.5 -75.5t73 -49t140.5 -17.5t148.5 26.5t95 73.5t56 113.5t34.5 146.5q14 80 17 146v18q0 55 -16 96q-20 47 -69 74t-139 27t-146.5 -17.5t-90.5 -49.5t-50 -76t-25 -95l-43 -246q-9 -46 -9 -87v-8z" />
<glyph unicode="q" horiz-adv-x="1200" d="M59 282v17q0 99 21 221q25 133 63.5 237.5t105 176.5t165 109.5t241.5 37.5q68 0 109 -6t73.5 -14t66.5 -14.5t87 -6.5h146l-256 -1458h-205l72 410q2 10 -6.5 13t-22.5 -3q-61 -23 -126 -33t-136 -10q-143 0 -228.5 38t-126.5 109.5t-43 175.5zM282 374v-18 q0 -55 17 -96q20 -47 68.5 -73.5t138.5 -26.5t146.5 17.5t90 49t50 75.5t26.5 95l43 246q8 51 8 95t-23.5 76t-73.5 49.5t-140 17.5t-147.5 -27t-94.5 -74t-57.5 -113.5t-34.5 -146.5t-17 -146z" />
<glyph unicode="r" horiz-adv-x="798" d="M41 0l182 1040h146q37 0 68.5 6.5t63 14.5t66.5 14t80 6q106 0 160 -41l-78 -184q-23 10 -57.5 17.5t-83.5 7.5q-96 0 -149.5 -43t-73.5 -154l-119 -684h-205z" />
<glyph unicode="s" horiz-adv-x="1024" d="M-23 88l132 195q29 -27 66.5 -48.5t79.5 -37t85 -24.5t84 -9q109 0 178.5 26.5t85.5 118.5q6 33 0 55.5t-31.5 40t-72.5 29.5t-123 23q-86 12 -149.5 31.5t-104.5 53.5q-41 32 -55 84q-8 27 -8 62q0 30 6 66q16 88 56 150.5t101.5 102.5t141 57t174.5 17q68 0 120 -6 t95 -19.5t79.5 -31.5t73.5 -43l-127 -180q-55 41 -134 59.5t-165 18.5t-140 -27t-65 -82q-4 -25 -2 -45t21.5 -35.5t64.5 -27t125 -19.5q78 -8 145.5 -28.5t113.5 -57.5t68 -94q13 -35 13 -79q0 -29 -6 -62q-31 -174 -152.5 -268.5t-363.5 -94.5q-61 0 -121.5 9t-114 25.5 t-98.5 40t-76 54.5z" />
<glyph unicode="t" horiz-adv-x="768" d="M117 836l26 143q106 47 169 118.5t91 151.5h123l-28 -164q-4 -18 7 -31.5t30 -13.5h221l-37 -204h-221q-18 0 -32.5 -13.5t-19.5 -31.5l-86 -480q-3 -16 -3 -29q0 -77 87 -77h134l-35 -205h-127q-61 0 -115.5 12.5t-93.5 44t-55 87.5q-8 27 -9 62q0 36 9 81l90 504 q4 18 -8.5 31.5t-30.5 13.5h-86z" />
<glyph unicode="u" horiz-adv-x="1193" d="M72 291l131 749h205l-127 -716q-6 -31 -3 -61t21 -53.5t57 -36.5t105 -13q90 0 150.5 10t99.5 34.5t60.5 66.5t33.5 106l117 663h204l-182 -1040h-145q-53 0 -90 -6t-75 -14.5t-88 -14.5t-128 -6q-86 0 -158 17.5t-119 57.5t-67 104q-10 34 -10 75q0 36 8 78z" />
<glyph unicode="v" horiz-adv-x="1058" d="M100 1040h238l117 -706q4 -23 26.5 -23t32.5 23l367 706h237l-557 -1040h-268z" />
<glyph unicode="w" horiz-adv-x="1564" d="M121 1040h227l19 -704q2 -23 25.5 -24t33.5 22l328 706h217l78 -706q4 -23 27.5 -22t31.5 24l268 704h228l-420 -1040h-303l-70 682q0 10 -10 10q-8 0 -15 -10l-307 -682h-303z" />
<glyph unicode="x" horiz-adv-x="1064" d="M-100 0l460 528q25 27 11 54l-240 458h250l147 -303q10 -24 25.5 -24.5t36.5 24.5l254 303h250l-400 -458q-25 -27 -10 -54l277 -528h-254l-181 373q-12 24 -27.5 24.5t-33.5 -24.5l-311 -373h-254z" />
<glyph unicode="y" horiz-adv-x="1193" d="M-6 -145h229q10 -57 63.5 -84t143.5 -27q121 0 202 58.5t103 177.5l8 53q2 10 -6 12t-20 -2q-59 -23 -128 -33t-163 -10q-86 0 -157.5 17.5t-119 57.5t-67.5 103q-10 34 -10 76q0 36 8 78l125 708h203l-119 -675q-6 -31 -3 -61t22.5 -53.5t58.5 -36.5t104 -13 q90 0 150.5 10t98.5 34.5t59.5 66.5t31.5 106l111 622h204l-190 -1077q-35 -199 -174 -306.5t-363 -107.5q-70 0 -140.5 14.5t-127.5 50.5t-95 94.5t-42 146.5z" />
<glyph unicode="z" horiz-adv-x="919" d="M-14 0l26 158l525 608q18 23 16 49.5t-41 26.5h-358l34 198h719l-28 -157l-525 -609q-16 -23 -14 -49t41 -26h420l-35 -199h-780z" />
<glyph unicode="{" horiz-adv-x="614" d="M33 -158l125 588q10 53 -28 94t-89 68l8 45q59 27 111.5 67.5t60.5 94.5l84 587q10 78 53 114t121 36h242l-37 -207h-135q-49 0 -60 -53q-12 -76 -22 -149.5t-20.5 -152.5t-23 -167.5t-30.5 -192.5t-36.5 -192t-36 -167t-34 -152.5t-30.5 -149.5q-6 -53 41 -53h135 l-37 -207h-241q-78 0 -108 35.5t-13 113.5z" />
<glyph unicode="|" horiz-adv-x="512" d="M-4 -307l326 1843h204l-325 -1843h-205z" />
<glyph unicode="}" horiz-adv-x="614" d="M-96 -307l37 207h135q51 0 57 53q14 76 23.5 149.5t19.5 152.5t22.5 167t30.5 192t37 192.5t37.5 167.5t34.5 152.5t29 149.5q10 53 -39 53h-135l36 207h242q78 0 107.5 -36t13.5 -114l-125 -587q-10 -53 26.5 -94t88.5 -68l-9 -45q-59 -27 -110 -68t-60 -94l-84 -588 q-10 -78 -53 -113.5t-121 -35.5h-241z" />
<glyph unicode="&#xa1;" horiz-adv-x="520" d="M-51 -418l123 535l133 506h123l-43 -506l-66 -535h-270zM188 815l39 225h226l-39 -225h-226z" />
<glyph unicode="&#xa2;" d="M156 709q51 297 221 460.5t481 163.5h24.5t22.5 -2l109 230h160l-121 -254q98 -27 174 -90l-127 -185q-74 49 -144 70l-374 -799q43 -6 96 -6q78 0 150.5 20.5t158.5 67.5l62 -184q-90 -57 -191.5 -87t-218.5 -30q-86 0 -156 12l-92 -198h-160l113 241 q-139 70 -183 214.5t-5 355.5zM375.5 504q13.5 -88 75.5 -142l356 758q-100 -2 -173 -32.5t-123 -84t-81 -128t-45 -166.5q-23 -117 -9.5 -205z" />
<glyph unicode="&#xa3;" d="M14 0l37 211h154l78 440h-154l27 154h153l47 266q18 100 65.5 173t115 120t153.5 70.5t180 23.5q68 0 119 -8t94 -23.5t80 -37t72 -48.5l-117 -180q-84 57 -151.5 71.5t-132.5 14.5q-104 0 -172 -46t-82 -132l-48 -264h394l-27 -154h-393l-78 -440h619l-37 -211h-996z " />
<glyph unicode="&#xa5;" d="M74 342l26 154h381q-2 10 -3 22t-5 25l-33 108h-311l27 154h235l-192 612h256l163 -551q10 -35 39 -35t52 35l360 551h256l-410 -612h236l-27 -154h-311l-74 -108q-8 -12 -14 -24.5t-10 -22.5h381l-27 -154h-385l-59 -342h-226l60 342h-385z" />
<glyph unicode="&#xa6;" horiz-adv-x="512" d="M-4 -307l156 880h204l-155 -880h-205zM166 655l156 881h204l-155 -881h-205z" />
<glyph unicode="&#xa7;" horiz-adv-x="4464" d="M102 487v52h377v-23q0 -78 53.5 -136t145.5 -58q61 0 108.5 33.5t47.5 90.5q0 51 -27 78t-68 47l-344 172q-78 39 -134 83t-91 96.5t-51.5 118t-16.5 147.5q0 98 42 184t116 150.5t175.5 102.5t221.5 38q150 0 254.5 -54.5t171 -134t97 -168.5t30.5 -159v-19h-391 q-8 70 -48 118t-118 48q-27 0 -53.5 -7t-48 -20.5t-34.5 -36t-13 -52.5q0 -35 16.5 -60.5t57.5 -44.5l288 -129q68 -31 131.5 -73t113.5 -99t81 -129t31 -160q0 -106 -43 -202.5t-117 -170t-173 -117.5t-212 -44q-145 0 -253 49t-179.5 126t-107.5 172t-36 191zM1286 449 v591h383v-581q0 -68 38 -109t120 -41q55 0 105 35t50 107v589h379v-1169q0 -90 -34.5 -180t-103.5 -162t-169 -116t-231 -44q-106 0 -199.5 40t-164 106.5t-113.5 154.5t-50 185l385 -2q10 -59 53.5 -86t98.5 -27q72 0 109.5 39t37.5 100v119q-53 -27 -101 -38t-101 -11 q-117 0 -208 44t-153.5 114.5t-96.5 159.5t-34 182zM2441 0v1077q0 141 41 251t118 184.5t187.5 112.5t247.5 38h252v-399h-248q-53 0 -90 -7.5t-60.5 -27t-34.5 -54t-11 -90.5v-45h364v-378h-364v-662h-402zM3287 449v591h383v-581q0 -68 38 -109t120 -41q55 0 105 35 t50 107v589h379v-1169q0 -90 -34.5 -180t-103.5 -162t-169 -116t-231 -44q-106 0 -199.5 40t-164.5 106.5t-114 154.5t-49 185l385 -2q10 -59 53.5 -86t98.5 -27q72 0 109.5 39t37.5 100v119q-53 -27 -101 -38t-101 -11q-117 0 -208 44t-153.5 114.5t-96.5 159.5t-34 182z " />
<glyph unicode="&#xa8;" d="M412 1233l39 225h225l-39 -225h-225zM821 1233l39 225h225l-38 -225h-226z" />
<glyph unicode="&#xa9;" horiz-adv-x="1654" d="M110.5 406.5q-16.5 138.5 12.5 302.5t93.5 302t168.5 237.5t251.5 154.5t340.5 55t319.5 -55t197.5 -154.5t87 -238t-12 -301.5q-29 -164 -94.5 -302.5t-170 -237.5t-251.5 -154.5t-340 -55.5t-320 55.5t-196.5 154.5t-86 237.5zM271.5 470q13.5 -110 67.5 -188.5 t153.5 -123.5t248.5 -45q147 0 262 45t198 123.5t135.5 188.5t74.5 239q23 129 9.5 238.5t-69 188t-154.5 124t-249 45.5q-147 0 -262 -45.5t-197.5 -125t-134 -188t-73.5 -237.5q-23 -129 -9.5 -239zM454 519.5q-3 83.5 15 189.5t51 189t88.5 140.5t136 88t195.5 30.5 q98 0 169 -27.5t118 -68.5l-109 -154q-37 37 -88 62.5t-112 25.5q-74 0 -122 -21.5t-80 -60.5t-49.5 -91t-27.5 -113q-12 -61 -13 -113.5t17.5 -91.5t59 -60.5t114.5 -21.5q61 0 120.5 25.5t109.5 62.5l55 -154q-63 -41 -142 -68.5t-178 -27.5q-115 0 -185.5 31t-105 88 t-37.5 140.5z" />
<glyph unicode="&#xab;" horiz-adv-x="1024" d="M70 580l14 71l414 326l71 -115l-256 -217q-35 -29 -10 -59l178 -217l-112 -115zM479 580l15 71l413 326l72 -115l-256 -217q-35 -29 -10 -59l178 -217l-113 -115z" />
<glyph unicode="&#xac;" horiz-adv-x="1765" d="M137 729q29 160 114 300t208 244.5t274.5 165t310.5 60.5q160 0 289 -60.5t215 -165t122 -244.5t7 -300t-113.5 -300t-207.5 -244.5t-273.5 -165t-310.5 -60.5t-290 60.5t-216 165t-122 244.5t-7 300z" />
<glyph unicode="&#xad;" horiz-adv-x="737" d="M96 571l33 189h541l-33 -189h-541z" />
<glyph unicode="&#xae;" horiz-adv-x="518" d="M156 1233q16 98 78.5 161.5t179.5 63.5t155.5 -63.5t22.5 -161.5q-18 -98 -79.5 -161.5t-178.5 -63.5t-157 63.5t-21 161.5zM195 1233q-16 -84 16.5 -136.5t128.5 -52.5q98 0 148.5 51.5t66.5 137.5q14 84 -18.5 136t-128.5 52q-98 0 -148.5 -51t-64.5 -137zM272 1114 l43 244h21q18 0 35.5 3t38.5 3q47 0 58 -23.5t5 -54.5q-4 -23 -16.5 -43t-36.5 -31q-10 -4 -4 -12l33 -86h-43l-35 96h-43l-19 -96h-37zM334 1245h63q16 0 25.5 12.5t13.5 28.5q4 18 -3 29.5t-38 11.5q-23 0 -35 -3t-16 -15z" />
<glyph unicode="&#xaf;" d="M461 1251l33 189h540l-33 -189h-540z" />
<glyph unicode="&#xb0;" horiz-adv-x="778" d="M176 1147q27 145 124 228t243 83q145 0 213.5 -83t42.5 -228q-25 -145 -123.5 -228t-243.5 -83t-212.5 82.5t-43.5 228.5zM342 1147q-12 -72 21.5 -109t99.5 -37t112 37t58 109t-20.5 108.5t-98.5 36.5t-113 -36.5t-59 -108.5z" />
<glyph unicode="&#xb1;" d="M78 211l35 205h942l-35 -205h-942zM172 750l37 204h295q31 0 55.5 21.5t30.5 52.5l31 178h204l-30 -178q-6 -31 12 -52.5t49 -21.5h295l-37 -204h-295q-31 0 -56.5 -21.5t-29.5 -52.5l-33 -178h-204l32 178q4 31 -13 52.5t-48 21.5h-295z" />
<glyph unicode="&#xb4;" d="M614 1165l154 293h307l-256 -293h-205z" />
<glyph unicode="&#xb7;" horiz-adv-x="520" d="M141 553l41 225h226l-41 -225h-226z" />
<glyph unicode="&#xb8;" d="M262 -399l72 149q29 -14 56.5 -19t64.5 -5q35 0 57.5 8t26.5 28q2 18 -21.5 27.5t-51.5 21t-50.5 29t-16.5 51.5q4 25 23.5 53.5t48.5 55.5h82l-12 -63q-6 -31 22.5 -44.5t62 -29t59 -45t15.5 -90.5q-8 -47 -31.5 -79t-57 -51.5t-76.5 -27.5t-91 -8q-113 0 -182 39z" />
<glyph unicode="&#xbb;" horiz-adv-x="1024" d="M55 369l256 217q35 29 11 59l-179 217l113 115l299 -326l-14 -71l-414 -326zM465 369l256 217q35 29 10 59l-178 217l113 115l299 -326l-15 -71l-413 -326z" />
<glyph unicode="&#xbf;" horiz-adv-x="925" d="M-68 -96q14 76 53.5 133t89.5 101t105.5 78t103.5 63.5t81.5 59.5t40.5 64q8 41 -11.5 62.5t-60.5 36.5l88 162q53 -10 97 -31t73 -53.5t41 -80.5t0 -114q-12 -68 -50 -116t-88.5 -86t-105.5 -66.5t-104 -60t-85 -67.5t-44 -85q-14 -86 30.5 -117t137.5 -31 q68 0 133 17.5t155 64.5l64 -190q-104 -59 -196.5 -83t-198.5 -24q-182 0 -280 91.5t-69 271.5zM410 815l39 225h225l-39 -225h-225z" />
<glyph unicode="&#xc0;" horiz-adv-x="1310" d="M-86 0l737 1458h316l225 -1458h-252l-41 281h-596l-137 -281h-252zM410 496h458l-88 626q-4 25 -26.5 25t-34.5 -25zM575 1876h308l51 -293h-205z" />
<glyph unicode="&#xc1;" horiz-adv-x="1310" d="M-86 0l737 1458h316l225 -1458h-252l-41 281h-596l-137 -281h-252zM410 496h458l-88 626q-4 25 -26.5 25t-34.5 -25zM729 1583l154 293h307l-256 -293h-205z" />
<glyph unicode="&#xc2;" horiz-adv-x="1310" d="M-86 0l737 1458h316l225 -1458h-252l-41 281h-596l-137 -281h-252zM410 496h458l-88 626q-4 25 -26.5 25t-34.5 -25zM483 1583l256 293h287l154 -293h-205l-119 146l-168 -146h-205z" />
<glyph unicode="&#xc3;" horiz-adv-x="1310" d="M-86 0l737 1458h316l225 -1458h-252l-41 281h-596l-137 -281h-252zM410 496h458l-88 626q-4 25 -26.5 25t-34.5 -25zM467 1583q25 139 99.5 200.5t166.5 61.5q41 0 75 -6t63.5 -14t58 -14.5t59.5 -6.5q29 0 48.5 19.5t25.5 52.5h184q-25 -139 -100.5 -200.5t-167.5 -61.5 q-41 0 -75 6t-63.5 14t-57 14.5t-58.5 6.5q-29 0 -48.5 -19.5t-25.5 -52.5h-184z" />
<glyph unicode="&#xc4;" horiz-adv-x="1310" d="M-86 0l737 1458h316l225 -1458h-252l-41 281h-596l-137 -281h-252zM410 496h458l-88 626q-4 25 -26.5 25t-34.5 -25zM526 1651l39 225h226l-39 -225h-226zM936 1651l39 225h225l-39 -225h-225z" />
<glyph unicode="&#xc5;" horiz-adv-x="1310" d="M-86 0l737 1458h316l225 -1458h-252l-41 281h-596l-137 -281h-252zM410 496h458l-88 626q-4 25 -26.5 25t-34.5 -25zM653 1774q8 43 31 81.5t56.5 67.5t75.5 45.5t85 16.5t79 -16.5t59.5 -45.5t33.5 -67.5t2 -81.5t-30.5 -82t-56.5 -68t-76 -45t-85 -16t-78.5 16t-59 45 t-34 68t-2.5 82zM735 1774q-10 -53 21.5 -91t85.5 -38q53 0 97 38t54 91t-21.5 91t-84.5 38t-97.5 -38t-54.5 -91z" />
<glyph unicode="&#xc7;" horiz-adv-x="1245" d="M97 429q-3 134 26 300q31 178 89 321.5t150.5 243t224.5 152.5t310 53q76 0 136.5 -10t109.5 -28.5t89 -43t75 -53.5l-136 -184q-35 23 -67.5 41t-69.5 30.5t-80 19.5t-98 7q-127 0 -213 -45t-142.5 -121t-88 -175t-50.5 -208q-18 -109 -22 -208t25.5 -175t99.5 -121 t197 -45q109 0 187.5 25.5t162.5 73.5l71 -185q-90 -57 -197.5 -96t-260.5 -39l-4 -22q-6 -31 22.5 -44.5t62 -29t59 -45t15.5 -90.5q-8 -47 -31.5 -79t-57.5 -51.5t-77 -27.5t-90 -8q-113 0 -182 39l72 149q29 -14 56.5 -19t64.5 -5q35 0 57 8t26 28q2 18 -21.5 27.5 t-51 21t-50 29t-16.5 51.5q6 39 39 74q-145 14 -236.5 73.5t-136.5 158t-48 232.5z" />
<glyph unicode="&#xc8;" horiz-adv-x="1167" d="M51 0l256 1458h899l-37 -215h-600q-31 0 -56.5 -21.5t-31.5 -52.5l-49 -284h633l-39 -215h-633l-67 -381q-4 -31 13 -52.5t48 -21.5h600l-37 -215h-899zM545 1876h307l51 -293h-205z" />
<glyph unicode="&#xc9;" horiz-adv-x="1167" d="M51 0l256 1458h899l-37 -215h-600q-31 0 -56.5 -21.5t-31.5 -52.5l-49 -284h633l-39 -215h-633l-67 -381q-4 -31 13 -52.5t48 -21.5h600l-37 -215h-899zM657 1583l154 293h307l-256 -293h-205z" />
<glyph unicode="&#xca;" horiz-adv-x="1167" d="M51 0l256 1458h899l-37 -215h-600q-31 0 -56.5 -21.5t-31.5 -52.5l-49 -284h633l-39 -215h-633l-67 -381q-4 -31 13 -52.5t48 -21.5h600l-37 -215h-899zM412 1583l256 293h286l154 -293h-205l-119 146l-168 -146h-204z" />
<glyph unicode="&#xcb;" horiz-adv-x="1167" d="M51 0l256 1458h899l-37 -215h-600q-31 0 -56.5 -21.5t-31.5 -52.5l-49 -284h633l-39 -215h-633l-67 -381q-4 -31 13 -52.5t48 -21.5h600l-37 -215h-899zM455 1651l39 225h225l-39 -225h-225zM864 1651l39 225h225l-38 -225h-226z" />
<glyph unicode="&#xcc;" horiz-adv-x="532" d="M51 0l256 1458h225l-256 -1458h-225zM186 1876h308l51 -293h-205z" />
<glyph unicode="&#xcd;" horiz-adv-x="532" d="M51 0l256 1458h225l-256 -1458h-225zM340 1583l154 293h307l-256 -293h-205z" />
<glyph unicode="&#xce;" horiz-adv-x="532" d="M51 0l256 1458h225l-256 -1458h-225zM94 1583l256 293h287l154 -293h-205l-119 146l-168 -146h-205z" />
<glyph unicode="&#xcf;" horiz-adv-x="532" d="M51 0l256 1458h225l-256 -1458h-225zM137 1651l39 225h225l-39 -225h-225zM547 1651l39 225h225l-39 -225h-225z" />
<glyph unicode="&#xd1;" horiz-adv-x="1372" d="M51 0l256 1458h273l342 -987q4 -12 14 -17t21.5 -3t20.5 11t11 23l172 973h211l-256 -1458h-272l-344 987q-8 25 -35 19.5t-33 -33.5l-170 -973h-211zM498 1583q25 139 99.5 200.5t166.5 61.5q41 0 74.5 -6t63.5 -14t58.5 -14.5t59.5 -6.5q29 0 48 19.5t26 52.5h184 q-25 -139 -100.5 -200.5t-167.5 -61.5q-41 0 -75 6t-63.5 14t-57.5 14.5t-58 6.5q-29 0 -48.5 -19.5t-25.5 -52.5h-184z" />
<glyph unicode="&#xd2;" horiz-adv-x="1400" d="M91 423q3 140 32 306t76 306.5t130 243.5t211 161.5t322 58.5q193 0 301.5 -58.5t154.5 -161.5t42 -243.5t-33 -306.5t-75 -306t-129 -243.5t-212 -162t-321 -58.5q-195 0 -302.5 58.5t-153.5 162t-43 243.5zM337 515q-5 -99 19.5 -174t89 -118t183.5 -43t197.5 43 t130 118t81 174t49.5 214q20 113 25.5 213t-19 175t-88 118t-182.5 43t-198.5 -43t-131 -118t-81.5 -175t-50 -213q-20 -115 -25 -214zM621 1876h307l51 -293h-205z" />
<glyph unicode="&#xd3;" horiz-adv-x="1400" d="M91 423q3 140 32 306t76 306.5t130 243.5t211 161.5t322 58.5q193 0 301.5 -58.5t154.5 -161.5t42 -243.5t-33 -306.5t-75 -306t-129 -243.5t-212 -162t-321 -58.5q-195 0 -302.5 58.5t-153.5 162t-43 243.5zM337 515q-5 -99 19.5 -174t89 -118t183.5 -43t197.5 43 t130 118t81 174t49.5 214q20 113 25.5 213t-19 175t-88 118t-182.5 43t-198.5 -43t-131 -118t-81.5 -175t-50 -213q-20 -115 -25 -214zM774 1583l154 293h307l-256 -293h-205z" />
<glyph unicode="&#xd4;" horiz-adv-x="1400" d="M91 423q3 140 32 306t76 306.5t130 243.5t211 161.5t322 58.5q193 0 301.5 -58.5t154.5 -161.5t42 -243.5t-33 -306.5t-75 -306t-129 -243.5t-212 -162t-321 -58.5q-195 0 -302.5 58.5t-153.5 162t-43 243.5zM337 515q-5 -99 19.5 -174t89 -118t183.5 -43t197.5 43 t130 118t81 174t49.5 214q20 113 25.5 213t-19 175t-88 118t-182.5 43t-198.5 -43t-131 -118t-81.5 -175t-50 -213q-20 -115 -25 -214zM528 1583l256 293h287l154 -293h-205l-119 146l-168 -146h-205z" />
<glyph unicode="&#xd5;" horiz-adv-x="1400" d="M91 423q3 140 32 306t76 306.5t130 243.5t211 161.5t322 58.5q193 0 301.5 -58.5t154.5 -161.5t42 -243.5t-33 -306.5t-75 -306t-129 -243.5t-212 -162t-321 -58.5q-195 0 -302.5 58.5t-153.5 162t-43 243.5zM337 515q-5 -99 19.5 -174t89 -118t183.5 -43t197.5 43 t130 118t81 174t49.5 214q20 113 25.5 213t-19 175t-88 118t-182.5 43t-198.5 -43t-131 -118t-81.5 -175t-50 -213q-20 -115 -25 -214zM512 1583q25 139 99.5 200.5t166.5 61.5q41 0 75 -6t63.5 -14t58.5 -14.5t59 -6.5q29 0 48.5 19.5t25.5 52.5h184 q-25 -139 -100.5 -200.5t-167.5 -61.5q-41 0 -75 6t-63.5 14t-57 14.5t-58.5 6.5q-29 0 -48.5 -19.5t-25.5 -52.5h-184z" />
<glyph unicode="&#xd6;" horiz-adv-x="1400" d="M91 423q3 140 32 306t76 306.5t130 243.5t211 161.5t322 58.5q193 0 301.5 -58.5t154.5 -161.5t42 -243.5t-33 -306.5t-75 -306t-129 -243.5t-212 -162t-321 -58.5q-195 0 -302.5 58.5t-153.5 162t-43 243.5zM337 515q-5 -99 19.5 -174t89 -118t183.5 -43t197.5 43 t130 118t81 174t49.5 214q20 113 25.5 213t-19 175t-88 118t-182.5 43t-198.5 -43t-131 -118t-81.5 -175t-50 -213q-20 -115 -25 -214zM571 1651l39 225h226l-39 -225h-226zM981 1651l39 225h225l-39 -225h-225z" />
<glyph unicode="&#xd7;" d="M94 371l336 286q27 23 31 51.5t-12 51.5l-234 287l168 143l235 -285q18 -23 48 -22.5t55 22.5l338 285l119 -143l-336 -287q-27 -23 -31 -51.5t12 -51.5l234 -286l-168 -144l-236 285q-18 23 -48 23t-54 -23l-338 -285z" />
<glyph unicode="&#xd9;" horiz-adv-x="1372" d="M111 344l196 1114h225l-190 -1085q-6 -37 1 -72t35 -61.5t79 -43t135 -16.5q98 0 166.5 11.5t114 36t70 64.5t34.5 99l188 1067h226l-256 -1458h-162q-72 0 -117 -6t-88 -14.5t-98.5 -14.5t-147.5 -6q-98 0 -181 21.5t-140.5 68.5t-83 120t-6.5 175zM606 1876h307 l52 -293h-205z" />
<glyph unicode="&#xda;" horiz-adv-x="1372" d="M111 344l196 1114h225l-190 -1085q-6 -37 1 -72t35 -61.5t79 -43t135 -16.5q98 0 166.5 11.5t114 36t70 64.5t34.5 99l188 1067h226l-256 -1458h-162q-72 0 -117 -6t-88 -14.5t-98.5 -14.5t-147.5 -6q-98 0 -181 21.5t-140.5 68.5t-83 120t-6.5 175zM760 1583l153 293 h308l-256 -293h-205z" />
<glyph unicode="&#xdb;" horiz-adv-x="1372" d="M111 344l196 1114h225l-190 -1085q-6 -37 1 -72t35 -61.5t79 -43t135 -16.5q98 0 166.5 11.5t114 36t70 64.5t34.5 99l188 1067h226l-256 -1458h-162q-72 0 -117 -6t-88 -14.5t-98.5 -14.5t-147.5 -6q-98 0 -181 21.5t-140.5 68.5t-83 120t-6.5 175zM514 1583l256 293 h287l153 -293h-204l-119 146l-168 -146h-205z" />
<glyph unicode="&#xdc;" horiz-adv-x="1372" d="M111 344l196 1114h225l-190 -1085q-6 -37 1 -72t35 -61.5t79 -43t135 -16.5q98 0 166.5 11.5t114 36t70 64.5t34.5 99l188 1067h226l-256 -1458h-162q-72 0 -117 -6t-88 -14.5t-98.5 -14.5t-147.5 -6q-98 0 -181 21.5t-140.5 68.5t-83 120t-6.5 175zM557 1651l39 225h225 l-39 -225h-225zM967 1651l39 225h225l-39 -225h-225z" />
<glyph unicode="&#xe0;" horiz-adv-x="1200" d="M59 282.5q-2 104.5 21 237.5q25 133 63.5 237.5t105 176.5t165 109.5t241.5 37.5q68 0 109 -6t73.5 -14t66.5 -14.5t87 -6.5h146l-183 -1040h-145q-53 0 -89 -6t-72 -14.5t-80 -14.5t-111 -6q-143 0 -228.5 38t-126.5 109.5t-43 176zM282 373.5q-3 -66.5 17 -113.5 t68.5 -73.5t138.5 -26.5t146.5 17.5t90 49t50 75.5t26.5 95l43 246q8 51 8 95t-23.5 76t-73.5 49.5t-140 17.5t-147.5 -27t-94.5 -74t-57.5 -113.5t-34.5 -146.5t-17 -146.5zM414 1458h307l51 -293h-205z" />
<glyph unicode="&#xe1;" horiz-adv-x="1200" d="M59 282.5q-2 104.5 21 237.5q25 133 63.5 237.5t105 176.5t165 109.5t241.5 37.5q68 0 109 -6t73.5 -14t66.5 -14.5t87 -6.5h146l-183 -1040h-145q-53 0 -89 -6t-72 -14.5t-80 -14.5t-111 -6q-143 0 -228.5 38t-126.5 109.5t-43 176zM282 373.5q-3 -66.5 17 -113.5 t68.5 -73.5t138.5 -26.5t146.5 17.5t90 49t50 75.5t26.5 95l43 246q8 51 8 95t-23.5 76t-73.5 49.5t-140 17.5t-147.5 -27t-94.5 -74t-57.5 -113.5t-34.5 -146.5t-17 -146.5zM569 1165l154 293h307l-256 -293h-205z" />
<glyph unicode="&#xe2;" horiz-adv-x="1200" d="M59 282.5q-2 104.5 21 237.5q25 133 63.5 237.5t105 176.5t165 109.5t241.5 37.5q68 0 109 -6t73.5 -14t66.5 -14.5t87 -6.5h146l-183 -1040h-145q-53 0 -89 -6t-72 -14.5t-80 -14.5t-111 -6q-143 0 -228.5 38t-126.5 109.5t-43 176zM282 373.5q-3 -66.5 17 -113.5 t68.5 -73.5t138.5 -26.5t146.5 17.5t90 49t50 75.5t26.5 95l43 246q8 51 8 95t-23.5 76t-73.5 49.5t-140 17.5t-147.5 -27t-94.5 -74t-57.5 -113.5t-34.5 -146.5t-17 -146.5zM324 1165l256 293h286l154 -293h-205l-119 146l-168 -146h-204z" />
<glyph unicode="&#xe3;" horiz-adv-x="1200" d="M59 282.5q-2 104.5 21 237.5q25 133 63.5 237.5t105 176.5t165 109.5t241.5 37.5q68 0 109 -6t73.5 -14t66.5 -14.5t87 -6.5h146l-183 -1040h-145q-53 0 -89 -6t-72 -14.5t-80 -14.5t-111 -6q-143 0 -228.5 38t-126.5 109.5t-43 176zM282 373.5q-3 -66.5 17 -113.5 t68.5 -73.5t138.5 -26.5t146.5 17.5t90 49t50 75.5t26.5 95l43 246q8 51 8 95t-23.5 76t-73.5 49.5t-140 17.5t-147.5 -27t-94.5 -74t-57.5 -113.5t-34.5 -146.5t-17 -146.5zM307 1165q25 139 99.5 200.5t166.5 61.5q41 0 75 -6t63.5 -14t58.5 -14.5t59 -6.5q29 0 48.5 19.5 t25.5 52.5h184q-25 -139 -100.5 -200.5t-167.5 -61.5q-41 0 -74.5 6t-63.5 14.5t-57.5 14.5t-58.5 6q-29 0 -48 -19.5t-25 -52.5h-185z" />
<glyph unicode="&#xe4;" horiz-adv-x="1200" d="M59 282.5q-2 104.5 21 237.5q25 133 63.5 237.5t105 176.5t165 109.5t241.5 37.5q68 0 109 -6t73.5 -14t66.5 -14.5t87 -6.5h146l-183 -1040h-145q-53 0 -89 -6t-72 -14.5t-80 -14.5t-111 -6q-143 0 -228.5 38t-126.5 109.5t-43 176zM282 373.5q-3 -66.5 17 -113.5 t68.5 -73.5t138.5 -26.5t146.5 17.5t90 49t50 75.5t26.5 95l43 246q8 51 8 95t-23.5 76t-73.5 49.5t-140 17.5t-147.5 -27t-94.5 -74t-57.5 -113.5t-34.5 -146.5t-17 -146.5zM367 1233l39 225h225l-39 -225h-225zM776 1233l39 225h225l-39 -225h-225z" />
<glyph unicode="&#xe5;" horiz-adv-x="1200" d="M59 282.5q-2 104.5 21 237.5q25 133 63.5 237.5t105 176.5t165 109.5t241.5 37.5q68 0 109 -6t73.5 -14t66.5 -14.5t87 -6.5h146l-183 -1040h-145q-53 0 -89 -6t-72 -14.5t-80 -14.5t-111 -6q-143 0 -228.5 38t-126.5 109.5t-43 176zM282 373.5q-3 -66.5 17 -113.5 t68.5 -73.5t138.5 -26.5t146.5 17.5t90 49t50 75.5t26.5 95l43 246q8 51 8 95t-23.5 76t-73.5 49.5t-140 17.5t-147.5 -27t-94.5 -74t-57.5 -113.5t-34.5 -146.5t-17 -146.5zM494 1356q8 43 30.5 82t56 67.5t75.5 45t85 16.5t79 -16.5t59.5 -45t34 -67.5t1.5 -82 q-8 -43 -30.5 -82t-56 -67.5t-75.5 -45t-85 -16.5t-79 16.5t-59.5 45t-33.5 67.5t-2 82zM575 1356q-10 -53 22 -91t85 -38t97.5 38t54.5 91t-22 91t-85 38t-97 -38t-55 -91z" />
<glyph unicode="&#xe7;" horiz-adv-x="1038" d="M60 303q-1 96 20 217q25 133 65.5 237.5t110.5 176.5t170 109.5t244 37.5q123 0 210 -33.5t146 -86.5l-133 -193q-47 47 -110.5 79t-141.5 32q-92 0 -152.5 -28t-100.5 -75t-61.5 -113.5t-35.5 -142.5q-12 -78 -13.5 -143.5t20 -112.5t73 -74.5t143.5 -27.5 q78 0 152.5 31.5t138.5 78.5l65 -192q-78 -53 -177 -87t-222 -34l-4 -22q-6 -31 22.5 -44.5t62.5 -29t59.5 -45t15.5 -90.5q-8 -47 -32 -79t-57.5 -51.5t-76.5 -27.5t-90 -8q-113 0 -183 39l72 149q29 -14 56.5 -19t64.5 -5q35 0 57.5 8t26.5 28q2 18 -21.5 27.5t-51 21 t-50.5 29t-16 51.5q6 39 39 74q-109 14 -174.5 57.5t-97.5 114t-33 166.5z" />
<glyph unicode="&#xe8;" horiz-adv-x="1089" d="M80 518q25 133 66.5 237.5t111.5 177.5t168 110.5t233 37.5q106 0 182.5 -34.5t119.5 -96t56 -147.5t-5 -187q-16 -82 -55 -131t-126 -49h-507q-35 0 -45 -45q-18 -109 42 -170t189 -61q96 0 178 27.5t148 68.5l61 -176q-78 -53 -177 -87t-247 -34q-258 0 -349 146.5 t-44 412.5zM324 649q-6 -45 30 -45h410q37 0 43 45q20 106 -22 169t-173 63q-123 0 -195.5 -62.5t-92.5 -169.5zM412 1458h307l51 -293h-205z" />
<glyph unicode="&#xe9;" horiz-adv-x="1089" d="M80 518q25 133 66.5 237.5t111.5 177.5t168 110.5t233 37.5q106 0 182.5 -34.5t119.5 -96t56 -147.5t-5 -187q-16 -82 -55 -131t-126 -49h-507q-35 0 -45 -45q-18 -109 42 -170t189 -61q96 0 178 27.5t148 68.5l61 -176q-78 -53 -177 -87t-247 -34q-258 0 -349 146.5 t-44 412.5zM324 649q-6 -45 30 -45h410q37 0 43 45q20 106 -22 169t-173 63q-123 0 -195.5 -62.5t-92.5 -169.5zM565 1165l154 293h307l-256 -293h-205z" />
<glyph unicode="&#xea;" horiz-adv-x="1089" d="M80 518q25 133 66.5 237.5t111.5 177.5t168 110.5t233 37.5q106 0 182.5 -34.5t119.5 -96t56 -147.5t-5 -187q-16 -82 -55 -131t-126 -49h-507q-35 0 -45 -45q-18 -109 42 -170t189 -61q96 0 178 27.5t148 68.5l61 -176q-78 -53 -177 -87t-247 -34q-258 0 -349 146.5 t-44 412.5zM309 1165l256 293h287l154 -293h-205l-119 146l-168 -146h-205zM324 649q-6 -45 30 -45h410q37 0 43 45q20 106 -22 169t-173 63q-123 0 -195.5 -62.5t-92.5 -169.5z" />
<glyph unicode="&#xeb;" horiz-adv-x="1089" d="M80 518q25 133 66.5 237.5t111.5 177.5t168 110.5t233 37.5q106 0 182.5 -34.5t119.5 -96t56 -147.5t-5 -187q-16 -82 -55 -131t-126 -49h-507q-35 0 -45 -45q-18 -109 42 -170t189 -61q96 0 178 27.5t148 68.5l61 -176q-78 -53 -177 -87t-247 -34q-258 0 -349 146.5 t-44 412.5zM324 649q-6 -45 30 -45h410q37 0 43 45q20 106 -22 169t-173 63q-123 0 -195.5 -62.5t-92.5 -169.5zM352 1233l39 225h225l-38 -225h-226zM762 1233l39 225h225l-39 -225h-225z" />
<glyph unicode="&#xec;" horiz-adv-x="520" d="M55 0l183 1040h204l-182 -1040h-205zM106 1458h308l51 -293h-205z" />
<glyph unicode="&#xed;" horiz-adv-x="520" d="M55 0l183 1040h204l-182 -1040h-205zM260 1165l154 293h307l-256 -293h-205z" />
<glyph unicode="&#xee;" horiz-adv-x="520" d="M14 1165l256 293h287l154 -293h-205l-119 146l-168 -146h-205zM55 0l183 1040h204l-182 -1040h-205z" />
<glyph unicode="&#xef;" horiz-adv-x="520" d="M55 0l183 1040h204l-182 -1040h-205zM57 1233l39 225h226l-39 -225h-226zM467 1233l39 225h225l-39 -225h-225z" />
<glyph unicode="&#xf1;" horiz-adv-x="1193" d="M41 0l182 1040h146q53 0 90 6.5t74.5 14.5t88 14t128.5 6q86 0 157.5 -17t118.5 -57t66.5 -103.5t3.5 -153.5l-131 -750h-205l125 717q6 31 3 60.5t-21.5 53t-57.5 37t-104 13.5q-90 0 -150.5 -10.5t-99.5 -35t-60.5 -66.5t-32.5 -105l-116 -664h-205zM336 1165 q25 139 99.5 200.5t166.5 61.5q41 0 75 -6t63.5 -14t58 -14.5t59.5 -6.5q29 0 48.5 19.5t25.5 52.5h184q-25 -139 -100.5 -200.5t-167.5 -61.5q-41 0 -75 6t-63.5 14.5t-57 14.5t-58.5 6q-29 0 -48.5 -19.5t-25.5 -52.5h-184z" />
<glyph unicode="&#xf2;" horiz-adv-x="1163" d="M61.5 282.5q-4.5 104.5 18.5 237.5q25 133 65.5 237.5t110.5 176.5t170 109.5t244 37.5q143 0 230 -37.5t130 -109.5t48 -176.5t-19 -237.5q-23 -133 -64 -237.5t-110.5 -176t-170 -109.5t-243.5 -38t-230 38t-131 109.5t-48.5 176zM276.5 376.5q-2.5 -65.5 19 -113.5 t72 -75.5t138.5 -27.5t147.5 27.5t98.5 75.5t61.5 113.5t34.5 143.5q14 76 15 142.5t-20.5 114.5t-71.5 76t-138 28t-147.5 -28t-98.5 -76t-60.5 -114.5t-35.5 -142.5q-12 -78 -14.5 -143.5zM428 1458h307l51 -293h-204z" />
<glyph unicode="&#xf3;" horiz-adv-x="1163" d="M61.5 282.5q-4.5 104.5 18.5 237.5q25 133 65.5 237.5t110.5 176.5t170 109.5t244 37.5q143 0 230 -37.5t130 -109.5t48 -176.5t-19 -237.5q-23 -133 -64 -237.5t-110.5 -176t-170 -109.5t-243.5 -38t-230 38t-131 109.5t-48.5 176zM276.5 376.5q-2.5 -65.5 19 -113.5 t72 -75.5t138.5 -27.5t147.5 27.5t98.5 75.5t61.5 113.5t34.5 143.5q14 76 15 142.5t-20.5 114.5t-71.5 76t-138 28t-147.5 -28t-98.5 -76t-60.5 -114.5t-35.5 -142.5q-12 -78 -14.5 -143.5zM582 1165l153 293h307l-256 -293h-204z" />
<glyph unicode="&#xf4;" horiz-adv-x="1163" d="M61.5 282.5q-4.5 104.5 18.5 237.5q25 133 65.5 237.5t110.5 176.5t170 109.5t244 37.5q143 0 230 -37.5t130 -109.5t48 -176.5t-19 -237.5q-23 -133 -64 -237.5t-110.5 -176t-170 -109.5t-243.5 -38t-230 38t-131 109.5t-48.5 176zM276.5 376.5q-2.5 -65.5 19 -113.5 t72 -75.5t138.5 -27.5t147.5 27.5t98.5 75.5t61.5 113.5t34.5 143.5q14 76 15 142.5t-20.5 114.5t-71.5 76t-138 28t-147.5 -28t-98.5 -76t-60.5 -114.5t-35.5 -142.5q-12 -78 -14.5 -143.5zM336 1165l256 293h287l153 -293h-205l-118 146l-168 -146h-205z" />
<glyph unicode="&#xf5;" horiz-adv-x="1163" d="M61.5 282.5q-4.5 104.5 18.5 237.5q25 133 65.5 237.5t110.5 176.5t170 109.5t244 37.5q143 0 230 -37.5t130 -109.5t48 -176.5t-19 -237.5q-23 -133 -64 -237.5t-110.5 -176t-170 -109.5t-243.5 -38t-230 38t-131 109.5t-48.5 176zM276.5 376.5q-2.5 -65.5 19 -113.5 t72 -75.5t138.5 -27.5t147.5 27.5t98.5 75.5t61.5 113.5t34.5 143.5q14 76 15 142.5t-20.5 114.5t-71.5 76t-138 28t-147.5 -28t-98.5 -76t-60.5 -114.5t-35.5 -142.5q-12 -78 -14.5 -143.5zM319 1165q25 139 100 200.5t167 61.5q41 0 74.5 -6t63.5 -14t58.5 -14.5 t59.5 -6.5q29 0 48 19.5t25 52.5h185q-25 -139 -100.5 -200.5t-168.5 -61.5q-41 0 -74.5 6t-63 14.5t-57.5 14.5t-58 6q-29 0 -48.5 -19.5t-25.5 -52.5h-185z" />
<glyph unicode="&#xf6;" horiz-adv-x="1163" d="M61.5 282.5q-4.5 104.5 18.5 237.5q25 133 65.5 237.5t110.5 176.5t170 109.5t244 37.5q143 0 230 -37.5t130 -109.5t48 -176.5t-19 -237.5q-23 -133 -64 -237.5t-110.5 -176t-170 -109.5t-243.5 -38t-230 38t-131 109.5t-48.5 176zM276.5 376.5q-2.5 -65.5 19 -113.5 t72 -75.5t138.5 -27.5t147.5 27.5t98.5 75.5t61.5 113.5t34.5 143.5q14 76 15 142.5t-20.5 114.5t-71.5 76t-138 28t-147.5 -28t-98.5 -76t-60.5 -114.5t-35.5 -142.5q-12 -78 -14.5 -143.5zM379 1233l39 225h225l-39 -225h-225zM788 1233l39 225h226l-39 -225h-226z" />
<glyph unicode="&#xf7;" d="M147 606l35 205h942l-34 -205h-943zM440 242l41 225h226l-41 -225h-226zM565 950l41 226h225l-40 -226h-226z" />
<glyph unicode="&#xf9;" horiz-adv-x="1193" d="M72 291l131 749h205l-127 -716q-6 -31 -3 -61t21 -53.5t57 -36.5t105 -13q90 0 150.5 10t99.5 34.5t60.5 66.5t33.5 106l117 663h204l-182 -1040h-145q-53 0 -90 -6t-75 -14.5t-88 -14.5t-128 -6q-86 0 -158 17.5t-119 57.5t-66.5 103.5t-2.5 153.5zM442 1458h308 l51 -293h-205z" />
<glyph unicode="&#xfa;" horiz-adv-x="1193" d="M72 291l131 749h205l-127 -716q-6 -31 -3 -61t21 -53.5t57 -36.5t105 -13q90 0 150.5 10t99.5 34.5t60.5 66.5t33.5 106l117 663h204l-182 -1040h-145q-53 0 -90 -6t-75 -14.5t-88 -14.5t-128 -6q-86 0 -158 17.5t-119 57.5t-66.5 103.5t-2.5 153.5zM578 1165l153 293 h307l-256 -293h-204z" />
<glyph unicode="&#xfb;" horiz-adv-x="1193" d="M72 291l131 749h205l-127 -716q-6 -31 -3 -61t21 -53.5t57 -36.5t105 -13q90 0 150.5 10t99.5 34.5t60.5 66.5t33.5 106l117 663h204l-182 -1040h-145q-53 0 -90 -6t-75 -14.5t-88 -14.5t-128 -6q-86 0 -158 17.5t-119 57.5t-66.5 103.5t-2.5 153.5zM332 1165l256 293 h286l154 -293h-205l-118 146l-168 -146h-205z" />
<glyph unicode="&#xfc;" horiz-adv-x="1193" d="M72 291l131 749h205l-127 -716q-6 -31 -3 -61t21 -53.5t57 -36.5t105 -13q90 0 150.5 10t99.5 34.5t60.5 66.5t33.5 106l117 663h204l-182 -1040h-145q-53 0 -90 -6t-75 -14.5t-88 -14.5t-128 -6q-86 0 -158 17.5t-119 57.5t-66.5 103.5t-2.5 153.5zM375 1233l39 225h225 l-39 -225h-225zM784 1233l39 225h226l-39 -225h-226z" />
<glyph unicode="&#x2c6;" d="M369 1165l256 293h286l154 -293h-205l-119 146l-168 -146h-204z" />
<glyph unicode="&#x2dc;" d="M352 1165q25 139 99.5 200.5t166.5 61.5q41 0 75 -6t63.5 -14t58.5 -14.5t59 -6.5q29 0 48.5 19.5t25.5 52.5h185q-25 -139 -101 -200.5t-168 -61.5q-41 0 -74.5 6t-63.5 14.5t-57.5 14.5t-58.5 6q-29 0 -48 -19.5t-25 -52.5h-185z" />
<glyph unicode="&#x2000;" horiz-adv-x="992" />
<glyph unicode="&#x2001;" horiz-adv-x="1985" />
<glyph unicode="&#x2002;" horiz-adv-x="992" />
<glyph unicode="&#x2003;" horiz-adv-x="1985" />
<glyph unicode="&#x2004;" horiz-adv-x="661" />
<glyph unicode="&#x2005;" horiz-adv-x="496" />
<glyph unicode="&#x2006;" horiz-adv-x="330" />
<glyph unicode="&#x2007;" horiz-adv-x="330" />
<glyph unicode="&#x2008;" horiz-adv-x="248" />
<glyph unicode="&#x2009;" horiz-adv-x="397" />
<glyph unicode="&#x200a;" horiz-adv-x="110" />
<glyph unicode="&#x2010;" horiz-adv-x="737" d="M96 571l33 189h541l-33 -189h-541z" />
<glyph unicode="&#x2011;" horiz-adv-x="737" d="M96 571l33 189h541l-33 -189h-541z" />
<glyph unicode="&#x2012;" horiz-adv-x="737" d="M96 571l33 189h541l-33 -189h-541z" />
<glyph unicode="&#x2013;" horiz-adv-x="1024" d="M96 571l33 189h827l-32 -189h-828z" />
<glyph unicode="&#x2014;" horiz-adv-x="2048" d="M96 571l33 189h1851l-32 -189h-1852z" />
<glyph unicode="&#x2018;" horiz-adv-x="438" d="M182 1020l21 113q14 78 55 174t133 182l66 -31q-66 -70 -91.5 -126t-29.5 -87h113l-41 -225h-226z" />
<glyph unicode="&#x2019;" horiz-adv-x="438" d="M211 1020q66 70 91.5 126t31.5 87h-113l39 225h225l-20 -112q-12 -78 -53 -174.5t-133 -182.5z" />
<glyph unicode="&#x201a;" horiz-adv-x="438" d="M-6 -213q66 70 91.5 126t31.5 87h-113l39 225h225l-20 -112q-14 -78 -55 -174.5t-132 -182.5z" />
<glyph unicode="&#x201c;" horiz-adv-x="765" d="M182 1020l21 113q14 78 55 174t133 182l66 -31q-66 -70 -91.5 -126t-29.5 -87h113l-41 -225h-226zM510 1020l20 113q14 78 55.5 174t133.5 182l65 -31q-66 -70 -91 -126t-29 -87h112l-41 -225h-225z" />
<glyph unicode="&#x201d;" horiz-adv-x="765" d="M211 1020q66 70 91.5 126t31.5 87h-113l39 225h225l-20 -112q-12 -78 -53 -174.5t-133 -182.5zM539 1020q66 70 91 126t32 87h-113l39 225h225l-20 -112q-12 -78 -53.5 -174.5t-133.5 -182.5z" />
<glyph unicode="&#x201e;" horiz-adv-x="765" d="M-6 -213q66 70 91.5 126t31.5 87h-113l39 225h225l-20 -112q-14 -78 -55 -174.5t-132 -182.5zM322 -213q66 70 91 126t31 87h-112l39 225h225l-21 -112q-14 -78 -55 -174.5t-131 -182.5z" />
<glyph unicode="&#x2022;" horiz-adv-x="614" d="M98 530l70 398h397l-69 -398h-398z" />
<glyph unicode="&#x2026;" horiz-adv-x="2048" d="M127 0l39 225h225l-39 -225h-225zM809 0l39 225h225l-39 -225h-225zM1491 0l39 225h225l-39 -225h-225z" />
<glyph unicode="&#x202f;" horiz-adv-x="397" />
<glyph unicode="&#x2039;" horiz-adv-x="614" d="M70 580l14 71l414 326l71 -115l-256 -217q-35 -29 -10 -59l178 -217l-112 -115z" />
<glyph unicode="&#x203a;" horiz-adv-x="614" d="M55 369l256 217q35 29 11 59l-179 217l113 115l299 -326l-14 -71l-414 -326z" />
<glyph unicode="&#x205f;" horiz-adv-x="496" />
<glyph unicode="&#x20ac;" d="M80 477l26 154h132l26 155h-131l27 154h143q39 129 93.5 226.5t131 162t178 97t230.5 32.5q117 0 204 -34.5t158 -100.5l-133 -184q-63 49 -125.5 73.5t-140.5 24.5t-135 -19.5t-99 -58.5t-72 -94t-52 -125h446l-72 -154h-411l-27 -155h367l-72 -154h-311q-4 -72 6 -127 t39 -93t79 -57.5t128 -19.5t149.5 24.5t149.5 74.5l71 -185q-98 -66 -196.5 -100.5t-214.5 -34.5q-129 0 -218 33t-143.5 97.5t-75 161.5t-12.5 226h-143z" />
<glyph unicode="&#x2122;" horiz-adv-x="741" d="M186 1403l11 55h274l-10 -55h-90q-16 0 -21 -19l-53 -303h-57l53 303q4 18 -17 19h-90zM457 1081l65 377h74l41 -192q4 -12 13 -12.5t16 12.5l110 192h74l-66 -377h-57l45 258q0 4 -3 4t-5 -4l-96 -178h-70l-31 178q-2 4 -5 4t-3 -4l-45 -258h-57z" />
<glyph unicode="&#x25fc;" horiz-adv-x="1044" d="M0 0v1044h1044v-1044h-1044z" />
</font>
</defs>
</svg>
